<?xml version="1.0" ?>
<!-- Uploaded to: SVG Repo, www.svgrepo.com, Generator: SVG Repo Mixer Tools -->
<svg width="800px" height="800px" viewBox="0 0 512 512" version="1.1" xml:space="preserve" xmlns="http://www.w3.org/2000/svg" xmlns:xlink="http://www.w3.org/1999/xlink">
<style type="text/css">
	.st0{display:none;}
	.st1{fill:#FFE2D2;}
	.st2{fill:#FFDE83;}
	.st3{fill:#F57070;}
	.st4{fill:#DBDBEF;}
	.st5{fill:#BCE2FF;}
	.st6{fill:#48446D;}
	.st7{fill:#6E78FF;}
	.st8{fill:#FFBE83;}
	.st9{fill:#F5949E;}
	.st10{fill:#D0FF67;}
	.st11{fill:#C69C6D;}
	.st12{fill:#C5BDD3;}
	.st13{fill:#FFE2B8;}
	.st14{fill:#F54670;}
</style>
<g class="st0" id="Layer_1"/>
<g id="Layer_2">
<g>
<path class="st4" d="M352.39,238.15v16.99c-0.17,0.01-0.33,0.01-0.5,0.03c-0.17,0.01-0.33,0.04-0.5,0.06    c-3.37,0.51-5.94,3.41-5.94,6.91v35.17h-178.9v-59.89c0.04-0.01,0.08-0.03,0.12-0.03c0.75-0.17,1.49-0.38,2.22-0.6    c0.17-0.05,0.35-0.11,0.52-0.17c0.65-0.21,1.29-0.44,1.92-0.69c0.1-0.04,0.2-0.08,0.31-0.12c0.7-0.29,1.39-0.62,2.07-0.96    c0.16-0.08,0.32-0.16,0.48-0.25c0.61-0.32,1.22-0.66,1.81-1.03c0.07-0.04,0.14-0.08,0.21-0.12c0.64-0.4,1.27-0.83,1.88-1.28    c0.14-0.1,0.29-0.21,0.43-0.32c0.58-0.44,1.14-0.89,1.68-1.36c0.04-0.03,0.07-0.06,0.11-0.09c0.57-0.5,1.11-1.03,1.64-1.57    c0.13-0.13,0.25-0.26,0.38-0.4c0.52-0.55,1.04-1.11,1.52-1.7c5.69,6.97,14.36,11.43,24.04,11.43c1.22,0,2.41-0.07,3.59-0.21    c8.22-0.95,15.48-5.12,20.47-11.22c4.99,6.1,12.24,10.27,20.47,11.22c1.17,0.14,2.37,0.21,3.58,0.21s2.41-0.07,3.58-0.21    c8.23-0.95,15.48-5.12,20.47-11.22c4.99,6.1,12.25,10.27,20.47,11.22c1.18,0.14,2.37,0.21,3.59,0.21    c9.68,0,18.35-4.46,24.04-11.43c5.54,6.77,13.88,11.16,23.24,11.41c0.17,0,0.33,0.02,0.5,0.02h0.31    C352.25,238.16,352.31,238.16,352.39,238.15z"/>
<path class="st4" d="M387.43,380.99v73.81H124.57v-44.74c0-3.8-3.03-6.89-6.81-6.99c-0.06,0-0.13-0.01-0.19-0.01    c-0.11,0-0.21,0-0.31,0.02c-0.17,0.01-0.33,0.03-0.5,0.04v-19.76c0.17-0.03,0.33-0.05,0.5-0.08s0.33-0.08,0.5-0.11    c0.51-0.1,1.02-0.2,1.52-0.33c6.67-1.68,12.37-5.43,16.48-10.47c5.7,6.96,14.36,11.41,24.04,11.41c8.47,0,16.17-3.41,21.77-8.94    c0.81-0.79,1.56-1.62,2.28-2.49c5.69,6.97,14.36,11.43,24.04,11.43c7.88,0,15.08-2.94,20.55-7.79c1.27-1.12,2.44-2.33,3.51-3.64    c5.7,6.97,14.36,11.43,24.05,11.43s18.35-4.46,24.05-11.43c1.07,1.31,2.24,2.52,3.51,3.64c5.47,4.85,12.67,7.79,20.55,7.79    c9.68,0,18.35-4.46,24.04-11.43c0.72,0.87,1.47,1.7,2.28,2.49c5.6,5.53,13.3,8.94,21.77,8.94c0.82,0,1.62-0.04,2.42-0.11    c6.32-0.49,12.12-2.86,16.82-6.58c0.13-0.1,0.25-0.21,0.37-0.31c0.31-0.25,0.62-0.51,0.92-0.77c1.27-1.12,2.44-2.33,3.51-3.64    c0.05,0.07,0.12,0.13,0.17,0.2c0.39,0.47,0.8,0.93,1.22,1.38c0.18,0.2,0.38,0.39,0.57,0.59c0.33,0.33,0.66,0.65,1,0.96    c0.2,0.19,0.4,0.38,0.6,0.56c0.5,0.44,1.01,0.86,1.54,1.27c0.22,0.17,0.44,0.32,0.67,0.48c0.36,0.27,0.72,0.53,1.1,0.77    c0.26,0.18,0.52,0.35,0.79,0.52c0.39,0.24,0.79,0.47,1.19,0.7c0.24,0.13,0.46,0.26,0.7,0.39    C386.32,380.47,386.87,380.74,387.43,380.99z"/>
<path class="st2" d="M369.26,183.93v23.18c0,9.31-7.57,16.95-16.88,17.04h-0.27c-0.02,0.01-0.03,0-0.05,0.01    c-3.5-0.03-6.75-1.12-9.45-2.96c-0.15-0.1-0.28-0.22-0.42-0.33c-0.3-0.21-0.6-0.42-0.88-0.66c-0.21-0.17-0.4-0.37-0.61-0.55    c-0.19-0.18-0.4-0.36-0.59-0.55c-0.2-0.19-0.37-0.41-0.56-0.61c-0.18-0.2-0.36-0.39-0.53-0.6c-0.33-0.4-0.65-0.82-0.94-1.25    c-0.01-0.02-0.03-0.04-0.04-0.05c-0.26-0.4-0.51-0.82-0.74-1.23c-0.03-0.06-0.07-0.12-0.1-0.18c-0.21-0.38-0.4-0.79-0.58-1.19    c-0.04-0.1-0.1-0.19-0.14-0.29c-0.42-1-0.74-2.04-0.97-3.12c0-0.02-0.01-0.04-0.01-0.07c-0.07-0.33-0.11-0.67-0.16-1.02    c-0.11-0.78-0.19-1.58-0.19-2.39c0-3.87-3.13-7-7-7c-3.86,0-7,3.13-7,7c0,9.4-7.64,17.05-17.04,17.05    c-9.41,0-17.06-7.65-17.06-17.05c0-3.87-3.14-7-7-7c-3.87,0-7,3.13-7,7c0,9.4-7.65,17.05-17.05,17.05s-17.05-7.65-17.05-17.05    c0-3.87-3.13-7-7-7c-3.86,0-7,3.13-7,7c0,9.4-7.65,17.05-17.06,17.05c-9.4,0-17.04-7.65-17.04-17.05c0-3.87-3.14-7-7-7    c-3.87,0-7,3.13-7,7c0,1.17-0.12,2.31-0.35,3.41c-1.57,7.73-8.39,13.57-16.57,13.64c-0.11-0.01-0.21-0.01-0.31-0.01    c-9.31-0.09-16.88-7.73-16.88-17.04v-23.18c0-10.06,8.18-18.24,18.24-18.24h22.69c3.69,0,6.72-2.87,6.97-6.5    c0.02-0.17,0.03-0.33,0.03-0.5c0-0.17-0.01-0.33-0.03-0.5h12.53c-0.01,0.17-0.02,0.33-0.02,0.5c0,0.17,0.01,0.33,0.02,0.5    c0.02,0.29,0.05,0.58,0.11,0.87c0.09,0.44,0.23,0.88,0.4,1.3c0.18,0.43,0.39,0.83,0.65,1.21c0.25,0.39,0.54,0.75,0.87,1.07    c0.32,0.32,0.68,0.61,1.06,0.87c0.38,0.25,0.79,0.47,1.21,0.64c0.42,0.18,0.86,0.31,1.31,0.4c0.45,0.09,0.91,0.14,1.37,0.14    c0.45,0,0.91-0.05,1.36-0.14c0.45-0.09,0.89-0.22,1.31-0.4c0.42-0.17,0.83-0.39,1.21-0.64c0.38-0.26,0.74-0.55,1.06-0.87    c0.33-0.32,0.62-0.68,0.88-1.07c0.25-0.38,0.46-0.78,0.64-1.21c0.17-0.42,0.31-0.86,0.4-1.3c0.06-0.29,0.09-0.58,0.11-0.87    c0.02-0.17,0.03-0.33,0.03-0.5c0-0.17-0.01-0.33-0.03-0.5h9.21c-0.02,0.17-0.03,0.33-0.03,0.5c0,0.17,0.01,0.33,0.03,0.5    c0.25,3.63,3.27,6.5,6.97,6.5h117.72C361.08,165.69,369.26,173.87,369.26,183.93z"/>
<path class="st3" d="M287.65,71.64c0.14,9.76-7.17,21.9-21.14,35.08c-0.08,0.07-0.16,0.14-0.25,0.22    c-0.08,0.08-0.18,0.15-0.26,0.23l-0.25,0.21c-0.21,0.17-0.41,0.34-0.62,0.5c-0.15,0.12-0.32,0.23-0.56,0.39    c-0.22,0.15-0.44,0.3-0.67,0.44c-0.18,0.11-0.36,0.21-0.56,0.32c-0.24,0.13-0.48,0.25-0.71,0.36c-0.18,0.09-0.36,0.17-0.56,0.26    c-0.27,0.11-0.53,0.21-0.8,0.3c-0.01,0.01-0.1,0.04-0.11,0.04c-0.14,0.05-0.28,0.1-0.41,0.15c-0.3,0.09-0.6,0.17-0.89,0.24    l-0.49,0.12c-0.33,0.07-0.67,0.12-1.02,0.17c-0.13,0.02-0.26,0.04-0.46,0.07c-0.49,0.05-0.92,0.08-1.25,0.08    c-0.03,0-0.07,0-0.1,0.01c-0.44,0-0.91-0.02-1.39-0.06c-0.15-0.02-0.29-0.04-0.41-0.05c-0.34-0.04-0.68-0.08-1.02-0.14l-0.5-0.11    c-0.29-0.06-0.59-0.13-0.88-0.21c-0.15-0.04-0.3-0.09-0.53-0.17c-0.28-0.09-0.56-0.18-0.81-0.28c-0.19-0.08-0.37-0.16-0.56-0.24    c-0.25-0.11-0.5-0.23-0.75-0.36c-0.19-0.09-0.38-0.19-0.56-0.29c-0.23-0.14-0.47-0.29-0.68-0.42l-0.11-0.07    c-0.15-0.1-0.3-0.19-0.46-0.31c-0.21-0.15-0.42-0.31-0.65-0.5l-0.24-0.19c-0.09-0.07-0.18-0.14-0.29-0.23    c-0.08-0.07-0.15-0.13-0.23-0.2c-14.34-12.79-21.99-24.71-22.12-34.47c-0.06-3.91,1.41-7.61,4.14-10.42    c2.73-2.8,6.38-4.38,10.3-4.43h0.17c4.42,0,8.6,1.96,11.41,5.44c1.33,1.64,3.33,2.59,5.44,2.59h0.1c2.15-0.03,4.16-1.04,5.46-2.74    c2.76-3.61,6.92-5.71,11.43-5.77c3.92-0.03,7.61,1.41,10.42,4.14C286.02,64.07,287.6,67.73,287.65,71.64z"/>
<path class="st2" d="M417.37,329.55v23.18c0,9.4-7.66,17.05-17.06,17.05c-1.43,0-2.82-0.17-4.18-0.52    c-7.58-1.9-12.87-8.7-12.87-16.53c0-3.86-3.13-7-7-7s-7,3.14-7,7c0,9.4-7.65,17.05-17.06,17.05c-9.4,0-17.05-7.65-17.05-17.05    c0-3.86-3.13-7-7-7c-3.86,0-7,3.14-7,7c0,9.4-7.64,17.05-17.04,17.05c-9.41,0-17.06-7.65-17.06-17.05c0-3.86-3.14-7-7-7    c-3.87,0-7,3.14-7,7c0,9.4-7.65,17.05-17.05,17.05s-17.05-7.65-17.05-17.05c0-3.86-3.13-7-7-7c-3.86,0-7,3.14-7,7    c0,9.4-7.65,17.05-17.06,17.05c-9.4,0-17.04-7.65-17.04-17.05c0-3.86-3.14-7-7-7c-3.87,0-7,3.14-7,7c0,9.4-7.65,17.05-17.05,17.05    c-9.41,0-17.06-7.65-17.06-17.05c0-3.86-3.13-7-7-7s-7,3.14-7,7c0,0.49-0.02,0.98-0.06,1.46c-0.61,7.2-5.71,13.29-12.85,15.08    c-1.32,0.34-2.71,0.51-4.14,0.51c-9.4,0-17.06-7.65-17.06-17.05v-23.18c0-10.06,8.19-18.24,18.25-18.24h286.24    C409.18,311.31,417.37,319.49,417.37,329.55z"/>
<path class="st6" d="M399.12,297.31h-39.67v-35.17c0-3.86-3.14-7-7-7h-0.06c-0.17,0.01-0.33,0.01-0.5,0.03    c-0.17,0.01-0.33,0.04-0.5,0.06c-3.37,0.51-5.94,3.41-5.94,6.91v35.17h-178.9v-59.89c0.04-0.01,0.08-0.03,0.12-0.03    c0.75-0.17,1.49-0.38,2.22-0.6c0.17-0.05,0.35-0.11,0.52-0.17c0.65-0.21,1.29-0.44,1.92-0.69c0.1-0.04,0.2-0.08,0.31-0.12    c0.7-0.29,1.39-0.62,2.07-0.96c0.16-0.08,0.32-0.16,0.48-0.25c0.61-0.32,1.22-0.66,1.81-1.03c0.07-0.04,0.14-0.08,0.21-0.12    c0.64-0.4,1.27-0.83,1.88-1.28c0.14-0.1,0.29-0.21,0.43-0.32c0.58-0.44,1.14-0.89,1.68-1.36c0.04-0.03,0.07-0.06,0.11-0.09    c0.57-0.5,1.11-1.03,1.64-1.57c0.13-0.13,0.25-0.26,0.38-0.4c0.52-0.55,1.04-1.11,1.52-1.7c5.69,6.97,14.36,11.43,24.04,11.43    c1.22,0,2.41-0.07,3.59-0.21c8.22-0.95,15.48-5.12,20.47-11.22c4.99,6.1,12.24,10.27,20.47,11.22c1.17,0.14,2.37,0.21,3.58,0.21    s2.41-0.07,3.58-0.21c8.23-0.95,15.48-5.12,20.47-11.22c4.99,6.1,12.25,10.27,20.47,11.22c1.18,0.14,2.37,0.21,3.59,0.21    c9.68,0,18.35-4.46,24.04-11.43c5.54,6.77,13.88,11.16,23.24,11.41c0.17,0,0.33,0.02,0.5,0.02h0.31c0.05,0,0.11,0,0.19-0.01    c0.01,0,0.01,0,0.02,0h0.07c0.07,0,0.15,0,0.24-0.01h0.04c16.84-0.29,30.5-14.16,30.5-31.03v-23.18    c0-17.78-14.47-32.24-32.24-32.24h-87.37v-27.84c0.43-0.11,0.85-0.22,1.28-0.35c0.33-0.1,0.64-0.22,1.03-0.35    c0.53-0.19,1.06-0.4,1.58-0.61c0.36-0.16,0.71-0.32,1.08-0.49c0.49-0.24,0.97-0.48,1.44-0.74c0.37-0.2,0.74-0.41,1.1-0.63    c0.45-0.27,0.88-0.56,1.38-0.89c0.34-0.24,0.67-0.47,1.01-0.72c0.42-0.32,0.83-0.66,1.25-1.01l0.16-0.14    c0.24-0.2,0.47-0.4,0.69-0.59c0.11-0.09,0.22-0.19,0.33-0.3c17.23-16.23,25.87-31.57,25.67-45.59c-0.1-7.65-3.19-14.8-8.67-20.14    c-5.49-5.33-12.75-8.19-20.38-8.1c-6.22,0.09-12.11,2.15-16.93,5.83c-4.91-3.54-10.85-5.45-17.08-5.35    c-7.65,0.11-14.8,3.19-20.14,8.67c-5.33,5.49-8.21,12.73-8.1,20.38c0.19,14.02,9.26,29.11,26.93,44.84c0.12,0.1,0.24,0.2,0.36,0.3    c0.23,0.2,0.47,0.38,0.7,0.57l0.18,0.14c0.42,0.34,0.84,0.66,1.25,0.96c0.33,0.23,0.67,0.45,1,0.67l0.12,0.07    c0.44,0.28,0.88,0.55,1.34,0.82c0.36,0.2,0.73,0.39,1.08,0.58c0.5,0.25,0.99,0.49,1.49,0.7c0.35,0.16,0.7,0.31,1.08,0.46    c0.53,0.2,1.07,0.39,1.68,0.59c0.31,0.1,0.63,0.2,0.95,0.3c0.38,0.1,0.76,0.19,1.14,0.27v27.69H233.3c-3.7,0-6.72,2.87-6.97,6.5    c-0.02,0.17-0.03,0.33-0.03,0.5c0,0.17,0.01,0.33,0.03,0.5c0.25,3.63,3.27,6.5,6.97,6.5h117.72c10.06,0,18.24,8.18,18.24,18.24    v23.18c0,9.31-7.57,16.95-16.88,17.04h-0.27c-0.02,0.01-0.03,0-0.05,0.01c-3.5-0.03-6.75-1.12-9.45-2.96    c-0.15-0.1-0.28-0.22-0.42-0.33c-0.3-0.21-0.6-0.42-0.88-0.66c-0.21-0.17-0.4-0.37-0.61-0.55c-0.19-0.18-0.4-0.36-0.59-0.55    c-0.2-0.19-0.37-0.41-0.56-0.61c-0.18-0.2-0.36-0.39-0.53-0.6c-0.33-0.4-0.65-0.82-0.94-1.25c-0.01-0.02-0.03-0.04-0.04-0.05    c-0.26-0.4-0.51-0.82-0.74-1.23c-0.03-0.06-0.07-0.12-0.1-0.18c-0.21-0.38-0.4-0.79-0.58-1.19c-0.04-0.1-0.1-0.19-0.14-0.29    c-0.42-1-0.74-2.04-0.97-3.12c0-0.02-0.01-0.04-0.01-0.07c-0.07-0.33-0.11-0.67-0.16-1.02c-0.11-0.78-0.19-1.58-0.19-2.39    c0-3.87-3.13-7-7-7c-3.86,0-7,3.13-7,7c0,9.4-7.64,17.05-17.04,17.05c-9.41,0-17.06-7.65-17.06-17.05c0-3.87-3.14-7-7-7    c-3.87,0-7,3.13-7,7c0,9.4-7.65,17.05-17.05,17.05s-17.05-7.65-17.05-17.05c0-3.87-3.13-7-7-7c-3.86,0-7,3.13-7,7    c0,9.4-7.65,17.05-17.06,17.05c-9.4,0-17.04-7.65-17.04-17.05c0-3.87-3.14-7-7-7c-3.87,0-7,3.13-7,7c0,1.17-0.12,2.31-0.35,3.41    c-1.57,7.73-8.39,13.57-16.57,13.64c-0.11-0.01-0.21-0.01-0.31-0.01c-9.31-0.09-16.88-7.73-16.88-17.04v-23.18    c0-10.06,8.18-18.24,18.24-18.24h22.69c3.69,0,6.72-2.87,6.97-6.5c0.02-0.17,0.03-0.33,0.03-0.5c0-0.17-0.01-0.33-0.03-0.5    c-0.25-3.63-3.28-6.5-6.97-6.5h-22.69c-17.77,0-32.24,14.46-32.24,32.24v23.18c0,14.57,10.19,26.89,23.81,30.17v60.03h-39.67    c-17.78,0-32.25,14.46-32.25,32.24v23.18c0,17.12,13.94,31.05,31.06,31.05c1.73,0,3.42-0.15,5.07-0.42    c0.17-0.03,0.33-0.05,0.5-0.08s0.33-0.08,0.5-0.11c0.51-0.1,1.02-0.2,1.52-0.33c6.67-1.68,12.37-5.43,16.48-10.47    c5.7,6.96,14.36,11.41,24.04,11.41c8.47,0,16.17-3.41,21.77-8.94c0.81-0.79,1.56-1.62,2.28-2.49    c5.69,6.97,14.36,11.43,24.04,11.43c7.88,0,15.08-2.94,20.55-7.79c1.27-1.12,2.44-2.33,3.51-3.64    c5.7,6.97,14.36,11.43,24.05,11.43s18.35-4.46,24.05-11.43c1.07,1.31,2.24,2.52,3.51,3.64c5.47,4.85,12.67,7.79,20.55,7.79    c9.68,0,18.35-4.46,24.04-11.43c0.72,0.87,1.47,1.7,2.28,2.49c5.6,5.53,13.3,8.94,21.77,8.94c0.82,0,1.62-0.04,2.42-0.11    c6.32-0.49,12.12-2.86,16.82-6.58c0.13-0.1,0.25-0.21,0.37-0.31c0.31-0.25,0.62-0.51,0.92-0.77c1.27-1.12,2.44-2.33,3.51-3.64    c0.05,0.07,0.12,0.13,0.17,0.2c0.39,0.47,0.8,0.93,1.22,1.38c0.18,0.2,0.38,0.39,0.57,0.59c0.33,0.33,0.66,0.65,1,0.96    c0.2,0.19,0.4,0.38,0.6,0.56c0.5,0.44,1.01,0.86,1.54,1.27c0.22,0.17,0.44,0.32,0.67,0.48c0.36,0.27,0.72,0.53,1.1,0.77    c0.26,0.18,0.52,0.35,0.79,0.52c0.39,0.24,0.79,0.47,1.19,0.7c0.24,0.13,0.46,0.26,0.7,0.39c0.53,0.28,1.08,0.55,1.64,0.8v73.81    H124.57v-44.74c0-3.8-3.03-6.89-6.81-6.99c-0.06,0-0.13-0.01-0.19-0.01c-0.11,0-0.21,0-0.31,0.02c-0.17,0.01-0.33,0.03-0.5,0.04    c-3.48,0.4-6.19,3.36-6.19,6.94v51.74c0,3.87,3.14,7,7,7h276.86c3.86,0,7-3.13,7-7v-78.05c16.61-0.59,29.94-14.27,29.94-31.02    v-23.18C431.37,311.77,416.9,297.31,399.12,297.31z M262.63,109.39c-0.18,0.09-0.36,0.17-0.56,0.26c-0.27,0.11-0.53,0.21-0.8,0.3    c-0.01,0.01-0.1,0.04-0.11,0.04c-0.14,0.05-0.28,0.1-0.41,0.15c-0.3,0.09-0.6,0.17-0.89,0.24l-0.49,0.12    c-0.33,0.07-0.67,0.12-1.02,0.17c-0.13,0.02-0.26,0.04-0.46,0.07c-0.49,0.05-0.92,0.08-1.25,0.08c-0.03,0-0.07,0-0.1,0.01    c-0.44,0-0.91-0.02-1.39-0.06c-0.15-0.02-0.29-0.04-0.41-0.05c-0.34-0.04-0.68-0.08-1.02-0.14l-0.5-0.11    c-0.29-0.06-0.59-0.13-0.88-0.21c-0.15-0.04-0.3-0.09-0.53-0.17c-0.28-0.09-0.56-0.18-0.81-0.28c-0.19-0.08-0.37-0.16-0.56-0.24    c-0.25-0.11-0.5-0.23-0.75-0.36c-0.19-0.09-0.38-0.19-0.56-0.29c-0.23-0.14-0.47-0.29-0.68-0.42l-0.11-0.07    c-0.15-0.1-0.3-0.19-0.46-0.31c-0.21-0.15-0.42-0.31-0.65-0.5l-0.24-0.19c-0.09-0.07-0.18-0.14-0.29-0.23    c-0.08-0.07-0.15-0.13-0.23-0.2c-14.34-12.79-21.99-24.71-22.12-34.47c-0.06-3.91,1.41-7.61,4.14-10.42    c2.73-2.8,6.38-4.38,10.3-4.43h0.17c4.42,0,8.6,1.96,11.41,5.44c1.33,1.64,3.33,2.59,5.44,2.59h0.1c2.15-0.03,4.16-1.04,5.46-2.74    c2.76-3.61,6.92-5.71,11.43-5.77c3.92-0.03,7.61,1.41,10.42,4.14c2.8,2.73,4.38,6.39,4.43,10.3c0.14,9.76-7.17,21.9-21.14,35.08    c-0.08,0.07-0.16,0.14-0.25,0.22c-0.08,0.08-0.18,0.15-0.26,0.23l-0.25,0.21c-0.21,0.17-0.41,0.34-0.62,0.5    c-0.15,0.12-0.32,0.23-0.56,0.39c-0.22,0.15-0.44,0.3-0.67,0.44c-0.18,0.11-0.36,0.21-0.56,0.32    C263.1,109.16,262.86,109.28,262.63,109.39z M417.37,352.73c0,9.4-7.66,17.05-17.06,17.05c-1.43,0-2.82-0.17-4.18-0.52    c-7.58-1.9-12.87-8.7-12.87-16.53c0-3.86-3.13-7-7-7s-7,3.14-7,7c0,9.4-7.65,17.05-17.06,17.05c-9.4,0-17.05-7.65-17.05-17.05    c0-3.86-3.13-7-7-7c-3.86,0-7,3.14-7,7c0,9.4-7.64,17.05-17.04,17.05c-9.41,0-17.06-7.65-17.06-17.05c0-3.86-3.14-7-7-7    c-3.87,0-7,3.14-7,7c0,9.4-7.65,17.05-17.05,17.05s-17.05-7.65-17.05-17.05c0-3.86-3.13-7-7-7c-3.86,0-7,3.14-7,7    c0,9.4-7.65,17.05-17.06,17.05c-9.4,0-17.04-7.65-17.04-17.05c0-3.86-3.14-7-7-7c-3.87,0-7,3.14-7,7c0,9.4-7.65,17.05-17.05,17.05    c-9.41,0-17.06-7.65-17.06-17.05c0-3.86-3.13-7-7-7s-7,3.14-7,7c0,0.49-0.02,0.98-0.06,1.46c-0.61,7.2-5.71,13.29-12.85,15.08    c-1.32,0.34-2.71,0.51-4.14,0.51c-9.4,0-17.06-7.65-17.06-17.05v-23.18c0-10.06,8.19-18.24,18.25-18.24h286.24    c10.06,0,18.25,8.18,18.25,18.24V352.73z"/>
<path class="st6" d="M217.15,158.69c0,0.17-0.01,0.33-0.03,0.5c-0.02,0.29-0.05,0.58-0.11,0.87c-0.09,0.44-0.23,0.88-0.4,1.3    c-0.18,0.43-0.39,0.83-0.64,1.21c-0.26,0.39-0.55,0.75-0.88,1.07c-0.32,0.32-0.68,0.61-1.06,0.87c-0.38,0.25-0.79,0.47-1.21,0.64    c-0.42,0.18-0.86,0.31-1.31,0.4c-0.45,0.09-0.91,0.14-1.36,0.14c-0.46,0-0.92-0.05-1.37-0.14c-0.45-0.09-0.89-0.22-1.31-0.4    c-0.42-0.17-0.83-0.39-1.21-0.64c-0.38-0.26-0.74-0.55-1.06-0.87c-0.33-0.32-0.62-0.68-0.87-1.07c-0.26-0.38-0.47-0.78-0.65-1.21    c-0.17-0.42-0.31-0.86-0.4-1.3c-0.06-0.29-0.09-0.58-0.11-0.87c-0.01-0.17-0.02-0.33-0.02-0.5c0-0.17,0.01-0.33,0.02-0.5    c0.02-0.29,0.05-0.58,0.11-0.87c0.09-0.45,0.23-0.89,0.4-1.31c0.18-0.42,0.39-0.83,0.65-1.21c0.25-0.38,0.54-0.74,0.87-1.06    c0.32-0.33,0.68-0.62,1.06-0.87s0.79-0.47,1.21-0.65c0.42-0.17,0.86-0.31,1.31-0.4c0.9-0.18,1.83-0.18,2.73,0    c0.45,0.09,0.89,0.23,1.31,0.4c0.42,0.18,0.83,0.4,1.21,0.65c0.38,0.25,0.74,0.54,1.06,0.87c0.33,0.32,0.62,0.68,0.88,1.06    c0.25,0.38,0.46,0.79,0.64,1.21c0.17,0.42,0.31,0.86,0.4,1.31c0.06,0.29,0.09,0.58,0.11,0.87    C217.14,158.36,217.15,158.52,217.15,158.69z"/>
</g>
</g>
</svg>