<?xml version="1.0" encoding="iso-8859-1"?>
<!-- Uploaded to: SVG Repo, www.svgrepo.com, Generator: SVG Repo Mixer Tools -->
<svg version="1.1" id="Layer_1" xmlns="http://www.w3.org/2000/svg" xmlns:xlink="http://www.w3.org/1999/xlink" 
	 viewBox="0 0 512 512" xml:space="preserve">
<rect x="320" y="140.8" style="fill:#FF877F;" width="153.6" height="102.4"/>
<g>
	<rect x="320" y="243.2" style="fill:#BF655F;" width="128" height="256"/>
	<rect x="64" y="243.2" style="fill:#BF655F;" width="128" height="256"/>
</g>
<rect x="38.4" y="140.8" style="fill:#FF877F;" width="153.6" height="102.4"/>
<rect x="192" y="140.8" style="fill:#FEDEA1;" width="128" height="358.4"/>
<path style="fill:#573A32;" d="M25.6,153.6v76.8c0,14.14,11.46,25.6,25.6,25.6v230.4c0,14.14,11.46,25.6,25.6,25.6h128h102.4h128
	c14.14,0,25.6-11.46,25.6-25.6V256c14.14,0,25.6-11.46,25.6-25.6v-76.8c0-14.14-11.46-25.6-25.6-25.6h-90.189
	c7.612-2.799,14.182-5.726,19.089-8.567c30.609-17.673,41.097-56.815,23.424-87.424C401.271,11.477,379.759,0,357.641,0
	c-10.854,0-21.862,2.765-31.94,8.585c-19.115,11.042-52.002,42.931-69.7,72.789c-17.698-29.85-50.586-61.747-69.7-72.789
	C176.222,2.765,165.222,0,154.359,0c-22.118,0-43.631,11.477-55.484,32.009c-17.673,30.609-7.185,69.751,23.424,87.424
	c4.907,2.833,11.477,5.76,19.089,8.567H51.2C37.06,128,25.6,139.46,25.6,153.6z M179.2,486.4H76.8V256h102.4V486.4z M435.2,486.4
	H332.8V256h102.4V486.4z M460.8,153.6v76.8h-25.6H332.8v-76.8H460.8z M338.5,30.754c5.845-3.371,12.459-5.154,19.14-5.154
	c13.713,0,26.479,7.364,33.314,19.209c10.59,18.338,4.284,41.865-14.054,52.454c-14.515,8.38-55.535,20.557-86.775,20.557
	c-11.699,0-18.099-1.766-20.719-2.961C269.713,97.425,311.134,46.558,338.5,30.754z M307.2,153.6v332.8H204.8V153.6H307.2z
	 M135.1,97.263c-18.338-10.59-24.644-34.116-14.054-52.454c6.835-11.844,19.61-19.209,33.323-19.209
	c6.682,0,13.295,1.783,19.132,5.154c27.366,15.804,68.787,66.671,69.086,84.105c-2.62,1.195-9.02,2.961-20.719,2.961
	C190.635,117.82,149.615,105.643,135.1,97.263z M179.2,153.6v76.8H76.8H51.2v-76.8H179.2z"/>
</svg>