<?xml version="1.0" ?>
<!-- Uploaded to: SVG Repo, www.svgrepo.com, Generator: SVG Repo Mixer Tools -->
<svg width="800px" height="800px" viewBox="0 0 512 512" version="1.1" xml:space="preserve" xmlns="http://www.w3.org/2000/svg" xmlns:xlink="http://www.w3.org/1999/xlink">
<style type="text/css">
	.st0{display:none;}
	.st1{fill:#FFE2D2;}
	.st2{fill:#FFDE83;}
	.st3{fill:#F57070;}
	.st4{fill:#DBDBEF;}
	.st5{fill:#BCE2FF;}
	.st6{fill:#48446D;}
	.st7{fill:#6E78FF;}
	.st8{fill:#FFBE83;}
	.st9{fill:#F5949E;}
	.st10{fill:#D0FF67;}
	.st11{fill:#C69C6D;}
	.st12{fill:#C5BDD3;}
	.st13{fill:#FFE2B8;}
	.st14{fill:#F54670;}
</style>
<g class="st0" id="Layer_1"/>
<g id="Layer_2">
<g>
<path class="st2" d="M454.5,140.08v39.17l-46.05,30.73l-46.41,30.98c0.09-0.44,0.17-0.87,0.26-1.3c0.06-0.33,0.13-0.66,0.19-0.99    c0.08-0.43,0.15-0.86,0.23-1.29c0.06-0.36,0.13-0.72,0.18-1.08c0.07-0.41,0.12-0.81,0.18-1.22c0.05-0.38,0.11-0.76,0.16-1.13    c0.05-0.4,0.1-0.79,0.14-1.19c0.05-0.38,0.1-0.77,0.14-1.16s0.07-0.78,0.1-1.18c0.03-0.38,0.07-0.76,0.1-1.14    c0.03-0.43,0.05-0.85,0.08-1.27c0.02-0.35,0.04-0.7,0.06-1.04c0.02-0.47,0.03-0.94,0.04-1.41c0.01-0.29,0.02-0.59,0.03-0.89    c0.01-0.76,0.01-1.53,0-2.28c-0.01-0.43-0.04-0.85-0.05-1.28c-0.55-16.63-7.38-32.13-19.35-43.76    c-12.27-11.93-28.48-18.37-45.57-18.12c-16.96,0.23-32.81,7.05-44.57,18.97c-12.09-11.58-28.08-17.95-45.09-17.71    c-17.11,0.23-33.11,7.12-45.03,19.4c-1.5,1.53-2.9,3.12-4.22,4.77c-9.22,11.56-14.12,25.82-13.91,40.79    c0.02,1.25,0.07,2.5,0.15,3.76c0.03,0.41,0.07,0.82,0.1,1.23c0.07,0.86,0.14,1.72,0.24,2.58c0.05,0.48,0.12,0.96,0.18,1.45    c0.1,0.8,0.21,1.6,0.34,2.41c0.08,0.5,0.16,1,0.25,1.5c0.06,0.33,0.1,0.65,0.16,0.98L57.5,179.25v-39.17    c0-7.49,6.1-13.58,13.59-13.58h302.36c3.69,0,6.72-2.87,6.97-6.5c0.02-0.17,0.03-0.33,0.03-0.5c0-0.17-0.01-0.33-0.03-0.5h11.73    c-0.01,0.17-0.02,0.33-0.02,0.5c0,0.17,0.01,0.33,0.02,0.5c0.02,0.29,0.06,0.58,0.12,0.86c0.09,0.45,0.22,0.89,0.39,1.31    c0.18,0.42,0.4,0.83,0.65,1.21s0.55,0.74,0.87,1.07c0.32,0.32,0.68,0.61,1.06,0.86c0.38,0.26,0.79,0.47,1.21,0.65    c0.42,0.17,0.86,0.31,1.31,0.4c0.45,0.09,0.91,0.14,1.37,0.14c0.45,0,0.91-0.05,1.37-0.14c0.44-0.09,0.88-0.23,1.31-0.4    c0.42-0.18,0.82-0.39,1.2-0.65c0.39-0.25,0.74-0.54,1.07-0.86c0.32-0.33,0.61-0.69,0.87-1.07c0.25-0.38,0.47-0.79,0.64-1.21    c0.18-0.42,0.31-0.86,0.4-1.31c0.06-0.28,0.09-0.57,0.11-0.86c0.02-0.17,0.03-0.33,0.03-0.5c0-0.17-0.01-0.33-0.03-0.5h7.9    c-0.01,0.17-0.02,0.33-0.02,0.5c0,0.17,0.01,0.33,0.03,0.5c0.25,3.63,3.27,6.5,6.97,6.5h19.93    C448.4,126.5,454.5,132.59,454.5,140.08z"/>
<path class="st8" d="M174.54,294.44l-12.33,24.66l-35.13,70.28c-0.01,0.01-0.02,0.03-0.03,0.05c-0.11,0.23-0.21,0.47-0.29,0.7    c-0.03,0.08-0.05,0.16-0.08,0.23c-0.06,0.2-0.11,0.39-0.16,0.59c-0.01,0.07-0.03,0.14-0.05,0.22c-0.04,0.21-0.07,0.44-0.09,0.65    c0,0.01,0,0.01,0,0.02c-0.01,0.05-0.01,0.09-0.02,0.13c-0.01,0.11-0.01,0.23-0.01,0.35c-0.01,0.16-0.01,0.32,0,0.48    c0,0.01,0,0.01,0,0.02h-19.39c0.01-0.11,0.02-0.21,0.02-0.32c0-0.06,0-0.12-0.01-0.18c0-0.17-0.02-0.33-0.04-0.5    c-0.34-3.54-3.32-6.32-6.95-6.32H71.09c-7.49,0-13.59-6.1-13.59-13.59V196.08l96.63,64.49c0.02,0.06,0.04,0.11,0.07,0.16    c0.51,1.19,1.05,2.39,1.62,3.6c0.11,0.24,0.23,0.49,0.35,0.73c0.57,1.2,1.16,2.39,1.78,3.6c0.11,0.21,0.22,0.42,0.33,0.64    c0.65,1.25,1.32,2.5,2.03,3.76c0.01,0.01,0.01,0.03,0.02,0.04c0.72,1.28,1.46,2.55,2.23,3.83c0.12,0.21,0.25,0.42,0.37,0.63    c0.75,1.23,1.52,2.46,2.31,3.69c0.15,0.23,0.3,0.47,0.45,0.7c0.81,1.26,1.65,2.52,2.51,3.78c0.09,0.13,0.19,0.27,0.28,0.4    c0.87,1.25,1.75,2.5,2.66,3.76c0.08,0.11,0.16,0.23,0.25,0.35c0.93,1.27,1.89,2.56,2.87,3.84    C174.36,294.2,174.44,294.32,174.54,294.44z"/>
<path class="st2" d="M367.33,385.5H144.67l39.6-79.23c0.09,0.1,0.19,0.21,0.28,0.31c0.9,1.03,1.82,2.06,2.76,3.09    c0.17,0.19,0.35,0.38,0.52,0.57c0.83,0.91,1.68,1.83,2.53,2.74c0.22,0.23,0.43,0.46,0.65,0.69c0.98,1.04,1.97,2.08,2.98,3.12    c0.22,0.23,0.45,0.46,0.67,0.69c0.9,0.92,1.8,1.84,2.72,2.76l0.58,0.58c1.06,1.06,2.13,2.11,3.22,3.16    c0.25,0.25,0.51,0.5,0.76,0.74c1.02,0.98,2.04,1.97,3.09,2.95c0.12,0.11,0.24,0.23,0.36,0.35c1.14,1.07,2.31,2.14,3.48,3.22    c0.27,0.25,0.54,0.5,0.81,0.75c1.2,1.09,2.4,2.17,3.62,3.27c0.01,0,0.01,0,0.01,0c0.18,0.16,0.37,0.32,0.57,0.48    c0.59,0.51,1.2,0.99,1.8,1.46l0.39,0.31c0.89,0.71,1.82,1.45,2.87,2.2c0.79,0.55,1.6,1.08,2.47,1.64l0.22,0.13    c0.87,0.56,1.78,1.12,2.73,1.66c0.83,0.47,1.68,0.92,2.44,1.31c1.15,0.59,2.28,1.12,3.35,1.59c0.77,0.34,1.53,0.66,2.4,1.01    c1.09,0.42,2.26,0.84,3.59,1.27l0.45,0.14c0.6,0.2,1.2,0.39,1.89,0.59c1.33,0.37,2.63,0.67,3.84,0.94    c0.04,0.01,0.07,0.01,0.11,0.02c0.19,0.04,0.39,0.09,0.59,0.13c0.5,0.11,1,0.22,1.45,0.3c1.34,0.25,2.76,0.44,4.39,0.62l0.5,0.06    c0.39,0.05,0.78,0.1,1.17,0.14c0.04,0.01,0.07,0.01,0.11,0.01c0.85,0.07,1.66,0.12,2.45,0.16c0.15,0,0.31,0.01,0.46,0.02    c0.74,0.03,1.46,0.04,2.16,0.05h1.04c0.04,0,0.08-0.01,0.12-0.01c1.96-0.03,3.97-0.16,6.18-0.4c0.41-0.05,0.81-0.11,1.22-0.18    c0.15-0.02,0.31-0.05,0.47-0.07c1.2-0.16,2.78-0.4,4.46-0.75c0.56-0.12,1.1-0.26,1.65-0.4l0.39-0.1c1.07-0.26,2.48-0.61,3.95-1.08    c0.61-0.19,1.21-0.4,1.81-0.62l0.47-0.17c1.3-0.46,2.45-0.91,3.48-1.34c0.82-0.34,1.63-0.72,2.44-1.1    c1.06-0.5,2.12-1.05,3.23-1.66c0.81-0.44,1.61-0.89,2.45-1.39c0.89-0.54,1.8-1.13,2.97-1.94l0.51-0.35    c0.63-0.43,1.26-0.86,1.87-1.33c0.28-0.21,0.54-0.42,0.8-0.63c0.61-0.48,1.2-0.96,1.75-1.43l0.67-0.56    c0.55-0.46,1.09-0.91,1.6-1.38c0.09-0.08,0.22-0.19,0.36-0.31c0.1-0.08,0.2-0.17,0.31-0.28c1.54-1.45,3.04-2.89,4.52-4.33    c0.43-0.41,0.84-0.82,1.26-1.23c1.08-1.06,2.14-2.12,3.2-3.18c0.43-0.44,0.87-0.88,1.31-1.32c1.21-1.23,2.4-2.46,3.58-3.69    c0.19-0.2,0.39-0.4,0.58-0.6c1.35-1.42,2.66-2.83,3.95-4.23c0.37-0.4,0.73-0.8,1.09-1.2c0.94-1.03,1.87-2.07,2.78-3.09    c0.4-0.46,0.81-0.92,1.21-1.38c0.94-1.08,1.87-2.16,2.78-3.23c0.28-0.33,0.56-0.66,0.84-0.99c0.07-0.09,0.15-0.17,0.22-0.26    L367.33,385.5z"/>
<path class="st3" d="M341.16,194.94c-1.86-2.69-3.99-5.22-6.39-7.55c-0.59-0.58-1.2-1.14-1.81-1.68    c-0.36-0.32-0.72-0.61-1.09-0.92c-0.26-0.21-0.51-0.44-0.78-0.65c-0.53-0.43-1.08-0.84-1.62-1.24c-0.1-0.08-0.2-0.15-0.3-0.23    c-5.85-4.24-12.5-7.13-19.56-8.51c-0.03-0.01-0.05-0.01-0.08-0.02c-0.7-0.13-1.41-0.25-2.12-0.36c-0.1-0.01-0.21-0.03-0.32-0.05    c-0.63-0.09-1.26-0.16-1.9-0.23c-0.19-0.02-0.38-0.04-0.58-0.06c-0.55-0.05-1.1-0.08-1.65-0.12c-0.29-0.02-0.58-0.04-0.87-0.05    c-0.46-0.02-0.93-0.02-1.4-0.03c-0.51-0.01-1.02-0.02-1.53-0.02c-15.41,0.22-29.65,7.4-39.06,19.71c-1.3,1.7-3.32,2.71-5.46,2.74    c-0.27,0.01-0.53,0-0.79-0.03c-1.83-0.18-3.57-1.1-4.75-2.56c-9.7-11.97-23.99-18.73-39.33-18.59c-0.09,0-0.18-0.01-0.27-0.01    c-9.2,0.13-17.98,2.72-25.6,7.44c-3.46,2.14-6.68,4.73-9.6,7.72c-9.32,9.59-14.35,22.24-14.16,35.62    c0.13,8.93,2.18,18.36,6.11,28.03c2.06,5.05,4.64,10.21,7.72,15.45c0.61,1.05,1.26,2.1,1.91,3.15c0.41,0.66,0.83,1.32,1.25,1.98    c2.29,3.55,4.79,7.13,7.51,10.74c1.16,1.53,2.36,3.07,3.6,4.61c0,0.01,0,0.01,0.01,0.01c1.83,2.29,3.78,4.61,5.8,6.93    c8.09,9.31,17.62,18.89,28.5,28.58c0.19,0.15,0.36,0.29,0.53,0.44c0.41,0.36,0.83,0.68,1.25,1.01l0.43,0.34    c0.82,0.66,1.56,1.25,2.27,1.75c0.6,0.43,1.25,0.84,1.9,1.26l0.16,0.1c0.76,0.48,1.47,0.93,2.15,1.31c0.66,0.37,1.28,0.7,1.9,1.01    c0.95,0.49,1.8,0.9,2.6,1.24c0.66,0.29,1.3,0.57,1.95,0.83c0.76,0.29,1.69,0.62,2.76,0.97l0.49,0.16c0.45,0.14,0.9,0.29,1.35,0.42    c0.93,0.26,2,0.5,3.02,0.73c0.26,0.05,0.51,0.11,0.77,0.17c0.29,0.06,0.57,0.13,0.86,0.18c1.03,0.19,2.12,0.34,3.48,0.48    c0.32,0.04,0.55,0.07,0.79,0.1c0.21,0.03,0.42,0.06,0.63,0.08c1.74,0.14,3.31,0.2,4.77,0.18h0.11c1.44-0.03,3.03-0.13,4.77-0.32    c0.16-0.02,0.35-0.06,0.54-0.09c0.27-0.04,0.54-0.08,0.81-0.12c1.04-0.14,2.26-0.32,3.45-0.57c0.3-0.07,0.67-0.16,1.04-0.26    l0.55-0.14c0.92-0.22,2.03-0.5,3.07-0.83c0.44-0.14,0.89-0.3,1.34-0.46l0.49-0.18c1.02-0.36,1.93-0.71,2.75-1.06    c0.66-0.28,1.27-0.56,1.88-0.85c0.79-0.37,1.61-0.79,2.49-1.27c0.65-0.36,1.31-0.73,1.95-1.12c0.62-0.37,1.33-0.83,2.24-1.46    l0.55-0.38c0.43-0.29,0.87-0.59,1.28-0.91c0.04-0.02,0.08-0.05,0.11-0.08c0.6-0.44,1.24-0.98,1.93-1.56l0.7-0.59    c0.4-0.34,0.8-0.67,1.18-1.02c0.19-0.18,0.37-0.33,0.55-0.48c12.93-12.19,23.91-24.17,32.64-35.62    c7.61-9.96,13.66-19.7,18.05-29.02c0.63-1.33,1.22-2.66,1.78-3.97c0,0,0,0,0-0.01c0.3-0.71,0.59-1.41,0.88-2.12    c3.66-9.15,5.71-18.01,6.12-26.43c0.03-0.7,0.06-1.38,0.07-2.07c0.01-0.64,0.01-1.29,0-1.93    C349.79,212.55,346.73,203.01,341.16,194.94z M210.27,208.48h-0.36c-4.23,0.06-8.24,1.79-11.23,4.86    c-2.99,3.08-4.6,7.14-4.54,11.43c0.05,3.87-3.04,7.05-6.9,7.1h-0.1c-3.82,0-6.95-3.07-7-6.9c-0.11-8.03,2.91-15.63,8.51-21.39    c5.59-5.75,13.1-8.99,21.13-9.1h0.45c3.85,0,6.98,3.11,7,6.96C217.25,205.31,214.13,208.46,210.27,208.48z"/>
<path class="st8" d="M454.5,196.08v175.83c0,7.49-6.1,13.59-13.59,13.59h-57.92l-23.06-46.11l-23.14-46.28    c0.15-0.2,0.28-0.4,0.43-0.6c0.38-0.52,0.75-1.04,1.12-1.56c0.65-0.92,1.3-1.84,1.93-2.75c0.38-0.55,0.75-1.09,1.11-1.64    c0.61-0.9,1.21-1.8,1.79-2.71c0.35-0.52,0.69-1.05,1.03-1.58c0.61-0.96,1.2-1.92,1.78-2.88c0.28-0.45,0.56-0.91,0.83-1.36    c0.81-1.35,1.59-2.69,2.33-4.03c0.03-0.05,0.07-0.11,0.09-0.16c0.78-1.39,1.52-2.77,2.23-4.15c0.23-0.44,0.43-0.87,0.65-1.31    c0.48-0.94,0.95-1.89,1.4-2.83c0.24-0.5,0.47-1.01,0.7-1.52c0.23-0.49,0.47-0.98,0.69-1.47L454.5,196.08z"/>
<path class="st6" d="M187.14,231.87c0.03,0,0.07,0,0.1,0c3.87-0.05,6.96-3.23,6.9-7.1c-0.06-4.29,1.55-8.35,4.55-11.43    c2.99-3.08,7-4.8,11.23-4.86l0.35,0c3.87-0.02,6.98-3.17,6.96-7.04c-0.02-3.85-3.15-6.96-7-6.96c-0.01,0-0.03,0-0.04,0l-0.41,0    c-8.03,0.11-15.54,3.35-21.13,9.1c-5.6,5.76-8.62,13.36-8.51,21.39C180.19,228.8,183.32,231.87,187.14,231.87z"/>
<path class="st6" d="M440.91,112.5h-19.93c-3.7,0-6.72,2.86-6.98,6.5c-0.01,0.17-0.02,0.33-0.02,0.5c0,0.17,0.01,0.33,0.03,0.5    c0.25,3.63,3.27,6.5,6.97,6.5h19.93c7.49,0,13.59,6.09,13.59,13.58v39.17l-46.05,30.73l-46.41,30.98c0.09-0.44,0.17-0.87,0.26-1.3    c0.06-0.33,0.13-0.66,0.19-0.99c0.08-0.43,0.15-0.86,0.23-1.29c0.06-0.36,0.13-0.72,0.18-1.08c0.07-0.41,0.12-0.81,0.18-1.22    c0.05-0.38,0.11-0.76,0.16-1.13c0.05-0.4,0.1-0.79,0.14-1.19c0.05-0.38,0.1-0.77,0.14-1.16s0.07-0.78,0.1-1.18    c0.03-0.38,0.07-0.76,0.1-1.14c0.03-0.43,0.05-0.85,0.08-1.27c0.02-0.35,0.04-0.7,0.06-1.04c0.02-0.47,0.03-0.94,0.04-1.41    c0.01-0.29,0.02-0.59,0.03-0.89c0.01-0.76,0.01-1.53,0-2.28c-0.01-0.43-0.04-0.85-0.05-1.28c-0.55-16.63-7.38-32.13-19.35-43.76    c-12.27-11.93-28.48-18.37-45.57-18.12c-16.96,0.23-32.81,7.05-44.57,18.97c-12.09-11.58-28.08-17.95-45.09-17.71    c-17.11,0.23-33.11,7.12-45.03,19.4c-1.5,1.53-2.9,3.12-4.22,4.77c-9.22,11.56-14.12,25.82-13.91,40.79    c0.02,1.25,0.07,2.5,0.15,3.76c0.03,0.41,0.07,0.82,0.1,1.23c0.07,0.86,0.14,1.72,0.24,2.58c0.05,0.48,0.12,0.96,0.18,1.45    c0.1,0.8,0.21,1.6,0.34,2.41c0.08,0.5,0.16,1,0.25,1.5c0.06,0.33,0.1,0.65,0.16,0.98L57.5,179.25v-39.17    c0-7.49,6.1-13.58,13.59-13.58h302.36c3.69,0,6.72-2.87,6.97-6.5c0.02-0.17,0.03-0.33,0.03-0.5c0-0.17-0.01-0.33-0.03-0.5    c-0.25-3.64-3.28-6.5-6.97-6.5H71.09c-15.21,0-27.59,12.37-27.59,27.58v231.83c0,15.21,12.38,27.59,27.59,27.59h28.89    c3.75,0,6.82-2.96,6.98-6.68c0.01-0.11,0.02-0.21,0.02-0.32c0-0.06,0-0.12-0.01-0.18c0-0.17-0.02-0.33-0.04-0.5    c-0.34-3.54-3.32-6.32-6.95-6.32H71.09c-7.49,0-13.59-6.1-13.59-13.59V196.08l96.63,64.49c0.02,0.06,0.04,0.11,0.07,0.16    c0.51,1.19,1.05,2.39,1.62,3.6c0.11,0.24,0.23,0.49,0.35,0.73c0.57,1.2,1.16,2.39,1.78,3.6c0.11,0.21,0.22,0.42,0.33,0.64    c0.65,1.25,1.32,2.5,2.03,3.76c0.01,0.01,0.01,0.03,0.02,0.04c0.72,1.28,1.46,2.55,2.23,3.83c0.12,0.21,0.25,0.42,0.37,0.63    c0.75,1.23,1.52,2.46,2.31,3.69c0.15,0.23,0.3,0.47,0.45,0.7c0.81,1.26,1.65,2.52,2.51,3.78c0.09,0.13,0.19,0.27,0.28,0.4    c0.87,1.25,1.75,2.5,2.66,3.76c0.08,0.11,0.16,0.23,0.25,0.35c0.93,1.27,1.89,2.56,2.87,3.84c0.1,0.12,0.18,0.24,0.28,0.36    l-12.33,24.66l-35.13,70.28c-0.01,0.01-0.02,0.03-0.03,0.05c-0.11,0.23-0.21,0.47-0.29,0.7c-0.03,0.08-0.05,0.16-0.08,0.23    c-0.06,0.2-0.11,0.39-0.16,0.59c-0.01,0.07-0.03,0.14-0.05,0.22c-0.04,0.21-0.07,0.44-0.09,0.65c0,0.01,0,0.01,0,0.02    c-0.01,0.05-0.01,0.09-0.02,0.13c-0.01,0.11-0.01,0.23-0.01,0.35c-0.01,0.16-0.01,0.32,0,0.48c0,0.01,0,0.01,0,0.02    c0,0.03,0,0.06,0.01,0.08c0.01,0.23,0.03,0.46,0.07,0.69c0.01,0.08,0.03,0.16,0.04,0.23c0.04,0.2,0.09,0.4,0.14,0.59    c0.02,0.07,0.04,0.14,0.06,0.21c0.08,0.26,0.18,0.51,0.29,0.76c0.01,0.02,0.02,0.04,0.03,0.07c0.11,0.22,0.22,0.44,0.35,0.65    c0.02,0.03,0.03,0.06,0.05,0.09c0.02,0.03,0.04,0.06,0.06,0.09c0.12,0.19,0.25,0.37,0.39,0.55c0.04,0.04,0.07,0.09,0.1,0.13    c0.35,0.42,0.74,0.8,1.19,1.13c0.06,0.05,0.12,0.09,0.19,0.13c0.15,0.11,0.31,0.22,0.48,0.32c0.08,0.04,0.16,0.09,0.25,0.13    c0.05,0.03,0.1,0.07,0.16,0.1c0.09,0.04,0.19,0.08,0.29,0.12c0.11,0.05,0.22,0.1,0.34,0.15c0.17,0.06,0.34,0.11,0.51,0.16    c0.09,0.03,0.19,0.07,0.29,0.09c0.21,0.05,0.43,0.09,0.64,0.13c0.06,0.01,0.13,0.02,0.19,0.03c0.29,0.03,0.58,0.06,0.86,0.06    c0.01,0,0.02-0.01,0.03-0.01h307.55c15.21,0,27.59-12.38,27.59-27.59V140.08C468.5,124.87,456.12,112.5,440.91,112.5z     M173.97,268.74c-3.08-5.24-5.66-10.4-7.72-15.45c-3.93-9.67-5.98-19.1-6.11-28.03c-0.19-13.38,4.84-26.03,14.16-35.62    c2.92-2.99,6.14-5.58,9.6-7.72c7.62-4.72,16.4-7.31,25.6-7.44c0.09,0,0.18,0.01,0.27,0.01c15.34-0.14,29.63,6.62,39.33,18.59    c1.18,1.46,2.92,2.38,4.75,2.56c0.26,0.03,0.52,0.04,0.79,0.03c2.14-0.03,4.16-1.04,5.46-2.74c9.41-12.31,23.65-19.49,39.06-19.71    c0.51,0,1.02,0.01,1.53,0.02c0.47,0.01,0.94,0.01,1.4,0.03c0.29,0.01,0.58,0.03,0.87,0.05c0.55,0.04,1.1,0.07,1.65,0.12    c0.2,0.02,0.39,0.04,0.58,0.06c0.64,0.07,1.27,0.14,1.9,0.23c0.11,0.02,0.22,0.04,0.32,0.05c0.71,0.11,1.42,0.23,2.12,0.36    c0.03,0.01,0.05,0.01,0.08,0.02c7.06,1.38,13.71,4.27,19.56,8.51c0.1,0.08,0.2,0.15,0.3,0.23c0.54,0.4,1.09,0.81,1.62,1.24    c0.27,0.21,0.52,0.44,0.78,0.65c0.37,0.31,0.73,0.6,1.09,0.92c0.61,0.54,1.22,1.1,1.81,1.68c2.4,2.33,4.53,4.86,6.39,7.55    c5.57,8.07,8.63,17.61,8.77,27.64c0.01,0.64,0.01,1.29,0,1.93c-0.01,0.69-0.04,1.37-0.07,2.07c-0.41,8.42-2.46,17.28-6.12,26.43    c-0.29,0.71-0.58,1.41-0.88,2.12c0,0.01,0,0.01,0,0.01c-0.56,1.31-1.15,2.64-1.78,3.97c-4.39,9.32-10.44,19.06-18.05,29.02    c-8.73,11.45-19.71,23.43-32.64,35.62c-0.18,0.15-0.36,0.3-0.55,0.48c-0.38,0.35-0.78,0.68-1.18,1.02l-0.7,0.59    c-0.69,0.58-1.33,1.12-1.93,1.56c-0.03,0.03-0.07,0.06-0.11,0.08c-0.41,0.32-0.85,0.62-1.28,0.91l-0.55,0.38    c-0.91,0.63-1.62,1.09-2.24,1.46c-0.64,0.39-1.3,0.76-1.95,1.12c-0.88,0.48-1.7,0.9-2.49,1.27c-0.61,0.29-1.22,0.57-1.88,0.85    c-0.82,0.35-1.73,0.7-2.75,1.06l-0.49,0.18c-0.45,0.16-0.9,0.32-1.34,0.46c-1.04,0.33-2.15,0.61-3.07,0.83l-0.55,0.14    c-0.37,0.1-0.74,0.19-1.04,0.26c-1.19,0.25-2.41,0.43-3.45,0.57c-0.27,0.04-0.54,0.08-0.81,0.12c-0.19,0.03-0.38,0.07-0.54,0.09    c-1.74,0.19-3.33,0.29-4.77,0.32h-0.11c-1.46,0.02-3.03-0.04-4.77-0.18c-0.21-0.02-0.42-0.05-0.63-0.08    c-0.24-0.03-0.47-0.06-0.79-0.1c-1.36-0.14-2.45-0.29-3.48-0.48c-0.29-0.05-0.57-0.12-0.86-0.18c-0.26-0.06-0.51-0.12-0.77-0.17    c-1.02-0.23-2.09-0.47-3.02-0.73c-0.45-0.13-0.9-0.28-1.35-0.42l-0.49-0.16c-1.07-0.35-2-0.68-2.76-0.97    c-0.65-0.26-1.29-0.54-1.95-0.83c-0.8-0.34-1.65-0.75-2.6-1.24c-0.62-0.31-1.24-0.64-1.9-1.01c-0.68-0.38-1.39-0.83-2.15-1.31    l-0.16-0.1c-0.65-0.42-1.3-0.83-1.9-1.26c-0.71-0.5-1.45-1.09-2.27-1.75l-0.43-0.34c-0.42-0.33-0.84-0.65-1.25-1.01    c-0.17-0.15-0.34-0.29-0.53-0.44c-10.88-9.69-20.41-19.27-28.5-28.58c-2.02-2.32-3.97-4.64-5.8-6.93c-0.01,0-0.01,0-0.01-0.01    c-1.24-1.54-2.44-3.08-3.6-4.61c-2.72-3.61-5.22-7.19-7.51-10.74c-0.42-0.66-0.84-1.32-1.25-1.98    C175.23,270.84,174.58,269.79,173.97,268.74z M144.67,385.5l39.6-79.23c0.09,0.1,0.19,0.21,0.28,0.31    c0.9,1.03,1.82,2.06,2.76,3.09c0.17,0.19,0.35,0.38,0.52,0.57c0.83,0.91,1.68,1.83,2.53,2.74c0.22,0.23,0.43,0.46,0.65,0.69    c0.98,1.04,1.97,2.08,2.98,3.12c0.22,0.23,0.45,0.46,0.67,0.69c0.9,0.92,1.8,1.84,2.72,2.76l0.58,0.58    c1.06,1.06,2.13,2.11,3.22,3.16c0.25,0.25,0.51,0.5,0.76,0.74c1.02,0.98,2.04,1.97,3.09,2.95c0.12,0.11,0.24,0.23,0.36,0.35    c1.14,1.07,2.31,2.14,3.48,3.22c0.27,0.25,0.54,0.5,0.81,0.75c1.2,1.09,2.4,2.17,3.62,3.27c0.01,0,0.01,0,0.01,0    c0.18,0.16,0.37,0.32,0.57,0.48c0.59,0.51,1.2,0.99,1.8,1.46l0.39,0.31c0.89,0.71,1.82,1.45,2.87,2.2    c0.79,0.55,1.6,1.08,2.47,1.64l0.22,0.13c0.87,0.56,1.78,1.12,2.73,1.66c0.83,0.47,1.68,0.92,2.44,1.31    c1.15,0.59,2.28,1.12,3.35,1.59c0.77,0.34,1.53,0.66,2.4,1.01c1.09,0.42,2.26,0.84,3.59,1.27l0.45,0.14    c0.6,0.2,1.2,0.39,1.89,0.59c1.33,0.37,2.63,0.67,3.84,0.94c0.04,0.01,0.07,0.01,0.11,0.02c0.19,0.04,0.39,0.09,0.59,0.13    c0.5,0.11,1,0.22,1.45,0.3c1.34,0.25,2.76,0.44,4.39,0.62l0.5,0.06c0.39,0.05,0.78,0.1,1.17,0.14c0.04,0.01,0.07,0.01,0.11,0.01    c0.85,0.07,1.66,0.12,2.45,0.16c0.15,0,0.31,0.01,0.46,0.02c0.74,0.03,1.46,0.04,2.16,0.05h1.04c0.04,0,0.08-0.01,0.12-0.01    c1.96-0.03,3.97-0.16,6.18-0.4c0.41-0.05,0.81-0.11,1.22-0.18c0.15-0.02,0.31-0.05,0.47-0.07c1.2-0.16,2.78-0.4,4.46-0.75    c0.56-0.12,1.1-0.26,1.65-0.4l0.39-0.1c1.07-0.26,2.48-0.61,3.95-1.08c0.61-0.19,1.21-0.4,1.81-0.62l0.47-0.17    c1.3-0.46,2.45-0.91,3.48-1.34c0.82-0.34,1.63-0.72,2.44-1.1c1.06-0.5,2.12-1.05,3.23-1.66c0.81-0.44,1.61-0.89,2.45-1.39    c0.89-0.54,1.8-1.13,2.97-1.94l0.51-0.35c0.63-0.43,1.26-0.86,1.87-1.33c0.28-0.21,0.54-0.42,0.8-0.63    c0.61-0.48,1.2-0.96,1.75-1.43l0.67-0.56c0.55-0.46,1.09-0.91,1.6-1.38c0.09-0.08,0.22-0.19,0.36-0.31    c0.1-0.08,0.2-0.17,0.31-0.28c1.54-1.45,3.04-2.89,4.52-4.33c0.43-0.41,0.84-0.82,1.26-1.23c1.08-1.06,2.14-2.12,3.2-3.18    c0.43-0.44,0.87-0.88,1.31-1.32c1.21-1.23,2.4-2.46,3.58-3.69c0.19-0.2,0.39-0.4,0.58-0.6c1.35-1.42,2.66-2.83,3.95-4.23    c0.37-0.4,0.73-0.8,1.09-1.2c0.94-1.03,1.87-2.07,2.78-3.09c0.4-0.46,0.81-0.92,1.21-1.38c0.94-1.08,1.87-2.16,2.78-3.23    c0.28-0.33,0.56-0.66,0.84-0.99c0.07-0.09,0.15-0.17,0.22-0.26l40.1,80.21H144.67z M454.5,371.91c0,7.49-6.1,13.59-13.59,13.59    h-57.92l-23.06-46.11l-23.14-46.28c0.15-0.2,0.28-0.4,0.43-0.6c0.38-0.52,0.75-1.04,1.12-1.56c0.65-0.92,1.3-1.84,1.93-2.75    c0.38-0.55,0.75-1.09,1.11-1.64c0.61-0.9,1.21-1.8,1.79-2.71c0.35-0.52,0.69-1.05,1.03-1.58c0.61-0.96,1.2-1.92,1.78-2.88    c0.28-0.45,0.56-0.91,0.83-1.36c0.81-1.35,1.59-2.69,2.33-4.03c0.03-0.05,0.07-0.11,0.09-0.16c0.78-1.39,1.52-2.77,2.23-4.15    c0.23-0.44,0.43-0.87,0.65-1.31c0.48-0.94,0.95-1.89,1.4-2.83c0.24-0.5,0.47-1.01,0.7-1.52c0.23-0.49,0.47-0.98,0.69-1.47    l99.6-66.48V371.91z"/>
<path class="st6" d="M406.13,119.5c0,0.17-0.01,0.33-0.03,0.5c-0.02,0.29-0.05,0.58-0.11,0.86c-0.09,0.45-0.22,0.89-0.4,1.31    c-0.17,0.42-0.39,0.83-0.64,1.21c-0.26,0.38-0.55,0.74-0.87,1.07c-0.33,0.32-0.68,0.61-1.07,0.86c-0.38,0.26-0.78,0.47-1.2,0.65    c-0.43,0.17-0.87,0.31-1.31,0.4c-0.46,0.09-0.92,0.14-1.37,0.14c-0.46,0-0.92-0.05-1.37-0.14c-0.45-0.09-0.89-0.23-1.31-0.4    c-0.42-0.18-0.83-0.39-1.21-0.65c-0.38-0.25-0.74-0.54-1.06-0.86c-0.32-0.33-0.62-0.69-0.87-1.07s-0.47-0.79-0.65-1.21    c-0.17-0.42-0.3-0.86-0.39-1.31c-0.06-0.28-0.1-0.57-0.12-0.86c-0.01-0.17-0.02-0.33-0.02-0.5c0-0.17,0.01-0.33,0.02-0.5    c0.02-0.29,0.06-0.58,0.12-0.87c0.09-0.45,0.22-0.89,0.39-1.31c0.18-0.42,0.4-0.83,0.65-1.21s0.55-0.74,0.87-1.07    c0.32-0.32,0.68-0.61,1.06-0.87c0.38-0.25,0.79-0.46,1.21-0.64c0.42-0.17,0.86-0.31,1.31-0.4c0.9-0.18,1.83-0.18,2.74,0    c0.44,0.09,0.88,0.23,1.31,0.4c0.42,0.18,0.82,0.39,1.2,0.64c0.39,0.26,0.74,0.55,1.07,0.87c0.32,0.33,0.61,0.69,0.87,1.07    c0.25,0.38,0.47,0.79,0.64,1.21c0.18,0.42,0.31,0.86,0.4,1.31c0.06,0.29,0.09,0.58,0.11,0.87    C406.12,119.17,406.13,119.33,406.13,119.5z"/>
</g>
</g>
</svg>