<?xml version="1.0" ?>
<!-- Uploaded to: SVG Repo, www.svgrepo.com, Generator: SVG Repo Mixer Tools -->
<svg width="800px" height="800px" viewBox="0 0 512 512" version="1.1" xml:space="preserve" xmlns="http://www.w3.org/2000/svg" xmlns:xlink="http://www.w3.org/1999/xlink">
<style type="text/css">
	.st0{display:none;}
	.st1{fill:#FFE2D2;}
	.st2{fill:#FFDE83;}
	.st3{fill:#F57070;}
	.st4{fill:#DBDBEF;}
	.st5{fill:#BCE2FF;}
	.st6{fill:#48446D;}
	.st7{fill:#6E78FF;}
	.st8{fill:#FFBE83;}
	.st9{fill:#F5949E;}
	.st10{fill:#D0FF67;}
	.st11{fill:#C69C6D;}
	.st12{fill:#C5BDD3;}
	.st13{fill:#FFE2B8;}
	.st14{fill:#F54670;}
</style>
<g class="st0" id="Layer_1"/>
<g id="Layer_2">
<g>
<path class="st2" d="M126.84,113.1v83.96c-0.34,0.04-0.67,0.1-1.01,0.14c-0.63,0.09-1.25,0.17-1.88,0.27    c-0.42,0.07-0.85,0.16-1.28,0.24c-0.59,0.11-1.18,0.22-1.77,0.35c-0.44,0.09-0.87,0.2-1.3,0.31c-0.58,0.14-1.15,0.28-1.72,0.44    c-0.43,0.12-0.86,0.25-1.3,0.38c-0.55,0.17-1.11,0.35-1.66,0.53c-0.43,0.15-0.86,0.3-1.29,0.45c-0.55,0.2-1.09,0.41-1.62,0.62    c-0.43,0.17-0.85,0.34-1.27,0.52c-0.53,0.22-1.06,0.46-1.59,0.7c-0.41,0.19-0.82,0.38-1.23,0.58c-0.53,0.26-1.05,0.53-1.56,0.8    c-0.4,0.21-0.8,0.42-1.19,0.64c-0.52,0.28-1.03,0.59-1.54,0.89c-0.27,0.16-0.55,0.31-0.81,0.48v-62.08    C102.82,128.62,113.1,116.28,126.84,113.1z"/>
<path class="st3" d="M335.96,271.63c-5.01-2.03-10.6-1.64-15.32,1.07c-1.87,1.06-4.11,1.22-6.1,0.41c-1.99-0.8-3.5-2.47-4.1-4.53    c-1.52-5.23-5.27-9.39-10.29-11.41c-8.99-3.63-19.25,0.73-22.88,9.72c-4.25,10.53-1.48,26.64,8.03,46.6    c0.06,0.1,0.11,0.21,0.16,0.32c0.07,0.12,0.14,0.25,0.21,0.37l0.17,0.31c0.16,0.3,0.32,0.59,0.49,0.87    c0.12,0.19,0.25,0.38,0.39,0.58c0,0,0.05,0.08,0.06,0.09c0.18,0.26,0.36,0.52,0.55,0.77c0.15,0.2,0.31,0.39,0.48,0.58    c0.22,0.27,0.44,0.52,0.67,0.76c0.16,0.17,0.33,0.34,0.5,0.51c0.25,0.24,0.51,0.48,0.78,0.7l0.12,0.12    c0.13,0.1,0.25,0.21,0.37,0.31c0.3,0.23,0.59,0.44,0.9,0.66l0.49,0.34c0.34,0.22,0.69,0.42,1.05,0.62    c0.14,0.08,0.27,0.16,0.4,0.23l0.09,0.05c0.47,0.25,0.97,0.48,1.47,0.68c0.01,0.01,0.02,0.01,0.03,0.02    c0.49,0.19,1,0.37,1.58,0.54l0.04,0.01c0.14,0.03,0.29,0.07,0.43,0.1c0.4,0.11,0.79,0.21,1.19,0.29l0.6,0.09    c0.36,0.06,0.72,0.11,1.09,0.15c0.17,0.01,0.34,0.02,0.51,0.03l0.16,0.01c0.34,0.02,0.68,0.03,1.03,0.03    c0.24,0,0.48-0.01,0.73-0.02c0.32-0.02,0.65-0.04,0.97-0.07c0.27-0.03,0.52-0.06,0.78-0.1c0.31-0.04,0.62-0.1,0.93-0.17l0.12-0.02    c0.22-0.05,0.45-0.09,0.68-0.15c0.3-0.08,0.6-0.17,0.89-0.27l0.38-0.11c0.14-0.05,0.29-0.09,0.42-0.14    c0.12-0.04,0.23-0.08,0.34-0.11c20.7-7.76,33.88-17.43,38.13-27.96C349.31,285.52,344.95,275.26,335.96,271.63z"/>
<path class="st1" d="M126.84,211.19v99.59c-0.05-0.02-0.1-0.03-0.16-0.05c-6.37-2.03-12.4-6.09-16.34-9.15    c-0.01,0-0.01-0.01-0.02-0.02c0.11-0.12,0.22-0.24,0.33-0.37c0.1-0.13,0.2-0.27,0.29-0.41c0.03-0.03,0.06-0.06,0.08-0.1    c2.14-3.22,1.27-7.57-1.95-9.71c-12.26-8.15-19.58-21.79-19.58-36.48c0-10.98,4.08-21.48,11.49-29.57    c0.48-0.52,0.97-1.02,1.47-1.52c0.16-0.15,0.32-0.3,0.48-0.46c0.35-0.34,0.71-0.67,1.07-0.99c0.19-0.17,0.38-0.34,0.57-0.51    c0.35-0.3,0.71-0.6,1.07-0.89c0.19-0.16,0.38-0.31,0.57-0.47c0.41-0.31,0.82-0.62,1.24-0.93c0.15-0.11,0.29-0.22,0.44-0.33    c0.57-0.4,1.15-0.79,1.74-1.17c0.11-0.07,0.22-0.13,0.33-0.2c0.48-0.31,0.96-0.6,1.45-0.88c0.21-0.12,0.41-0.23,0.62-0.34    c0.41-0.23,0.82-0.45,1.24-0.67c0.22-0.11,0.44-0.23,0.67-0.34c0.42-0.2,0.85-0.4,1.27-0.6c0.22-0.09,0.43-0.19,0.64-0.28    c0.53-0.23,1.06-0.45,1.59-0.66c0.11-0.04,0.23-0.09,0.34-0.13c0.65-0.25,1.31-0.48,1.97-0.69c0.18-0.06,0.37-0.12,0.55-0.18    c0.48-0.14,0.97-0.29,1.45-0.42c0.24-0.07,0.49-0.13,0.73-0.19c0.44-0.11,0.88-0.22,1.33-0.32c0.25-0.06,0.5-0.11,0.75-0.16    c0.47-0.1,0.94-0.18,1.41-0.26c0.22-0.04,0.44-0.08,0.67-0.12C126.7,211.2,126.77,211.2,126.84,211.19z"/>
<path class="st3" d="M204.6,322.57c0.19,0.07,0.33,0.11,0.47,0.15l0.34,0.1c0.34,0.11,0.63,0.21,0.93,0.28    c0.23,0.06,0.45,0.1,0.68,0.15l0.11,0.02c0.32,0.07,0.63,0.13,0.94,0.17c0.25,0.04,0.51,0.07,0.77,0.1    c0.33,0.03,0.66,0.05,0.99,0.07c0.25,0.01,0.53,0.02,0.76,0.02c0.34,0,0.67-0.01,1-0.03l0.15-0.01c0.17-0.01,0.33-0.02,0.5-0.03    c0.38-0.04,0.74-0.09,1.1-0.15l0.6-0.09c0.39-0.08,0.79-0.18,1.19-0.28c0.14-0.04,0.29-0.08,0.43-0.11l0.11-0.03    c0.5-0.15,1.01-0.33,1.5-0.52c0.01,0,0.03-0.01,0.04-0.02c0.49-0.2,1-0.43,1.54-0.72h0.01c0.13-0.08,0.27-0.16,0.4-0.23    c0.36-0.21,0.72-0.41,1.06-0.63l0.49-0.34c0.3-0.22,0.6-0.43,0.89-0.66c0.13-0.11,0.26-0.22,0.38-0.33l0.13-0.1    c0.26-0.23,0.52-0.46,0.77-0.7c0.17-0.17,0.33-0.34,0.5-0.51c0.23-0.24,0.45-0.49,0.66-0.75c0.17-0.19,0.33-0.39,0.49-0.59    c0.19-0.25,0.37-0.52,0.56-0.78c0.18-0.27,0.32-0.46,0.44-0.66c0.18-0.29,0.33-0.58,0.49-0.87l0.16-0.3    c0.07-0.12,0.15-0.25,0.21-0.38c0.07-0.14,0.12-0.24,0.17-0.33c9.5-19.94,12.28-36.05,8.03-46.59c-1.76-4.36-5.11-7.77-9.43-9.6    c-4.32-1.84-9.1-1.88-13.46-0.12c-5.01,2.02-8.76,6.18-10.28,11.41c-0.6,2.06-2.11,3.73-4.1,4.53c-1.99,0.81-4.24,0.65-6.1-0.41    c-4.72-2.71-10.31-3.1-15.33-1.07c-4.35,1.76-7.76,5.1-9.6,9.43c-1.83,4.32-1.87,9.1-0.12,13.45    c4.26,10.53,17.44,20.2,38.13,27.96C204.4,322.5,204.5,322.53,204.6,322.57z"/>
<path class="st2" d="M403.35,138.33c0.38-0.25,0.79-0.47,1.21-0.64c0.42-0.18,0.86-0.31,1.31-0.4c0.29-0.06,0.58-0.09,0.87-0.11    c0.17-0.01,0.33-0.02,0.5-0.02s0.33,0.01,0.5,0.02v-9.54c-0.17,0.02-0.33,0.03-0.5,0.03s-0.33-0.01-0.5-0.03    c-3.64-0.25-6.5-3.27-6.5-6.97c0-34.83-28.34-63.17-63.17-63.17H182.76c-11.2,0-21.73,4.36-29.65,12.28    c-7.91,7.92-12.27,18.45-12.27,29.65c0,1.93,0.05,3.74,0.14,5.52v0.01c0.07,1.52,0.18,3.04,0.31,4.55    c1.59,17.96,7.38,34.97,16.96,50.03c0.37,0.59,0.76,1.17,1.15,1.75c1.39,2.1,2.84,4.17,4.38,6.19c0.92,1.21,1.87,2.4,2.85,3.58    c21.45,25.89,53,40.74,86.58,40.74h147.03v-42.21c0-3.69,2.86-6.72,6.5-6.97c0.17-0.02,0.33-0.03,0.5-0.03s0.33,0.01,0.5,0.03    v-11.49c-0.17,0.01-0.33,0.02-0.5,0.02s-0.33-0.01-0.5-0.02c-0.29-0.02-0.58-0.05-0.87-0.11c-0.45-0.09-0.89-0.23-1.31-0.4    c-0.42-0.18-0.83-0.4-1.21-0.65c-0.38-0.25-0.74-0.55-1.06-0.87c-1.31-1.3-2.05-3.11-2.05-4.95c0-1.84,0.74-3.64,2.05-4.95    C402.61,138.88,402.97,138.59,403.35,138.33z M253.21,190.76c-27.29,0-52.94-12.07-70.38-33.12c-2.47-2.98-2.06-7.39,0.92-9.86    c2.98-2.46,7.39-2.05,9.86,0.93c14.77,17.82,36.49,28.05,59.6,28.05c3.87,0,7,3.13,7,7C260.21,187.62,257.08,190.76,253.21,190.76    z"/>
<path class="st1" d="M422.51,254.49c0,15.3-7.79,29.24-20.83,37.29c-3.29,2.03-4.32,6.34-2.29,9.63c0.04,0.07,0.1,0.13,0.14,0.2    c0.09,0.14,0.18,0.28,0.29,0.41c0.1,0.13,0.21,0.26,0.33,0.38c-0.02,0.01-0.03,0.02-0.05,0.03c-2.92,2-7.75,4.87-14.2,7.13    c-0.06,0.02-0.12,0.04-0.17,0.06V225.8h21.51c0.3,0,0.59-0.03,0.88-0.07c0.08-0.01,0.16-0.02,0.24-0.03    c0.23-0.04,0.45-0.09,0.66-0.14c0.07-0.02,0.14-0.04,0.21-0.06c0.27-0.08,0.53-0.17,0.79-0.28c0.05-0.02,0.1-0.05,0.15-0.07    c0.21-0.1,0.41-0.21,0.61-0.32c0.03-0.02,0.07-0.04,0.11-0.06C418.28,232.77,422.51,243.34,422.51,254.49z"/>
<path class="st1" d="M373.49,373.22c-0.16-0.05-0.32-0.11-0.47-0.17c-3.15-1.26-5-4.66-4.22-8.06c1.94-8.45,2.93-17.18,2.93-25.93    V225.8H253.21c-37.76,0-73.25-16.7-97.36-45.81c-0.98-1.18-1.92-2.37-2.85-3.58c-0.23-0.3-0.46-0.6-0.69-0.9    c-0.91-1.2-1.8-2.41-2.66-3.64l-0.03-0.03c-0.87-1.24-1.7-2.49-2.52-3.76c-0.21-0.31-0.41-0.63-0.62-0.95    c-0.79-1.24-1.57-2.5-2.31-3.76c-0.02-0.03-0.04-0.06-0.05-0.08c-0.76-1.3-1.49-2.6-2.2-3.92c-0.18-0.33-0.35-0.65-0.53-0.98    c-0.18-0.34-0.37-0.68-0.55-1.03v181.7c0,63.65,51.79,115.44,115.45,115.44c38.33,0,74.08-18.97,95.63-50.76    c2.15-3.17,6.46-4.02,9.66-1.9c0.02,0.02,0.04,0.03,0.06,0.04c0.12,0.08,0.24,0.17,0.35,0.25c0.14,0.1,0.26,0.22,0.39,0.33    c0.01-0.03,0.03-0.05,0.04-0.08c1.12-1.95,2.18-4,3.25-6.26c0.01-0.02,0.02-0.04,0.03-0.06c-0.16-0.05-0.32-0.1-0.48-0.16    c-0.09-0.03-0.17-0.06-0.26-0.1c-0.07-0.03-0.13-0.07-0.2-0.1c-2.52-1.19-4.04-3.69-4.04-6.33c0-0.92,0.19-1.86,0.57-2.76    l0.38-0.89c1.45-3.37,5.25-5.01,8.67-3.85c0.16,0.05,0.31,0.1,0.47,0.17c0.02,0,0.04,0.01,0.06,0.02c0.14,0.06,0.26,0.14,0.39,0.2    c0.01-0.02,0.02-0.04,0.02-0.06c0.97-2.85,1.85-5.74,2.69-8.84C373.81,373.32,373.65,373.27,373.49,373.22z M153.19,299.75    c-3.16-7.82-3.08-16.4,0.22-24.17c3.3-7.76,9.42-13.78,17.24-16.93c6.59-2.66,13.71-3.01,20.38-1.12    c3.48-5.99,8.85-10.68,15.43-13.34c7.82-3.16,16.41-3.09,24.17,0.21c7.77,3.3,13.78,9.42,16.94,17.25    c5.85,14.5,3.01,34.02-8.45,58.02c-0.08,0.17-0.15,0.31-0.23,0.44c-0.13,0.27-0.3,0.57-0.46,0.87l-0.12,0.22    c-0.29,0.52-0.57,1.04-0.89,1.54c-0.23,0.39-0.49,0.76-0.75,1.14c-0.38,0.55-0.71,1.02-1.06,1.48c-0.29,0.36-0.57,0.71-0.87,1.06    c-0.39,0.47-0.79,0.91-1.2,1.35c-0.3,0.31-0.59,0.61-0.9,0.91c-0.45,0.44-0.92,0.87-1.4,1.28l-0.1,0.09    c-0.26,0.22-0.53,0.45-0.8,0.67c-0.52,0.42-1.06,0.81-1.61,1.19l-0.16,0.11c-0.23,0.17-0.48,0.34-0.72,0.5    c-0.7,0.46-1.38,0.84-1.89,1.13l-0.08,0.04c-0.21,0.13-0.43,0.25-0.65,0.37c-0.95,0.49-1.85,0.91-2.74,1.27    c-0.02,0.01-0.04,0.01-0.05,0.02c-0.91,0.37-1.86,0.69-2.88,1c-0.24,0.07-0.49,0.13-0.74,0.19l-0.1,0.03    c-0.6,0.16-1.33,0.34-2.13,0.5c-0.29,0.05-0.57,0.1-0.86,0.14l-0.2,0.03c-0.66,0.1-1.32,0.19-1.98,0.26    c-0.34,0.03-0.69,0.05-1.04,0.07l-0.14,0.01c-0.6,0.03-1.19,0.05-1.78,0.05h-0.1c-0.44,0-0.87-0.02-1.3-0.03    c-0.59-0.03-1.19-0.08-1.78-0.14c-0.46-0.04-0.91-0.1-1.38-0.17c-0.57-0.08-1.13-0.19-1.7-0.3l-0.11-0.02    c-0.44-0.09-0.88-0.19-1.31-0.3c-0.54-0.13-1.09-0.3-1.63-0.47l-0.31-0.1c-0.32-0.09-0.63-0.19-0.94-0.3    c-0.15-0.04-0.29-0.09-0.44-0.14C174.65,326.33,159.05,314.25,153.19,299.75z M333.96,392.67    c-17.69,25.54-46.72,40.79-77.67,40.79c-31.63,0-61.02-15.77-78.62-42.18c-2.14-3.22-1.27-7.56,1.94-9.71    c3.22-2.14,7.57-1.27,9.71,1.95c15,22.51,40.03,35.94,66.97,35.94c26.35,0,51.09-12.99,66.15-34.76c2.21-3.18,6.57-3.97,9.74-1.77    C335.36,385.13,336.16,389.49,333.96,392.67z M358.66,299.75c-5.85,14.5-21.45,26.58-46.37,35.89c-0.15,0.06-0.31,0.11-0.46,0.16    c-0.31,0.11-0.62,0.21-0.94,0.3l-0.24,0.08c-0.6,0.19-1.15,0.36-1.71,0.5c-0.43,0.11-0.87,0.2-1.31,0.29l-0.1,0.02    c-0.57,0.11-1.14,0.22-1.7,0.3c-0.47,0.07-0.93,0.13-1.39,0.17c-0.59,0.06-1.18,0.11-1.77,0.14c-0.44,0.01-0.87,0.03-1.3,0.03    h-0.1c-0.59,0-1.18-0.02-1.76-0.05l-0.16-0.01c-0.35-0.02-0.7-0.04-1.05-0.07c-0.66-0.07-1.31-0.16-1.97-0.26l-0.2-0.03    c-0.29-0.04-0.58-0.09-0.87-0.14c-0.79-0.16-1.52-0.34-2.13-0.51l-0.1-0.02c-0.24-0.06-0.49-0.12-0.73-0.19    c-1.03-0.31-1.98-0.63-2.89-1c-0.01-0.01-0.02-0.01-0.04-0.02c-0.9-0.36-1.8-0.78-2.73-1.27c-0.22-0.11-0.45-0.24-0.67-0.37    l-0.08-0.05c-0.5-0.28-1.18-0.66-1.89-1.12c-0.25-0.16-0.48-0.33-0.71-0.5l-0.17-0.11c-0.54-0.38-1.08-0.78-1.61-1.2    c-0.26-0.2-0.51-0.42-0.77-0.64l-0.12-0.11c-0.49-0.42-0.95-0.84-1.4-1.28c-0.31-0.3-0.61-0.6-0.9-0.91    c-0.42-0.44-0.82-0.89-1.21-1.35c-0.28-0.34-0.57-0.69-0.86-1.06c-0.36-0.46-0.69-0.94-1.02-1.42c-0.3-0.43-0.55-0.81-0.79-1.19    c-0.32-0.52-0.61-1.04-0.89-1.56l-0.12-0.21c-0.16-0.29-0.32-0.58-0.47-0.88c-0.09-0.15-0.17-0.3-0.24-0.46    c-11.45-23.97-14.29-43.49-8.43-57.99c6.52-16.15,24.96-23.98,41.1-17.46c6.59,2.66,11.96,7.35,15.44,13.34    c6.66-1.89,13.79-1.54,20.37,1.12C357.35,265.16,365.18,283.6,358.66,299.75z"/>
<path class="st6" d="M247.57,261.65c-3.16-7.83-9.17-13.95-16.94-17.25c-7.76-3.3-16.35-3.37-24.17-0.21    c-6.58,2.66-11.95,7.35-15.43,13.34c-6.67-1.89-13.79-1.54-20.38,1.12c-7.82,3.15-13.94,9.17-17.24,16.93    c-3.3,7.77-3.38,16.35-0.22,24.17c5.86,14.5,21.46,26.58,46.4,35.91c0.15,0.05,0.29,0.1,0.44,0.14c0.31,0.11,0.62,0.21,0.94,0.3    l0.31,0.1c0.54,0.17,1.09,0.34,1.63,0.47c0.43,0.11,0.87,0.21,1.31,0.3l0.11,0.02c0.57,0.11,1.13,0.22,1.7,0.3    c0.47,0.07,0.92,0.13,1.38,0.17c0.59,0.06,1.19,0.11,1.78,0.14c0.43,0.01,0.86,0.03,1.3,0.03h0.1c0.59,0,1.18-0.02,1.78-0.05    l0.14-0.01c0.35-0.02,0.7-0.04,1.04-0.07c0.66-0.07,1.32-0.16,1.98-0.26l0.2-0.03c0.29-0.04,0.57-0.09,0.86-0.14    c0.8-0.16,1.53-0.34,2.13-0.5l0.1-0.03c0.25-0.06,0.5-0.12,0.74-0.19c1.02-0.31,1.97-0.63,2.88-1c0.01-0.01,0.03-0.01,0.05-0.02    c0.89-0.36,1.79-0.78,2.74-1.27c0.22-0.12,0.44-0.24,0.65-0.37l0.08-0.04c0.51-0.29,1.19-0.67,1.89-1.13    c0.24-0.16,0.49-0.33,0.72-0.5l0.16-0.11c0.55-0.38,1.09-0.77,1.61-1.19c0.27-0.22,0.54-0.45,0.8-0.67l0.1-0.09    c0.48-0.41,0.95-0.84,1.4-1.28c0.31-0.3,0.6-0.6,0.9-0.91c0.41-0.44,0.81-0.88,1.2-1.35c0.3-0.35,0.58-0.7,0.87-1.06    c0.35-0.46,0.68-0.93,1.06-1.48c0.26-0.38,0.52-0.75,0.75-1.14c0.32-0.5,0.6-1.02,0.89-1.54l0.12-0.22    c0.16-0.3,0.33-0.6,0.46-0.87c0.08-0.13,0.15-0.27,0.23-0.44C250.58,295.67,253.42,276.15,247.57,261.65z M226.56,313.48    c-0.05,0.09-0.1,0.19-0.17,0.33c-0.06,0.13-0.14,0.26-0.21,0.38l-0.16,0.3c-0.16,0.29-0.31,0.58-0.49,0.87    c-0.12,0.2-0.26,0.39-0.44,0.66c-0.19,0.26-0.37,0.53-0.56,0.78c-0.16,0.2-0.32,0.4-0.49,0.59c-0.21,0.26-0.43,0.51-0.66,0.75    c-0.17,0.17-0.33,0.34-0.5,0.51c-0.25,0.24-0.51,0.47-0.77,0.7l-0.13,0.1c-0.12,0.11-0.25,0.22-0.38,0.33    c-0.29,0.23-0.59,0.44-0.89,0.66l-0.49,0.34c-0.34,0.22-0.7,0.42-1.06,0.63c-0.13,0.07-0.27,0.15-0.4,0.23h-0.01    c-0.54,0.29-1.05,0.52-1.54,0.72c-0.01,0.01-0.03,0.02-0.04,0.02c-0.49,0.19-1,0.37-1.5,0.52l-0.11,0.03    c-0.14,0.03-0.29,0.07-0.43,0.11c-0.4,0.1-0.8,0.2-1.19,0.28l-0.6,0.09c-0.36,0.06-0.72,0.11-1.1,0.15    c-0.17,0.01-0.33,0.02-0.5,0.03l-0.15,0.01c-0.33,0.02-0.66,0.03-1,0.03c-0.23,0-0.51-0.01-0.76-0.02    c-0.33-0.02-0.66-0.04-0.99-0.07c-0.26-0.03-0.52-0.06-0.77-0.1c-0.31-0.04-0.62-0.1-0.94-0.17l-0.11-0.02    c-0.23-0.05-0.45-0.09-0.68-0.15c-0.3-0.07-0.59-0.17-0.93-0.28l-0.34-0.1c-0.14-0.04-0.28-0.08-0.47-0.15    c-0.1-0.04-0.2-0.07-0.3-0.1c-20.69-7.76-33.87-17.43-38.13-27.96c-1.75-4.35-1.71-9.13,0.12-13.45c1.84-4.33,5.25-7.67,9.6-9.43    c5.02-2.03,10.61-1.64,15.33,1.07c1.86,1.06,4.11,1.22,6.1,0.41c1.99-0.8,3.5-2.47,4.1-4.53c1.52-5.23,5.27-9.39,10.28-11.41    c4.36-1.76,9.14-1.72,13.46,0.12c4.32,1.83,7.67,5.24,9.43,9.6C238.84,277.43,236.06,293.54,226.56,313.48z"/>
<path class="st6" d="M341.2,258.65c-6.58-2.66-13.71-3.01-20.37-1.12c-3.48-5.99-8.85-10.68-15.44-13.34    c-16.14-6.52-34.58,1.31-41.1,17.46c-5.86,14.5-3.02,34.02,8.43,57.99c0.07,0.16,0.15,0.31,0.24,0.46    c0.15,0.3,0.31,0.59,0.47,0.88l0.12,0.21c0.28,0.52,0.57,1.04,0.89,1.56c0.24,0.38,0.49,0.76,0.79,1.19    c0.33,0.48,0.66,0.96,1.02,1.42c0.29,0.37,0.58,0.72,0.86,1.06c0.39,0.46,0.79,0.91,1.21,1.35c0.29,0.31,0.59,0.61,0.9,0.91    c0.45,0.44,0.91,0.86,1.4,1.28l0.12,0.11c0.26,0.22,0.51,0.44,0.77,0.64c0.53,0.42,1.07,0.82,1.61,1.2l0.17,0.11    c0.23,0.17,0.46,0.34,0.71,0.5c0.71,0.46,1.39,0.84,1.89,1.12l0.08,0.05c0.22,0.13,0.45,0.26,0.67,0.37    c0.93,0.49,1.83,0.91,2.73,1.27c0.02,0.01,0.03,0.01,0.04,0.02c0.91,0.37,1.86,0.69,2.89,1c0.24,0.07,0.49,0.13,0.73,0.19    l0.1,0.02c0.61,0.17,1.34,0.35,2.13,0.51c0.29,0.05,0.58,0.1,0.87,0.14l0.2,0.03c0.66,0.1,1.31,0.19,1.97,0.26    c0.35,0.03,0.7,0.05,1.05,0.07l0.16,0.01c0.58,0.03,1.17,0.05,1.76,0.05h0.1c0.43,0,0.86-0.02,1.3-0.03    c0.59-0.03,1.18-0.08,1.77-0.14c0.46-0.04,0.92-0.1,1.39-0.17c0.56-0.08,1.13-0.19,1.7-0.3l0.1-0.02    c0.44-0.09,0.88-0.18,1.31-0.29c0.56-0.14,1.11-0.31,1.71-0.5l0.24-0.08c0.32-0.09,0.63-0.19,0.94-0.3    c0.15-0.05,0.31-0.1,0.46-0.16c24.92-9.31,40.52-21.39,46.37-35.89C365.18,283.6,357.35,265.16,341.2,258.65z M345.68,294.51    c-4.25,10.53-17.43,20.2-38.13,27.96c-0.11,0.03-0.22,0.07-0.34,0.11c-0.13,0.05-0.28,0.09-0.42,0.14l-0.38,0.11    c-0.29,0.1-0.59,0.19-0.89,0.27c-0.23,0.06-0.46,0.1-0.68,0.15l-0.12,0.02c-0.31,0.07-0.62,0.13-0.93,0.17    c-0.26,0.04-0.51,0.07-0.78,0.1c-0.32,0.03-0.65,0.05-0.97,0.07c-0.25,0.01-0.49,0.02-0.73,0.02c-0.35,0-0.69-0.01-1.03-0.03    l-0.16-0.01c-0.17-0.01-0.34-0.02-0.51-0.03c-0.37-0.04-0.73-0.09-1.09-0.15l-0.6-0.09c-0.4-0.08-0.79-0.18-1.19-0.29    c-0.14-0.03-0.29-0.07-0.43-0.1l-0.04-0.01c-0.58-0.17-1.09-0.35-1.58-0.54c-0.01-0.01-0.02-0.01-0.03-0.02    c-0.5-0.2-1-0.43-1.47-0.68l-0.09-0.05c-0.13-0.07-0.26-0.15-0.4-0.23c-0.36-0.2-0.71-0.4-1.05-0.62l-0.49-0.34    c-0.31-0.22-0.6-0.43-0.9-0.66c-0.12-0.1-0.24-0.21-0.37-0.31l-0.12-0.12c-0.27-0.22-0.53-0.46-0.78-0.7    c-0.17-0.17-0.34-0.34-0.5-0.51c-0.23-0.24-0.45-0.49-0.67-0.76c-0.17-0.19-0.33-0.38-0.48-0.58c-0.19-0.25-0.37-0.51-0.55-0.77    c-0.01-0.01-0.06-0.09-0.06-0.09c-0.14-0.2-0.27-0.39-0.39-0.58c-0.17-0.28-0.33-0.57-0.49-0.87l-0.17-0.31    c-0.07-0.12-0.14-0.25-0.21-0.37c-0.05-0.11-0.1-0.22-0.16-0.32c-9.51-19.96-12.28-36.07-8.03-46.6    c3.63-8.99,13.89-13.35,22.88-9.72c5.02,2.02,8.77,6.18,10.29,11.41c0.6,2.06,2.11,3.73,4.1,4.53c1.99,0.81,4.23,0.65,6.1-0.41    c4.72-2.71,10.31-3.1,15.32-1.07C344.95,275.26,349.31,285.52,345.68,294.51z"/>
<path class="st6" d="M414.24,208.91v-39.32c0-3.69-2.87-6.72-6.5-6.97c-0.17-0.02-0.33-0.03-0.5-0.03s-0.33,0.01-0.5,0.03    c-3.64,0.25-6.5,3.28-6.5,6.97v42.21H253.21c-33.58,0-65.13-14.85-86.58-40.74c-0.98-1.18-1.93-2.37-2.85-3.58    c-1.54-2.02-2.99-4.09-4.38-6.19c-0.39-0.58-0.78-1.16-1.15-1.75c-9.58-15.06-15.37-32.07-16.96-50.03    c-0.13-1.51-0.24-3.03-0.31-4.55v-0.01c-0.09-1.78-0.14-3.59-0.14-5.52c0-11.2,4.36-21.73,12.27-29.65    c7.92-7.92,18.45-12.28,29.65-12.28h154.31c34.83,0,63.17,28.34,63.17,63.17c0,3.7,2.86,6.72,6.5,6.97    c0.17,0.02,0.33,0.03,0.5,0.03s0.33-0.01,0.5-0.03c3.63-0.25,6.5-3.27,6.5-6.97c0-42.55-34.62-77.17-77.17-77.17H182.76    c-14.94,0-28.98,5.82-39.55,16.39c-10.41,10.43-16.2,24.24-16.35,38.95c-21.52,3.37-38.04,22.03-38.04,44.48v74.26    c-8.61,10.35-13.33,23.35-13.33,36.91c0,19.39,9.66,37.39,25.83,48.14c2.89,1.93,6.7,1.41,9-1.07c0.11-0.12,0.22-0.24,0.33-0.37    c0.1-0.13,0.2-0.27,0.29-0.41c0.03-0.03,0.06-0.06,0.08-0.1c2.14-3.22,1.27-7.57-1.95-9.71c-12.26-8.15-19.58-21.79-19.58-36.48    c0-10.98,4.08-21.48,11.49-29.57c0.48-0.52,0.97-1.02,1.47-1.52c0.16-0.15,0.32-0.3,0.48-0.46c0.35-0.34,0.71-0.67,1.07-0.99    c0.19-0.17,0.38-0.34,0.57-0.51c0.35-0.3,0.71-0.6,1.07-0.89c0.19-0.16,0.38-0.31,0.57-0.47c0.41-0.31,0.82-0.62,1.24-0.93    c0.15-0.11,0.29-0.22,0.44-0.33c0.57-0.4,1.15-0.79,1.74-1.17c0.11-0.07,0.22-0.13,0.33-0.2c0.48-0.31,0.96-0.6,1.45-0.88    c0.21-0.12,0.41-0.23,0.62-0.34c0.41-0.23,0.82-0.45,1.24-0.67c0.22-0.11,0.44-0.23,0.67-0.34c0.42-0.2,0.85-0.4,1.27-0.6    c0.22-0.09,0.43-0.19,0.64-0.28c0.53-0.23,1.06-0.45,1.59-0.66c0.11-0.04,0.23-0.09,0.34-0.13c0.65-0.25,1.31-0.48,1.97-0.69    c0.18-0.06,0.37-0.12,0.55-0.18c0.48-0.14,0.97-0.29,1.45-0.42c0.24-0.07,0.49-0.13,0.73-0.19c0.44-0.11,0.88-0.22,1.33-0.32    c0.25-0.06,0.5-0.11,0.75-0.16c0.47-0.1,0.94-0.18,1.41-0.26c0.22-0.04,0.44-0.08,0.67-0.12c0.06-0.01,0.13-0.01,0.2-0.02v127.87    c0,71.37,58.07,129.44,129.45,129.44c42.98,0,83.06-21.27,107.21-56.9c1.99-2.94,1.45-6.83-1.12-9.14    c-0.13-0.11-0.25-0.23-0.39-0.33c-0.11-0.08-0.23-0.17-0.35-0.25c-0.02-0.01-0.04-0.02-0.06-0.04c-3.2-2.12-7.51-1.27-9.66,1.9    c-21.55,31.79-57.3,50.76-95.63,50.76c-63.66,0-115.45-51.79-115.45-115.44v-181.7c0.18,0.35,0.37,0.69,0.55,1.03    c0.18,0.33,0.35,0.65,0.53,0.98c0.71,1.32,1.44,2.62,2.2,3.92c0.01,0.02,0.03,0.05,0.05,0.08c0.74,1.26,1.52,2.52,2.31,3.76    c0.21,0.32,0.41,0.64,0.62,0.95c0.82,1.27,1.65,2.52,2.52,3.76l0.03,0.03c0.86,1.23,1.75,2.44,2.66,3.64    c0.23,0.3,0.46,0.6,0.69,0.9c0.93,1.21,1.87,2.4,2.85,3.58c24.11,29.11,59.6,45.81,97.36,45.81h118.52v113.26    c0,8.75-0.99,17.48-2.93,25.93c-0.78,3.4,1.07,6.8,4.22,8.06c0.15,0.06,0.31,0.12,0.47,0.17s0.32,0.1,0.48,0.14    c0.03,0,0.06,0.01,0.09,0.02c3.77,0.86,7.53-1.49,8.39-5.26c2.17-9.48,3.28-19.25,3.28-29.06V225.8h21.51    c0.3,0,0.59-0.03,0.88-0.07c0.08-0.01,0.16-0.02,0.24-0.03c0.23-0.04,0.45-0.09,0.66-0.14c0.07-0.02,0.14-0.04,0.21-0.06    c0.27-0.08,0.53-0.17,0.79-0.28c0.05-0.02,0.1-0.05,0.15-0.07c0.21-0.1,0.41-0.21,0.61-0.32c0.03-0.02,0.07-0.04,0.11-0.06    c7.39,8,11.62,18.57,11.62,29.72c0,15.3-7.79,29.24-20.83,37.29c-3.29,2.03-4.32,6.34-2.29,9.63c0.04,0.07,0.1,0.13,0.14,0.2    c0.09,0.14,0.18,0.28,0.29,0.41c0.1,0.13,0.21,0.26,0.33,0.38c2.21,2.48,5.95,3.11,8.88,1.3c17.2-10.62,27.48-29.01,27.48-49.21    C436.51,236.59,428.25,219.82,414.24,208.91z M125.83,197.2c-0.63,0.09-1.25,0.17-1.88,0.27c-0.42,0.07-0.85,0.16-1.28,0.24    c-0.59,0.11-1.18,0.22-1.77,0.35c-0.44,0.09-0.87,0.2-1.3,0.31c-0.58,0.14-1.15,0.28-1.72,0.44c-0.43,0.12-0.86,0.25-1.3,0.38    c-0.55,0.17-1.11,0.35-1.66,0.53c-0.43,0.15-0.86,0.3-1.29,0.45c-0.55,0.2-1.09,0.41-1.62,0.62c-0.43,0.17-0.85,0.34-1.27,0.52    c-0.53,0.22-1.06,0.46-1.59,0.7c-0.41,0.19-0.82,0.38-1.23,0.58c-0.53,0.26-1.05,0.53-1.56,0.8c-0.4,0.21-0.8,0.42-1.19,0.64    c-0.52,0.28-1.03,0.59-1.54,0.89c-0.27,0.16-0.55,0.31-0.81,0.48v-62.08c0-14.7,10.28-27.04,24.02-30.22v83.96    C126.5,197.1,126.17,197.16,125.83,197.2z"/>
<path class="st6" d="M375.11,388.5c0,0.92-0.19,1.86-0.58,2.76l-0.38,0.88c-1.14,2.65-3.72,4.24-6.43,4.24    c-0.67,0-1.35-0.11-2.02-0.32c-0.16-0.05-0.32-0.1-0.48-0.16c-0.09-0.03-0.17-0.06-0.26-0.1c-0.07-0.03-0.13-0.07-0.2-0.1    c-2.52-1.19-4.04-3.69-4.04-6.33c0-0.92,0.19-1.86,0.57-2.76l0.38-0.89c1.45-3.37,5.25-5.01,8.67-3.85    c0.16,0.05,0.31,0.1,0.47,0.17c0.02,0,0.04,0.01,0.06,0.02c0.14,0.06,0.26,0.14,0.39,0.2    C373.67,383.48,375.11,385.92,375.11,388.5z"/>
<path class="st6" d="M333.96,392.67c-17.69,25.54-46.72,40.79-77.67,40.79c-31.63,0-61.02-15.77-78.62-42.18    c-2.14-3.22-1.27-7.56,1.94-9.71c3.22-2.14,7.57-1.27,9.71,1.95c15,22.51,40.03,35.94,66.97,35.94    c26.35,0,51.09-12.99,66.15-34.76c2.21-3.18,6.57-3.97,9.74-1.77C335.36,385.13,336.16,389.49,333.96,392.67z"/>
<path class="st6" d="M414.24,144.15c0,1.84-0.75,3.65-2.05,4.95c-0.33,0.33-0.68,0.62-1.07,0.87c-0.38,0.26-0.78,0.47-1.21,0.65    c-0.42,0.17-0.86,0.31-1.3,0.4c-0.29,0.06-0.58,0.09-0.87,0.11c-0.17,0.01-0.33,0.02-0.5,0.02s-0.33-0.01-0.5-0.02    c-0.29-0.02-0.58-0.05-0.87-0.11c-0.45-0.09-0.89-0.23-1.31-0.4c-0.42-0.18-0.83-0.4-1.21-0.65c-0.38-0.25-0.74-0.55-1.06-0.87    c-1.31-1.3-2.05-3.11-2.05-4.95c0-1.84,0.74-3.64,2.05-4.95c0.32-0.32,0.68-0.61,1.06-0.87c0.38-0.25,0.79-0.47,1.21-0.64    c0.42-0.18,0.86-0.31,1.31-0.4c0.29-0.06,0.58-0.09,0.87-0.11c0.17-0.01,0.33-0.02,0.5-0.02s0.33,0.01,0.5,0.02    c0.29,0.02,0.58,0.05,0.87,0.11c0.44,0.09,0.88,0.22,1.3,0.4c0.43,0.17,0.83,0.39,1.21,0.64c0.39,0.26,0.74,0.55,1.07,0.87    C413.49,140.51,414.24,142.31,414.24,144.15z"/>
<path class="st6" d="M260.21,183.76c0,3.86-3.13,7-7,7c-27.29,0-52.94-12.07-70.38-33.12c-2.47-2.98-2.06-7.39,0.92-9.86    c2.98-2.46,7.39-2.05,9.86,0.93c14.77,17.82,36.49,28.05,59.6,28.05C257.08,176.76,260.21,179.89,260.21,183.76z"/>
</g>
</g>
</svg>