<?xml version="1.0" ?>
<!-- Uploaded to: SVG Repo, www.svgrepo.com, Generator: SVG Repo Mixer Tools -->
<svg width="800px" height="800px" viewBox="0 0 512 512" version="1.1" xml:space="preserve" xmlns="http://www.w3.org/2000/svg" xmlns:xlink="http://www.w3.org/1999/xlink">
<style type="text/css">
	.st0{display:none;}
	.st1{fill:#FFE2D2;}
	.st2{fill:#FFDE83;}
	.st3{fill:#F57070;}
	.st4{fill:#DBDBEF;}
	.st5{fill:#BCE2FF;}
	.st6{fill:#48446D;}
	.st7{fill:#6E78FF;}
	.st8{fill:#FFBE83;}
	.st9{fill:#F5949E;}
	.st10{fill:#D0FF67;}
	.st11{fill:#C69C6D;}
	.st12{fill:#C5BDD3;}
	.st13{fill:#FFE2B8;}
	.st14{fill:#F54670;}
</style>
<g class="st0" id="Layer_1"/>
<g id="Layer_2">
<g>
<path class="st14" d="M300.99,81.78v39.1c-10.46,3.49-20.21,9.15-28.45,16.55c-0.43,0.37-0.85,0.76-1.31,1.19l-0.61,0.59    c-0.24,0.2-0.43,0.4-0.6,0.58c-0.46,0.45-0.92,0.9-1.37,1.37c-0.01,0.01-0.01,0.01-0.01,0.01c-0.02,0.02-0.03,0.03-0.04,0.04    c-0.09,0.09-0.16,0.18-0.25,0.26c-0.23,0.23-0.45,0.47-0.68,0.71l-0.13,0.14c-0.06,0.06-0.12,0.12-0.18,0.19    c-0.19,0.2-0.38,0.4-0.57,0.61l-0.25,0.27c-0.09,0.09-0.17,0.18-0.25,0.28c-0.05,0.06-0.11,0.12-0.16,0.18    c-0.12,0.13-0.23,0.26-0.37,0.42c-0.4,0.44-0.78,0.9-1.16,1.36c-0.57,0.66-1.11,1.34-1.66,2.03l-0.03,0.04    c-0.09,0.1-0.17,0.2-0.25,0.3c-0.53,0.7-1.07,1.41-1.57,2.1c-0.19,0.26-0.38,0.53-0.58,0.8v-34.8c0-4.47,0.85-8.81,2.53-12.93    c1.04-2.57,2.43-5.06,4.13-7.38c0.54-0.74,1.11-1.45,1.71-2.14c4.2-4.84,9.74-8.48,15.86-10.36c2.83-0.87,5.75-1.36,8.69-1.48    h0.11c0.43-0.02,0.86-0.03,1.3-0.03H300.99z"/>
<path class="st10" d="M245.56,311.63v2.14h-0.69c-28.98,0-52.56-23.58-52.56-52.56v-2.14h0.68    C221.98,259.07,245.56,282.65,245.56,311.63z"/>
<path class="st14" d="M275.68,58.03v13.71c-0.08,0.03-0.15,0.07-0.23,0.1c-0.38,0.17-0.76,0.35-1.14,0.53    c-0.24,0.11-0.48,0.22-0.71,0.33c-0.45,0.22-0.88,0.45-1.32,0.69c-0.17,0.08-0.33,0.16-0.5,0.25c-0.59,0.32-1.17,0.66-1.75,1    c-0.2,0.12-0.39,0.25-0.59,0.38c-0.38,0.23-0.76,0.46-1.13,0.71c-0.24,0.16-0.49,0.33-0.73,0.5c-0.32,0.21-0.63,0.43-0.94,0.65    c-0.26,0.19-0.51,0.38-0.77,0.57c-0.29,0.22-0.57,0.43-0.86,0.66c-0.26,0.2-0.51,0.41-0.76,0.61c-0.28,0.23-0.55,0.45-0.81,0.68    c-0.26,0.22-0.51,0.43-0.76,0.66c-0.26,0.23-0.51,0.46-0.77,0.7c-0.15,0.14-0.3,0.27-0.45,0.41c-0.78-0.77-1.57-1.52-2.38-2.26    c-0.21-0.18-0.42-0.36-0.62-0.54c-0.66-0.58-1.31-1.16-1.99-1.72c-0.31-0.26-0.63-0.51-0.95-0.77c-0.58-0.46-1.16-0.92-1.76-1.37    c-0.34-0.27-0.69-0.53-1.04-0.79c-0.6-0.43-1.2-0.85-1.81-1.27c-0.34-0.24-0.68-0.48-1.03-0.71c-0.7-0.46-1.41-0.91-2.12-1.35    c-0.26-0.16-0.52-0.33-0.78-0.49c-0.96-0.58-1.94-1.14-2.93-1.67c-0.29-0.17-0.6-0.32-0.9-0.47c-0.56-0.3-1.12-0.6-1.69-0.88    v-8.85c0-0.29,0.24-0.53,0.53-0.53h33.15C275.44,57.5,275.68,57.74,275.68,58.03z"/>
<path class="st3" d="M245.55,172.04v55.91c-29.69-3.47-52.87-28.78-52.94-59.37v-56.07c4.27,0.5,8.45,1.44,12.5,2.84    c8.56,2.95,16.47,7.89,22.89,14.31C239.32,140.98,245.55,156.03,245.55,172.04z"/>
<path class="st10" d="M312.81,316.76v2.14c0,28.98-23.58,52.56-52.57,52.56h-0.68v-2.14c0-28.98,23.58-52.56,52.56-52.56H312.81z"/>
<path class="st14" d="M252.77,92.31c-0.02,0.04-0.04,0.09-0.06,0.13c-0.33,0.59-0.64,1.19-0.94,1.79    c-0.16,0.31-0.33,0.61-0.48,0.91c-0.44,0.92-0.84,1.84-1.22,2.76c-2.36,5.79-3.56,11.91-3.56,18.2v13.97    c-0.27-0.39-0.55-0.76-0.83-1.14c-0.28-0.4-0.56-0.79-0.85-1.18c-0.43-0.57-0.87-1.12-1.31-1.68c-0.29-0.36-0.57-0.72-0.87-1.08    c-0.5-0.6-1.02-1.19-1.54-1.78c-0.25-0.29-0.5-0.59-0.76-0.88c-0.8-0.87-1.61-1.73-2.45-2.57c-0.76-0.76-1.54-1.5-2.33-2.22    c-0.14-0.13-0.27-0.25-0.41-0.38c-0.77-0.68-1.55-1.36-2.34-2.01c-0.15-0.13-0.31-0.26-0.46-0.39c-0.82-0.66-1.65-1.31-2.49-1.94    c-0.07-0.06-0.15-0.11-0.22-0.16c-0.82-0.61-1.65-1.2-2.49-1.77c-0.13-0.08-0.26-0.17-0.38-0.26c-0.87-0.58-1.74-1.13-2.62-1.67    c-0.18-0.11-0.36-0.22-0.53-0.32c-0.89-0.54-1.79-1.06-2.7-1.55c-0.13-0.07-0.26-0.14-0.39-0.21c-0.89-0.48-1.79-0.94-2.7-1.38    c-0.1-0.05-0.19-0.1-0.28-0.14c-0.95-0.46-1.9-0.89-2.86-1.3c-0.11-0.04-0.21-0.09-0.31-0.14V73.31    c3.87,0.42,7.67,1.21,11.38,2.35c2.06,0.62,4.06,1.35,5.97,2.16c7.52,3.17,14.26,7.7,20.04,13.46    C252.11,91.63,252.45,91.97,252.77,92.31z"/>
<path class="st4" d="M178.31,252.07v9.14c0,36.7,29.86,66.56,66.56,66.56h0.69V454.5h-37.98l-81.1-310.87l36.02-23.57    c3-1.97,3.99-5.86,2.41-8.99c-0.08-0.15-0.15-0.3-0.24-0.44c-0.04-0.09-0.09-0.17-0.15-0.26c-0.04-0.06-0.08-0.11-0.12-0.16    l14.76-7.76c-0.1,0.23-0.2,0.46-0.27,0.71c-0.06,0.21-0.1,0.42-0.14,0.63c-0.08,0.43-0.14,0.87-0.14,1.32v63.49    c0.09,38.31,29.54,69.88,66.95,73.42v28.85c-12.19-15.68-31.21-25.8-52.57-25.8h-7.68C181.44,245.07,178.31,248.2,178.31,252.07z"/>
<path class="st4" d="M386.71,168.01l-3.8,15.58c-0.16-0.05-0.32-0.12-0.48-0.16c-0.16-0.04-0.32-0.07-0.49-0.11    c-0.88-0.18-1.79-0.19-2.69-0.01c-0.45,0.09-0.89,0.23-1.31,0.4c-0.43,0.18-0.83,0.39-1.21,0.65c-0.39,0.25-0.74,0.54-1.07,0.87    c-1.3,1.3-2.05,3.1-2.05,4.95c0,1.84,0.75,3.64,2.05,4.95c0.33,0.32,0.68,0.61,1.07,0.87c0.38,0.25,0.78,0.47,1.21,0.64    c0.23,0.1,0.46,0.17,0.7,0.24c0.16,0.05,0.32,0.1,0.49,0.13c0.04,0.01,0.08,0.02,0.12,0.03c0.12,0.02,0.25,0.04,0.37,0.06    l-2.51,10.27c-0.15-0.06-0.31-0.13-0.47-0.18c-0.14-0.05-0.28-0.09-0.43-0.13c-0.02,0-0.03-0.01-0.05-0.01    c-3.72-0.95-7.52,1.29-8.49,5.01L304.42,454.5h-44.86v-69.04h0.68c36.71,0,66.57-29.86,66.57-66.56v-9.14c0-3.87-3.14-7-7-7h-7.69    c-21.35,0-40.37,10.12-52.56,25.8V236.4l16.49-5.83c0.1,0.4,0.22,0.81,0.4,1.2c1.17,2.6,3.72,4.14,6.39,4.14    c0.96,0,1.93-0.2,2.86-0.61c26.5-11.88,44.74-37.18,47.6-66.04c0.26-2.74,0.39-5.45,0.39-8.04v-37.51c0-3.87-3.13-7-7-7    c-3.93,0-7.84,0.29-11.7,0.85v-27l15.34,8.29c-0.05,0.07-0.1,0.13-0.15,0.2c-0.05,0.07-0.09,0.14-0.13,0.22    c-0.09,0.14-0.16,0.29-0.24,0.44c-1.61,3.13-0.63,7.05,2.39,9.03l53.32,34.89l-4.12,15.78c-0.91,3.52,1.01,7.1,4.35,8.32    c0.15,0.06,0.31,0.11,0.47,0.16c0.06,0.03,0.13,0.04,0.19,0.06C386.51,167.98,386.61,167.99,386.71,168.01z"/>
<path class="st6" d="M377.11,207.37c-0.15-0.06-0.31-0.13-0.47-0.18c-0.14-0.05-0.28-0.09-0.43-0.13c-0.02,0-0.03-0.01-0.05-0.01    c-3.72-0.95-7.52,1.29-8.49,5.01L304.42,454.5h-44.86v-69.04h0.68c36.71,0,66.57-29.86,66.57-66.56v-9.14c0-3.87-3.14-7-7-7h-7.69    c-21.35,0-40.37,10.12-52.56,25.8v-93.2c0-0.01,0-0.01,0-0.02c0-0.04-0.01-0.07-0.01-0.11v-37.38c0-4.3,0.42-8.64,1.24-12.91    c0.01-0.02,0.01-0.03,0.01-0.04c0-0.01,0-0.02,0.01-0.04c0.01-0.07,0.02-0.14,0.04-0.21c0.03-0.19,0.07-0.37,0.1-0.57    c0.01,0,0.01-0.01,0.01-0.01c0.14-0.67,0.29-1.34,0.45-2.02l0.26-1c0.08-0.32,0.17-0.66,0.26-0.99c0.06-0.19,0.12-0.38,0.16-0.58    c0.09-0.3,0.18-0.62,0.27-0.92l0.36-1.16l0.02-0.06c0.07-0.22,0.14-0.44,0.22-0.66l0.15-0.46c0.12-0.36,0.25-0.71,0.39-1.1    c0.23-0.64,0.46-1.27,0.73-1.9c0.02-0.06,0.04-0.11,0.06-0.17c0-0.01,0.01-0.01,0.01-0.01c0.21-0.54,0.42-1.06,0.64-1.58    c0.02-0.06,0.05-0.11,0.07-0.17c0.25-0.57,0.5-1.12,0.76-1.68c0.01-0.03,0.03-0.07,0.05-0.1c0.12-0.29,0.25-0.58,0.4-0.86    c0.01-0.02,0.02-0.04,0.03-0.06c0-0.01,0-0.01,0-0.01l0.1-0.2c0.06-0.11,0.12-0.23,0.18-0.35c0.17-0.34,0.34-0.69,0.52-1.03    c0.01-0.01,0.01-0.02,0.01-0.02c0.03-0.05,0.06-0.1,0.08-0.15c0.21-0.42,0.43-0.83,0.65-1.24l0.05-0.09    c0.05-0.08,0.09-0.15,0.13-0.23c0.36-0.64,0.73-1.29,1.12-1.92c0.01-0.03,0.05-0.09,0.07-0.12c0.16-0.28,0.33-0.56,0.51-0.84    c0.03-0.04,0.05-0.08,0.08-0.12c0.4-0.65,0.83-1.3,1.31-2c0.41-0.62,0.85-1.25,1.31-1.88c0.4-0.55,0.81-1.09,1.22-1.63    c0.1-0.12,0.2-0.24,0.29-0.37l0.03-0.03c0.44-0.56,0.87-1.11,1.33-1.64c0.03-0.03,0.05-0.06,0.08-0.09    c0.29-0.35,0.58-0.7,0.89-1.04c0.03-0.04,0.11-0.12,0.14-0.16l0.17-0.19c0.04-0.05,0.08-0.1,0.12-0.14    c0.09-0.09,0.17-0.18,0.25-0.27c0.03-0.04,0.07-0.08,0.11-0.13c0.13-0.14,0.27-0.28,0.39-0.42l0.47-0.5    c0.23-0.24,0.46-0.49,0.69-0.72l0.1-0.1c0.4-0.42,0.82-0.84,1.24-1.24l0.1-0.1c0.04-0.04,0.09-0.08,0.14-0.13l0.77-0.74    c0.27-0.26,0.56-0.52,0.85-0.78c0.03-0.02,0.07-0.05,0.1-0.08c7.96-7.15,17.6-12.34,27.9-15.01v-0.01c0.01,0,0.01,0,0.01,0    c3.25-0.85,6.57-1.45,9.93-1.8v30.15c0,2.15-0.11,4.42-0.33,6.69c-2.36,23.85-17.45,44.78-39.38,54.61    c-2.81,1.25-4.36,4.15-4.09,7.04c0.02,0.17,0.02,0.35,0.05,0.52c0.03,0.16,0.07,0.32,0.11,0.49c0.1,0.4,0.22,0.81,0.4,1.2    c1.17,2.6,3.72,4.14,6.39,4.14c0.96,0,1.93-0.2,2.86-0.61c26.5-11.88,44.74-37.18,47.6-66.04c0.26-2.74,0.39-5.45,0.39-8.04    v-37.51c0-3.87-3.13-7-7-7c-3.93,0-7.84,0.29-11.7,0.85V74.78c0-3.87-3.13-7-7-7h-13.15c-0.68,0-1.33,0.01-2,0.05    c-1.06,0.04-2.11,0.12-3.16,0.23V58.03c0-8.01-6.52-14.53-14.54-14.53h-33.15c-8.01,0-14.53,6.52-14.53,14.53v3.55    c-6.51-1.76-13.25-2.66-20.07-2.66c-3.87,0-7,3.13-7,7v33.67c-4.83-0.98-9.78-1.48-14.78-1.48c-2.92,0-5.41,1.8-6.45,4.34    c-0.1,0.23-0.2,0.46-0.27,0.71c-0.06,0.21-0.1,0.42-0.14,0.63c-0.08,0.43-0.14,0.87-0.14,1.32v63.49    c0.09,38.31,29.54,69.88,66.95,73.42v28.85c-12.19-15.68-31.21-25.8-52.57-25.8h-7.68c-3.87,0-7,3.13-7,7v9.14    c0,36.7,29.86,66.56,66.56,66.56h0.69V454.5h-37.98l-81.1-310.87l36.02-23.57c3-1.97,3.99-5.86,2.41-8.99    c-0.08-0.15-0.15-0.3-0.24-0.44c-0.04-0.09-0.09-0.17-0.15-0.26c-0.04-0.06-0.08-0.11-0.12-0.16c-2.16-3.11-6.4-3.94-9.57-1.86    l-40.09,26.24c-0.01,0-0.01,0-0.01,0l-0.13,0.08c-0.04,0.03-0.09,0.07-0.13,0.1c-0.13,0.09-0.26,0.18-0.39,0.28l-0.21,0.18    c-0.1,0.09-0.2,0.17-0.29,0.27c-0.09,0.08-0.16,0.16-0.24,0.25c-0.08,0.07-0.15,0.15-0.22,0.23c-0.08,0.1-0.16,0.2-0.24,0.31    c-0.06,0.07-0.12,0.14-0.17,0.22c-0.08,0.11-0.15,0.22-0.22,0.34c-0.05,0.08-0.09,0.15-0.14,0.23c-0.06,0.11-0.12,0.23-0.18,0.34    c-0.04,0.09-0.09,0.18-0.13,0.27c-0.05,0.11-0.09,0.22-0.13,0.33c-0.04,0.1-0.08,0.21-0.12,0.32c-0.03,0.09-0.06,0.19-0.08,0.29    c-0.04,0.12-0.07,0.25-0.1,0.37c-0.02,0.09-0.04,0.18-0.05,0.27c-0.03,0.13-0.05,0.26-0.07,0.4c-0.01,0.09-0.02,0.18-0.02,0.28    c-0.01,0.12-0.02,0.25-0.03,0.38v0.32c0.01,0.12,0.01,0.23,0.02,0.35c0,0.13,0.02,0.26,0.04,0.39c0.01,0.09,0.02,0.19,0.03,0.28    c0.03,0.15,0.06,0.3,0.1,0.45c0.01,0.06,0.02,0.12,0.03,0.18l83.74,320.97c0.8,3.08,3.58,5.23,6.77,5.23h107.66    c3.19,0,5.97-2.15,6.77-5.23l64.61-247.67C382.11,212.18,380.3,208.68,377.11,207.37z M259.56,369.32    c0-28.98,23.58-52.56,52.56-52.56h0.69v2.14c0,28.98-23.58,52.56-52.57,52.56h-0.68V369.32z M245.56,313.77h-0.69    c-28.98,0-52.56-23.58-52.56-52.56v-2.14h0.68c28.99,0,52.57,23.58,52.57,52.56V313.77z M293.43,81.81h0.11    c0.43-0.02,0.86-0.03,1.3-0.03h6.15v39.1c-10.46,3.49-20.21,9.15-28.45,16.55c-0.43,0.37-0.85,0.76-1.31,1.19l-0.61,0.59    c-0.24,0.2-0.43,0.4-0.6,0.58c-0.46,0.45-0.92,0.9-1.37,1.37c-0.01,0.01-0.01,0.01-0.01,0.01c-0.02,0.02-0.03,0.03-0.04,0.04    c-0.09,0.09-0.16,0.18-0.25,0.26c-0.23,0.23-0.45,0.47-0.68,0.71l-0.13,0.14c-0.06,0.06-0.12,0.12-0.18,0.19    c-0.19,0.2-0.38,0.4-0.57,0.61l-0.25,0.27c-0.09,0.09-0.17,0.18-0.25,0.28c-0.05,0.06-0.11,0.12-0.16,0.18    c-0.12,0.13-0.23,0.26-0.37,0.42c-0.4,0.44-0.78,0.9-1.16,1.36c-0.57,0.66-1.11,1.34-1.66,2.03l-0.03,0.04    c-0.09,0.1-0.17,0.2-0.25,0.3c-0.53,0.7-1.07,1.41-1.57,2.1c-0.19,0.26-0.38,0.53-0.58,0.8v-34.8c0-4.47,0.85-8.81,2.53-12.93    c1.04-2.57,2.43-5.06,4.13-7.38c0.54-0.74,1.11-1.45,1.71-2.14c4.2-4.84,9.74-8.48,15.86-10.36    C287.57,82.42,290.49,81.93,293.43,81.81z M245.55,227.95c-29.69-3.47-52.87-28.78-52.94-59.37v-56.07    c4.27,0.5,8.45,1.44,12.5,2.84c8.56,2.95,16.47,7.89,22.89,14.31c11.32,11.32,17.55,26.37,17.55,42.38V227.95z M252.71,92.44    c-0.33,0.59-0.64,1.19-0.94,1.79c-0.16,0.31-0.33,0.61-0.48,0.91c-0.44,0.92-0.84,1.84-1.22,2.76c-2.36,5.79-3.56,11.91-3.56,18.2    v13.97c-0.27-0.39-0.55-0.76-0.83-1.14c-0.28-0.4-0.56-0.79-0.85-1.18c-0.43-0.57-0.87-1.12-1.31-1.68    c-0.29-0.36-0.57-0.72-0.87-1.08c-0.5-0.6-1.02-1.19-1.54-1.78c-0.25-0.29-0.5-0.59-0.76-0.88c-0.8-0.87-1.61-1.73-2.45-2.57    c-0.76-0.76-1.54-1.5-2.33-2.22c-0.14-0.13-0.27-0.25-0.41-0.38c-0.77-0.68-1.55-1.36-2.34-2.01c-0.15-0.13-0.31-0.26-0.46-0.39    c-0.82-0.66-1.65-1.31-2.49-1.94c-0.07-0.06-0.15-0.11-0.22-0.16c-0.82-0.61-1.65-1.2-2.49-1.77c-0.13-0.08-0.26-0.17-0.38-0.26    c-0.87-0.58-1.74-1.13-2.62-1.67c-0.18-0.11-0.36-0.22-0.53-0.32c-0.89-0.54-1.79-1.06-2.7-1.55c-0.13-0.07-0.26-0.14-0.39-0.21    c-0.89-0.48-1.79-0.94-2.7-1.38c-0.1-0.05-0.19-0.1-0.28-0.14c-0.95-0.46-1.9-0.89-2.86-1.3c-0.11-0.04-0.21-0.09-0.31-0.14V73.31    c3.87,0.42,7.67,1.21,11.38,2.35c2.06,0.62,4.06,1.35,5.97,2.16c7.52,3.17,14.26,7.7,20.04,13.46c0.33,0.35,0.67,0.69,0.99,1.03    C252.75,92.35,252.73,92.4,252.71,92.44z M258.46,78.37c-0.66-0.58-1.31-1.16-1.99-1.72c-0.31-0.26-0.63-0.51-0.95-0.77    c-0.58-0.46-1.16-0.92-1.76-1.37c-0.34-0.27-0.69-0.53-1.04-0.79c-0.6-0.43-1.2-0.85-1.81-1.27c-0.34-0.24-0.68-0.48-1.03-0.71    c-0.7-0.46-1.41-0.91-2.12-1.35c-0.26-0.16-0.52-0.33-0.78-0.49c-0.96-0.58-1.94-1.14-2.93-1.67c-0.29-0.17-0.6-0.32-0.9-0.47    c-0.56-0.3-1.12-0.6-1.69-0.88v-8.85c0-0.29,0.24-0.53,0.53-0.53h33.15c0.3,0,0.54,0.24,0.54,0.53v13.71    c-0.08,0.03-0.15,0.07-0.23,0.1c-0.38,0.17-0.76,0.35-1.14,0.53c-0.24,0.11-0.48,0.22-0.71,0.33c-0.45,0.22-0.88,0.45-1.32,0.69    c-0.17,0.08-0.33,0.16-0.5,0.25c-0.59,0.32-1.17,0.66-1.75,1c-0.2,0.12-0.39,0.25-0.59,0.38c-0.38,0.23-0.76,0.46-1.13,0.71    c-0.24,0.16-0.49,0.33-0.73,0.5c-0.32,0.21-0.63,0.43-0.94,0.65c-0.26,0.19-0.51,0.38-0.77,0.57c-0.29,0.22-0.57,0.43-0.86,0.66    c-0.26,0.2-0.51,0.41-0.76,0.61c-0.28,0.23-0.55,0.45-0.81,0.68c-0.26,0.22-0.51,0.43-0.76,0.66c-0.26,0.23-0.51,0.46-0.77,0.7    c-0.15,0.14-0.3,0.27-0.45,0.41c-0.78-0.77-1.57-1.52-2.38-2.26C258.87,78.73,258.66,78.55,258.46,78.37z"/>
<path class="st6" d="M400.34,142.3l-5.39,20.64c-0.82,3.15-3.66,5.24-6.77,5.24c-0.48,0-0.98-0.06-1.47-0.17    c-0.1-0.02-0.2-0.03-0.3-0.06c-0.06-0.02-0.13-0.03-0.19-0.06c-0.16-0.05-0.32-0.1-0.47-0.16c-3.34-1.22-5.26-4.8-4.35-8.32    l4.12-15.78l-53.32-34.89c-3.02-1.98-4-5.9-2.39-9.03c0.08-0.15,0.15-0.3,0.24-0.44c0.04-0.08,0.08-0.15,0.13-0.22    c0.05-0.07,0.1-0.13,0.15-0.2c2.15-3.07,6.37-3.89,9.54-1.83l57.53,37.65C399.91,136.32,401.1,139.39,400.34,142.3z"/>
<path class="st6" d="M387.61,190.18c0,1.84-0.74,3.64-2.05,4.95c-1.3,1.3-3.1,2.05-4.95,2.05c-0.33,0-0.66-0.03-0.99-0.08    c-0.12-0.02-0.25-0.04-0.37-0.06c-0.04-0.01-0.08-0.02-0.12-0.03c-0.17-0.03-0.33-0.08-0.49-0.13c-0.24-0.07-0.47-0.14-0.7-0.24    c-0.43-0.17-0.83-0.39-1.21-0.64c-0.39-0.26-0.74-0.55-1.07-0.87c-1.3-1.31-2.05-3.11-2.05-4.95c0-1.85,0.75-3.65,2.05-4.95    c0.33-0.33,0.68-0.62,1.07-0.87c0.38-0.26,0.78-0.47,1.21-0.65c0.42-0.17,0.86-0.31,1.31-0.4c0.9-0.18,1.81-0.17,2.69,0.01    c0.17,0.04,0.33,0.07,0.49,0.11c0.16,0.04,0.32,0.11,0.48,0.16c0.99,0.34,1.91,0.89,2.65,1.64    C386.87,186.53,387.61,188.33,387.61,190.18z"/>
<path class="st3" d="M319.69,131.07v30.15c0,2.15-0.11,4.42-0.33,6.69c-2.36,23.85-17.45,44.78-39.38,54.61    c-2.81,1.25-4.36,4.15-4.09,7.04c0.02,0.17,0.02,0.35,0.05,0.52c0.03,0.16,0.07,0.32,0.11,0.49l-16.49,5.83v-1.04    c0-0.01,0-0.01,0-0.02c0-0.04-0.01-0.07-0.01-0.11v-37.38c0-4.3,0.42-8.64,1.24-12.91c0.01-0.02,0.01-0.03,0.01-0.04    c0-0.01,0-0.02,0.01-0.04c0.01-0.07,0.02-0.14,0.04-0.21c0.03-0.19,0.07-0.37,0.1-0.57c0.01,0,0.01-0.01,0.01-0.01    c0.14-0.67,0.29-1.34,0.45-2.02l0.26-1c0.08-0.32,0.17-0.66,0.26-0.99c0.06-0.19,0.12-0.38,0.16-0.58    c0.09-0.3,0.18-0.62,0.27-0.92l0.36-1.16l0.02-0.06c0.07-0.22,0.14-0.44,0.22-0.66l0.15-0.46c0.12-0.36,0.25-0.71,0.39-1.1    c0.23-0.64,0.46-1.27,0.73-1.9c0.02-0.06,0.04-0.11,0.06-0.17c0-0.01,0.01-0.01,0.01-0.01c0.21-0.54,0.42-1.06,0.64-1.58    c0.02-0.06,0.05-0.11,0.07-0.17c0.25-0.57,0.5-1.12,0.76-1.68c0.01-0.03,0.03-0.07,0.05-0.1c0.12-0.29,0.25-0.58,0.4-0.86    c0.01-0.02,0.02-0.04,0.03-0.06c0-0.01,0-0.01,0-0.01l0.1-0.2c0.06-0.11,0.12-0.23,0.18-0.35c0.17-0.34,0.34-0.69,0.52-1.03    c0.01-0.01,0.01-0.02,0.01-0.02c0.03-0.05,0.06-0.1,0.08-0.15c0.21-0.42,0.43-0.83,0.65-1.24l0.05-0.09    c0.05-0.08,0.09-0.15,0.13-0.23c0.36-0.64,0.73-1.29,1.12-1.92c0.01-0.03,0.05-0.09,0.07-0.12c0.16-0.28,0.33-0.56,0.51-0.84    c0.03-0.04,0.05-0.08,0.08-0.12c0.4-0.65,0.83-1.3,1.31-2c0.41-0.62,0.85-1.25,1.31-1.88c0.4-0.55,0.81-1.09,1.22-1.63    c0.1-0.12,0.2-0.24,0.29-0.37l0.03-0.03c0.44-0.56,0.87-1.11,1.33-1.64c0.03-0.03,0.05-0.06,0.08-0.09    c0.29-0.35,0.58-0.7,0.89-1.04c0.03-0.04,0.11-0.12,0.14-0.16l0.17-0.19c0.04-0.05,0.08-0.1,0.12-0.14    c0.09-0.09,0.17-0.18,0.25-0.27c0.03-0.04,0.07-0.08,0.11-0.13c0.13-0.14,0.27-0.28,0.39-0.42l0.47-0.5    c0.23-0.24,0.46-0.49,0.69-0.72l0.1-0.1c0.4-0.42,0.82-0.84,1.24-1.24l0.1-0.1c0.04-0.04,0.09-0.08,0.14-0.13l0.77-0.74    c0.27-0.26,0.56-0.52,0.85-0.78c0.03-0.02,0.07-0.05,0.1-0.08c7.96-7.15,17.6-12.34,27.9-15.01v-0.01c0.01,0,0.01,0,0.01,0    C313.01,132.02,316.33,131.42,319.69,131.07z"/>
</g>
</g>
</svg>