<?xml version="1.0" ?>
<!-- Uploaded to: SVG Repo, www.svgrepo.com, Generator: SVG Repo Mixer Tools -->
<svg width="800px" height="800px" viewBox="0 0 512 512" version="1.1" xml:space="preserve" xmlns="http://www.w3.org/2000/svg" xmlns:xlink="http://www.w3.org/1999/xlink">
<style type="text/css">
	.st0{display:none;}
	.st1{fill:#FFE2D2;}
	.st2{fill:#FFDE83;}
	.st3{fill:#F57070;}
	.st4{fill:#DBDBEF;}
	.st5{fill:#BCE2FF;}
	.st6{fill:#48446D;}
	.st7{fill:#6E78FF;}
	.st8{fill:#FFBE83;}
	.st9{fill:#F5949E;}
	.st10{fill:#D0FF67;}
	.st11{fill:#C69C6D;}
	.st12{fill:#C5BDD3;}
	.st13{fill:#FFE2B8;}
	.st14{fill:#F54670;}
</style>
<g class="st0" id="Layer_1"/>
<g id="Layer_2">
<path class="st1" d="M414.59,283.08c0,7.18-2.11,14.09-6.11,19.99c-0.38,0.57-0.78,1.12-1.19,1.66c-0.13,0.16-0.26,0.33-0.39,0.49   c-0.3,0.37-0.6,0.74-0.9,1.1c-0.15,0.18-0.31,0.35-0.46,0.53c-0.31,0.35-0.64,0.69-0.96,1.03c-0.14,0.15-0.28,0.3-0.43,0.45   c-0.94,0.94-1.94,1.83-2.97,2.67c-0.16,0.12-0.32,0.24-0.48,0.36c-0.37,0.29-0.74,0.57-1.13,0.85c-0.18,0.13-0.37,0.26-0.55,0.38   c-0.39,0.27-0.78,0.52-1.18,0.77c-0.17,0.11-0.34,0.22-0.51,0.32c-0.56,0.35-1.13,0.68-1.71,0.99c-0.01,0-0.01,0-0.01,0   c-0.58,0.31-1.18,0.6-1.78,0.88c-0.18,0.08-0.36,0.16-0.55,0.24c-0.42,0.19-0.86,0.37-1.29,0.54c-0.21,0.09-0.43,0.17-0.64,0.25   c-0.43,0.16-0.87,0.31-1.31,0.46c-0.2,0.06-0.39,0.13-0.59,0.19c-0.61,0.19-1.22,0.37-1.84,0.52c-0.03,0.01-0.05,0.02-0.08,0.03   c-0.57,0.14-1.14,0.26-1.71,0.37v-70.14c0.57,0.11,1.14,0.23,1.71,0.37c0.03,0.01,0.06,0.02,0.09,0.03   c0.61,0.15,1.22,0.33,1.82,0.52c0.21,0.06,0.41,0.13,0.61,0.2c0.43,0.14,0.86,0.29,1.29,0.45c0.22,0.08,0.44,0.17,0.66,0.25   c0.42,0.17,0.84,0.35,1.25,0.53c0.2,0.09,0.4,0.17,0.6,0.26c0.57,0.27,1.13,0.54,1.69,0.84c0.07,0.03,0.13,0.07,0.2,0.1   c0.53,0.29,1.05,0.59,1.57,0.9c0.2,0.12,0.39,0.25,0.59,0.37c0.36,0.23,0.72,0.47,1.08,0.71c0.21,0.15,0.42,0.29,0.63,0.44   c0.35,0.25,0.69,0.51,1.03,0.77c0.19,0.15,0.38,0.29,0.57,0.44c0.45,0.36,0.9,0.74,1.34,1.13c0.1,0.09,0.2,0.18,0.3,0.28   c0.44,0.39,0.86,0.8,1.28,1.21c0.17,0.17,0.33,0.35,0.5,0.52c0.3,0.32,0.59,0.63,0.88,0.96c0.18,0.19,0.35,0.38,0.51,0.58   c0.29,0.34,0.57,0.68,0.85,1.03c0.14,0.19,0.29,0.36,0.43,0.55c0.39,0.52,0.78,1.04,1.14,1.59c0.02,0.02,0.03,0.04,0.04,0.06   C412.48,268.99,414.59,275.9,414.59,283.08z"/>
<path class="st2" d="M128.42,363H108v-36.99c0.72,0.42,1.45,0.82,2.19,1.21c0.23,0.11,0.46,0.22,0.69,0.33   c0.52,0.27,1.05,0.53,1.58,0.78c0.3,0.13,0.6,0.25,0.89,0.38c0.48,0.21,0.96,0.42,1.44,0.61c0.33,0.13,0.65,0.25,0.98,0.37   c0.46,0.17,0.93,0.34,1.4,0.5c0.34,0.12,0.69,0.23,1.03,0.34c0.46,0.14,0.93,0.29,1.4,0.42c0.35,0.1,0.7,0.19,1.06,0.28   c0.46,0.13,0.93,0.24,1.4,0.35c0.36,0.08,0.72,0.16,1.08,0.24c0.48,0.09,0.95,0.18,1.43,0.27c0.36,0.06,0.72,0.12,1.09,0.18   c0.17,0.02,0.34,0.06,0.52,0.09v6.51c0,1.25,0.02,2.5,0.06,3.74c0.01,0.36,0.02,0.72,0.04,1.08c0.03,0.96,0.08,1.91,0.13,2.87   c0.02,0.32,0.04,0.65,0.06,0.97c0.08,1.23,0.18,2.46,0.29,3.69c0.02,0.23,0.05,0.45,0.07,0.68c0.11,1.02,0.22,2.03,0.35,3.05   c0.04,0.37,0.09,0.75,0.14,1.12c0.13,0.99,0.27,1.97,0.43,2.96c0.03,0.25,0.07,0.51,0.11,0.76   C128.03,360.86,128.22,361.93,128.42,363z"/>
<path class="st3" d="M204.82,322.8c0.1,0.04,0.25,0.08,0.4,0.13l0.41,0.12c0.26,0.09,0.52,0.17,0.78,0.24   c0.12,0.03,0.3,0.06,0.47,0.1l0.41,0.09c0.26,0.05,0.56,0.1,0.88,0.16c0.27,0.03,0.55,0.06,0.82,0.09c0.3,0.04,0.61,0.05,0.91,0.07   h0.12c0.55,0.04,1.14,0.01,1.7-0.01l0.28-0.02c0.1,0,0.21-0.01,0.31-0.02c0.36-0.03,0.71-0.08,1.07-0.14   c0.14-0.02,0.28-0.04,0.43-0.06l0.11-0.02c0.02-0.01,0.05-0.01,0.08-0.02c0.4-0.08,0.78-0.17,1.17-0.27   c0.15-0.05,0.31-0.09,0.46-0.12c-0.02,0.01-0.05,0.02-0.08,0.03c0.06-0.02,0.12-0.04,0.18-0.05c0.45-0.14,0.92-0.29,1.39-0.47   c0.07-0.04,0.14-0.07,0.21-0.1c0.46-0.18,0.95-0.41,1.47-0.68c0.01-0.01,0.03-0.01,0.04-0.02l0.31-0.18   c0.05-0.03,0.11-0.07,0.17-0.1c0.38-0.2,0.72-0.4,1.01-0.59l0.48-0.34c0.32-0.23,0.63-0.46,0.95-0.7l0.43-0.38   c0.24-0.21,0.48-0.41,0.71-0.64c0.03-0.03,0.07-0.07,0.1-0.1c0.14-0.13,0.27-0.26,0.4-0.4c0.04-0.05,0.08-0.09,0.13-0.13   c0.2-0.21,0.39-0.43,0.57-0.65c0.2-0.23,0.36-0.43,0.51-0.62c0.2-0.27,0.4-0.55,0.59-0.83l0.11-0.15c0.11-0.16,0.22-0.32,0.32-0.49   c0.14-0.23,0.29-0.51,0.44-0.79c0.02-0.04,0.06-0.1,0.08-0.15l0.07-0.12c0.07-0.13,0.15-0.26,0.22-0.39   c0.07-0.16,0.16-0.32,0.24-0.48c9.48-19.93,12.25-36.01,8-46.52c-1.76-4.36-5.11-7.77-9.43-9.6c-4.32-1.84-9.1-1.88-13.46-0.12   c-5.01,2.02-8.76,6.18-10.28,11.4c-0.6,2.06-2.11,3.74-4.09,4.54c-1.99,0.8-4.24,0.65-6.1-0.41c-4.74-2.71-10.33-3.1-15.34-1.07   c-0.22,0.09-0.42,0.17-0.61,0.27c-0.05,0.02-0.1,0.04-0.15,0.06c-8.54,3.92-12.48,13.82-8.96,22.55c1.27,3.16,3.35,6.26,6.18,9.22   c6.64,6.97,17.37,13.26,31.91,18.72C204.5,322.69,204.66,322.74,204.82,322.8z"/>
<path class="st2" d="M414.59,213.93c-0.1,0.02-0.21,0.02-0.31,0.02c-0.06,0-0.13-0.01-0.19-0.01c-3.78-0.1-6.81-3.18-6.81-6.99   c0-5.41-0.29-10.81-0.86-16.06c-3.08-28.96-14.5-56.19-33.01-78.76c-0.03-0.04-0.06-0.07-0.09-0.11c-0.04-0.05-0.09-0.11-0.13-0.16   c-3.08-3.73-6.36-7.34-9.74-10.72c-3.82-3.82-7.86-7.45-12-10.77c-26.84-21.63-59.27-33.06-93.81-33.06   c-34.36,0-66.66,11.32-93.42,32.73c-8.11,6.49-15.57,13.85-22.19,21.9c-1.16,1.41-2.26,2.8-3.28,4.14   c-17.16,22.4-27.57,49.04-30.12,77.07c-0.42,4.53-0.63,9.17-0.63,13.8v33.2c0.72-0.42,1.45-0.82,2.19-1.21   c0.23-0.12,0.47-0.22,0.7-0.34c0.52-0.26,1.04-0.52,1.57-0.77c0.3-0.13,0.6-0.25,0.9-0.38c0.47-0.21,0.95-0.42,1.43-0.61   c0.33-0.13,0.65-0.25,0.98-0.37c0.46-0.17,0.93-0.34,1.4-0.5c0.34-0.12,0.68-0.23,1.03-0.34c0.46-0.14,0.93-0.29,1.4-0.42   c0.35-0.1,0.7-0.19,1.05-0.28c0.47-0.13,0.94-0.24,1.42-0.35c0.35-0.08,0.71-0.16,1.07-0.23c0.48-0.1,0.95-0.19,1.43-0.28   c0.36-0.06,0.72-0.12,1.09-0.18c0.17-0.02,0.34-0.06,0.52-0.09v-25.92c0-0.55,0.07-1.1,0.19-1.62c0.38-1.58,1.3-3,2.63-3.99   c0.44-0.33,0.91-0.6,1.41-0.82c1.24-0.53,2.62-0.7,3.96-0.47c0.27,0.05,0.54,0.11,0.81,0.19c10.91,3.25,22.55,4.89,34.6,4.89   c35.07,0,67.29-14.75,80.17-36.7c1.26-2.14,3.56-3.46,6.04-3.46s4.78,1.31,6.04,3.45c12.89,21.96,45.12,36.71,80.18,36.71   c12.06,0,23.7-1.64,34.61-4.89c0.8-0.24,1.62-0.33,2.42-0.28c1.35,0.09,2.66,0.55,3.76,1.38c1.33,0.99,2.25,2.41,2.63,3.99   c0.12,0.52,0.19,1.07,0.19,1.62v25.92c0.49,0.07,0.98,0.17,1.47,0.25c0.29,0.05,0.59,0.09,0.88,0.15c0.93,0.18,1.86,0.38,2.78,0.61   c0.02,0,0.03,0.01,0.05,0.01c0.9,0.23,1.79,0.48,2.67,0.76c0.29,0.09,0.58,0.19,0.88,0.29c0.6,0.2,1.2,0.41,1.79,0.63   c0.34,0.13,0.67,0.26,1,0.4c0.55,0.22,1.09,0.44,1.63,0.68c0.34,0.15,0.68,0.3,1.01,0.46c0.53,0.25,1.06,0.51,1.58,0.78   c0.32,0.17,0.64,0.33,0.96,0.5c0.55,0.3,1.1,0.62,1.65,0.94c0.26,0.16,0.53,0.31,0.79,0.47c0.8,0.49,1.59,1,2.36,1.54   c0.01,0.01,0.03,0.02,0.04,0.03c0.76,0.53,1.49,1.09,2.22,1.66c0.24,0.19,0.47,0.39,0.71,0.58c0.5,0.41,0.99,0.81,1.47,1.24   c0.26,0.24,0.53,0.48,0.79,0.73c0.44,0.4,0.87,0.81,1.29,1.23c0.09,0.08,0.17,0.17,0.25,0.25c0.17,0.17,0.33,0.33,0.5,0.5   c0.01,0.01,0.03,0.03,0.04,0.04c0.15,0.17,0.31,0.33,0.46,0.5v-35.14C414.92,213.9,414.76,213.92,414.59,213.93z M194.68,112.32   c-2.71,1.81-5.4,3.78-7.98,5.85c-6.16,4.92-11.82,10.5-16.82,16.57c-1.38,1.68-3.38,2.55-5.4,2.55c-1.57,0-3.15-0.52-4.45-1.6   c-2.98-2.45-3.41-6.86-0.95-9.85c5.61-6.82,11.96-13.08,18.88-18.61c2.88-2.31,5.89-4.51,8.93-6.55c3.21-2.15,7.56-1.29,9.71,1.92   C198.75,105.82,197.89,110.16,194.68,112.32z M217.28,100.63l-0.68,0.26c-0.83,0.32-1.69,0.48-2.53,0.48c-2.8,0-5.45-1.7-6.53-4.48   c-1.39-3.6,0.4-7.66,4-9.05l0.76-0.3c3.62-1.37,7.66,0.45,9.03,4.06C222.71,95.21,220.89,99.26,217.28,100.63z"/>
<path class="st3" d="M336.8,272.15c-0.29-0.13-0.5-0.23-0.72-0.32c-5.05-2.04-10.63-1.65-15.35,1.06c-1.87,1.06-4.11,1.21-6.1,0.41   s-3.5-2.48-4.1-4.54c-1.52-5.22-5.27-9.38-10.29-11.4c-4.35-1.76-9.13-1.72-13.45,0.12c-4.32,1.83-7.67,5.24-9.43,9.6   c-1.3,3.21-1.94,6.94-1.94,11.13c0,9.56,3.34,21.55,9.93,35.4c0.09,0.15,0.17,0.31,0.24,0.47l0.11,0.19   c0.09,0.16,0.18,0.32,0.26,0.48c0.14,0.26,0.3,0.55,0.47,0.82c0.08,0.13,0.19,0.29,0.3,0.45l0.12,0.17   c0.2,0.29,0.39,0.56,0.58,0.81c0.15,0.19,0.3,0.38,0.46,0.56c0.23,0.28,0.42,0.5,0.62,0.71c0.05,0.04,0.09,0.08,0.13,0.13   c0.13,0.14,0.26,0.27,0.4,0.4c0.03,0.03,0.07,0.07,0.1,0.1c0.23,0.23,0.47,0.43,0.71,0.64c0.19,0.17,0.33,0.3,0.48,0.41   c0.32,0.26,0.64,0.49,0.95,0.71l0.4,0.28c0.35,0.23,0.69,0.43,1.03,0.61c0.19,0.11,0.34,0.2,0.49,0.28   c0.01,0.01,0.02,0.02,0.03,0.02c0.52,0.28,0.99,0.5,1.44,0.67c0.09,0.04,0.17,0.07,0.26,0.11c0.47,0.18,0.93,0.33,1.38,0.47   c0.03,0,0.05,0.01,0.07,0.01c0.2,0.05,0.34,0.09,0.48,0.13c0.38,0.1,0.76,0.19,1.16,0.27c0.03,0,0.07,0.01,0.11,0.02l0.1,0.02   c0.15,0.02,0.29,0.04,0.44,0.07c0.34,0.05,0.69,0.1,1.05,0.13c0.11,0.01,0.22,0.02,0.32,0.02l0.28,0.02   c0.56,0.02,1.13,0.05,1.71,0.01h0.11c0.3-0.02,0.61-0.03,0.92-0.07c0.26-0.03,0.54-0.06,0.81-0.09c0.31-0.06,0.62-0.11,0.93-0.18   l0.35-0.07c0.17-0.04,0.34-0.07,0.52-0.11c0.25-0.06,0.55-0.16,0.85-0.26l0.38-0.12c0.11-0.03,0.22-0.06,0.33-0.1   c0.18-0.07,0.35-0.12,0.49-0.17c14.51-5.45,25.22-11.73,31.84-18.68c2.84-2.97,4.93-6.08,6.21-9.25   C349.3,285.96,345.36,276.05,336.8,272.15z"/>
<path class="st1" d="M126.18,248.01v70.14c-0.12-0.03-0.23-0.05-0.35-0.07c-0.19-0.04-0.37-0.08-0.56-0.12   c-0.4-0.09-0.79-0.19-1.19-0.3c-0.17-0.04-0.34-0.08-0.51-0.13c-0.55-0.15-1.09-0.32-1.63-0.49c-0.03-0.01-0.05-0.02-0.08-0.03   c-0.52-0.17-1.03-0.36-1.53-0.56c-0.17-0.06-0.33-0.13-0.5-0.19c-0.38-0.16-0.75-0.31-1.12-0.48c-0.17-0.07-0.34-0.15-0.51-0.23   c-0.42-0.19-0.85-0.4-1.26-0.61c-0.1-0.05-0.19-0.09-0.28-0.14c-0.51-0.26-1-0.54-1.5-0.83c-0.13-0.07-0.26-0.16-0.39-0.24   c-0.37-0.21-0.73-0.44-1.08-0.67c-0.16-0.1-0.32-0.21-0.47-0.31c-0.36-0.24-0.71-0.49-1.05-0.74c-0.13-0.09-0.25-0.17-0.38-0.26   c-0.45-0.35-0.91-0.7-1.35-1.06c-0.08-0.07-0.17-0.15-0.25-0.22c-0.36-0.3-0.71-0.61-1.06-0.92c-0.14-0.13-0.27-0.25-0.41-0.38   c-0.3-0.29-0.6-0.58-0.9-0.88c-0.12-0.12-0.25-0.24-0.37-0.37c-0.4-0.42-0.8-0.84-1.18-1.28c0,0,0,0-0.01,0   c-2.86-3.26-5.07-6.98-6.57-10.97c-1.49-3.99-2.28-8.25-2.28-12.59c0-8.67,3.14-17.04,8.86-23.56c0.38-0.44,0.78-0.86,1.18-1.28   c0.12-0.13,0.25-0.25,0.37-0.38c0.3-0.29,0.6-0.58,0.9-0.87c0.14-0.12,0.27-0.25,0.41-0.38c0.35-0.31,0.7-0.62,1.06-0.92   c0.08-0.07,0.17-0.15,0.25-0.22c0.45-0.36,0.9-0.71,1.35-1.06c0.13-0.09,0.25-0.17,0.37-0.26c0.35-0.25,0.7-0.5,1.06-0.74   c0.15-0.1,0.31-0.21,0.47-0.31c0.35-0.23,0.71-0.46,1.08-0.67c0.13-0.08,0.26-0.17,0.39-0.24c0.5-0.29,0.99-0.57,1.5-0.83   c0.09-0.05,0.18-0.09,0.27-0.14c0.42-0.21,0.85-0.42,1.27-0.61c0.17-0.08,0.34-0.15,0.5-0.23c0.38-0.17,0.76-0.33,1.14-0.48   c0.16-0.06,0.32-0.13,0.48-0.19c0.52-0.2,1.04-0.39,1.57-0.57c0.01,0,0.03-0.01,0.04-0.01c0.55-0.18,1.1-0.35,1.65-0.5   c0.16-0.05,0.32-0.09,0.49-0.13c0.4-0.11,0.81-0.21,1.22-0.3c0.17-0.04,0.35-0.08,0.52-0.12   C125.94,248.06,126.06,248.04,126.18,248.01z"/>
<path class="st1" d="M342.21,220.06c-29.18,0-56.14-8.89-74.74-23.78c-4.3-3.44-8.15-7.19-11.48-11.23   c-0.55,0.67-1.12,1.34-1.71,1.99c-15.16,17.09-39.86,28.74-67.96,32.05c-5.4,0.64-10.93,0.97-16.54,0.97   c-8.89,0-17.6-0.81-26.01-2.41c-1.2-0.23-2.4-0.48-3.59-0.74v121.96c0,9.96,1.26,19.84,3.75,29.36   c13.3,50.91,59.38,86.46,112.07,86.46c26.79,0,52.92-9.36,73.56-26.35c2.99-2.46,7.4-2.03,9.85,0.95c0.02,0.02,0.03,0.04,0.04,0.06   c0.11,0.13,0.21,0.26,0.31,0.4c0.1,0.14,0.18,0.29,0.27,0.43c0.03-0.02,0.05-0.05,0.08-0.07c1.34-1.3,2.71-2.73,4.09-4.26   c0.02-0.02,0.03-0.04,0.05-0.06c-0.14-0.09-0.29-0.17-0.42-0.28c-0.13-0.1-0.25-0.22-0.37-0.33c-1.39-1.28-2.27-3.11-2.27-5.14   c0-3.87,3.13-7,6.99-7h0.01c1.56,0,3.01,0.51,4.17,1.38c0.13,0.1,0.26,0.2,0.39,0.31s0.24,0.23,0.36,0.35   c0.01-0.02,0.03-0.03,0.04-0.05c2.59-3.39,5.28-7.1,7.99-11.03c0.02-0.02,0.03-0.04,0.05-0.07c-0.15-0.07-0.31-0.13-0.46-0.21   c-0.04-0.02-0.09-0.05-0.13-0.07c-0.1-0.06-0.2-0.12-0.3-0.19c-3.16-1.93-4.29-6.01-2.5-9.3c1.17-2.16,2.27-4.35,3.31-6.58   c0.07-0.26,0.16-0.53,0.28-0.79l0.38-0.88c0.15-0.35,0.33-0.69,0.54-1c2.34-5.41,4.27-10.98,5.76-16.68   c1.84-7.04,3-14.27,3.49-21.59c0.09-1.34,0.16-2.69,0.2-4.04c0.04-1.24,0.06-2.48,0.06-3.73V216.91   C362.3,219,352.37,220.06,342.21,220.06z M162.31,313.59c-4.06-4.25-7.1-8.85-9.04-13.66c-6.31-15.65,0.74-33.42,16.06-40.47   c0.48-0.23,0.96-0.44,1.44-0.63c6.56-2.65,13.68-3,20.35-1.11c3.48-5.99,8.85-10.69,15.43-13.34c7.82-3.16,16.41-3.09,24.17,0.21   c7.77,3.3,13.78,9.43,16.94,17.25c5.85,14.48,3.01,33.99-8.43,57.98c-0.11,0.23-0.22,0.43-0.3,0.58c-0.17,0.33-0.34,0.64-0.52,0.96   l-0.03,0.05c-0.28,0.52-0.55,1.02-0.85,1.5c-0.23,0.37-0.44,0.68-0.65,1l-0.13,0.18c-0.03,0.04-0.05,0.07-0.07,0.11   c-0.32,0.45-0.62,0.86-0.92,1.27c-0.03,0.04-0.07,0.09-0.1,0.13c-0.28,0.35-0.56,0.7-0.85,1.04c-0.37,0.44-0.77,0.89-1.17,1.31   c-0.3,0.32-0.59,0.61-0.89,0.9c-0.51,0.51-0.99,0.93-1.4,1.29c-0.03,0.02-0.07,0.05-0.1,0.08l-0.19,0.16   c-0.21,0.19-0.43,0.37-0.65,0.55c-0.56,0.43-1.06,0.8-1.6,1.17l-0.15,0.12c-0.24,0.16-0.47,0.33-0.71,0.48   c-0.59,0.39-1.19,0.74-1.86,1.11l-0.03,0.01c-0.25,0.15-0.51,0.3-0.77,0.43c-0.84,0.45-1.68,0.84-2.5,1.18   c-0.1,0.05-0.2,0.09-0.29,0.13c-0.94,0.37-1.89,0.69-2.82,0.96c-0.26,0.09-0.53,0.15-0.8,0.22c-0.74,0.2-1.42,0.36-2.12,0.5   c-0.28,0.06-0.57,0.1-0.87,0.15l-0.14,0.02c-0.03,0.01-0.11,0.02-0.14,0.03c-0.65,0.1-1.29,0.18-1.94,0.25   c-0.31,0.03-0.62,0.05-0.93,0.06l-0.23,0.02h-0.16c-0.57,0.03-1.16,0.05-1.74,0.05c-0.46,0-0.92-0.01-1.37-0.04   c-0.59-0.03-1.19-0.07-1.78-0.13c-0.44-0.05-0.86-0.1-1.28-0.16c-0.05,0-0.09-0.01-0.14-0.02c-0.54-0.08-1.08-0.18-1.63-0.29   l-0.37-0.08c-0.33-0.07-0.65-0.14-0.98-0.22c-0.6-0.15-1.14-0.32-1.69-0.49l-0.19-0.06c-0.34-0.1-0.66-0.2-0.99-0.32   c-0.17-0.05-0.37-0.11-0.6-0.2C182.98,329.59,170.43,322.12,162.31,313.59z M334.05,392.86c-17.69,25.54-46.72,40.79-77.68,40.79   c-31.62,0-61.01-15.77-78.61-42.18c-2.14-3.22-1.27-7.56,1.94-9.71c3.22-2.14,7.57-1.27,9.71,1.95   c15,22.51,40.03,35.94,66.96,35.94c26.36,0,51.1-12.99,66.16-34.76c2.2-3.18,6.57-3.97,9.74-1.77   C335.45,385.32,336.25,389.68,334.05,392.86z M358.75,299.94c-1.95,4.82-5,9.42-9.06,13.68c-8.14,8.53-20.69,16.01-37.31,22.22   c-0.16,0.06-0.33,0.11-0.5,0.16c-0.3,0.11-0.61,0.2-0.91,0.3l-0.23,0.07c-0.56,0.17-1.14,0.35-1.72,0.5   c-0.38,0.09-0.71,0.16-1.03,0.23l-0.31,0.06c-0.61,0.13-1.14,0.23-1.68,0.31c-0.05,0.01-0.09,0.02-0.14,0.02   c-0.42,0.06-0.84,0.11-1.27,0.16c-0.6,0.06-1.2,0.1-1.79,0.13c-0.46,0.03-0.91,0.04-1.37,0.04c-0.59,0-1.17-0.02-1.74-0.05h-0.16   l-0.23-0.02c-0.31-0.01-0.62-0.03-0.93-0.06c-0.65-0.07-1.3-0.15-1.95-0.25c-0.06-0.02-0.13-0.03-0.19-0.04l-0.11-0.02   c-0.28-0.04-0.56-0.08-0.83-0.14c-0.7-0.14-1.39-0.3-2.11-0.5c-0.31-0.07-0.56-0.14-0.82-0.22c-0.87-0.25-1.75-0.55-2.63-0.89   c-0.17-0.06-0.34-0.13-0.51-0.21c-0.82-0.33-1.63-0.72-2.48-1.17c-0.24-0.12-0.47-0.25-0.7-0.39c-0.63-0.34-1.27-0.72-1.89-1.12   c-0.28-0.17-0.54-0.35-0.8-0.54l-0.13-0.1c-0.59-0.42-1.11-0.79-1.61-1.19c-0.29-0.23-0.61-0.5-0.91-0.77   c-0.42-0.36-0.9-0.78-1.41-1.29c-0.3-0.29-0.59-0.58-0.89-0.9c-0.4-0.42-0.8-0.87-1.22-1.37c-0.24-0.28-0.52-0.63-0.8-0.98   c-0.03-0.04-0.07-0.09-0.1-0.13c-0.3-0.41-0.6-0.82-0.9-1.24c-0.02-0.04-0.06-0.1-0.09-0.14l-0.12-0.18   c-0.22-0.32-0.43-0.63-0.64-0.96c-0.33-0.55-0.63-1.08-0.92-1.61l-0.13-0.23c-0.14-0.25-0.27-0.51-0.41-0.77v-0.01   c-0.09-0.15-0.17-0.31-0.25-0.46c-11.46-24.01-14.3-43.53-8.44-58.03c3.16-7.82,9.17-13.95,16.93-17.25   c7.77-3.3,16.36-3.37,24.18-0.21c6.58,2.66,11.95,7.35,15.43,13.34c6.67-1.89,13.79-1.54,20.37,1.12c0.45,0.18,0.92,0.38,1.38,0.6   C358.01,266.43,365.1,284.24,358.75,299.94z"/>
<path class="st2" d="M407.28,323.92V363h-23.7c0.2-1.07,0.39-2.14,0.56-3.21c0.04-0.25,0.07-0.5,0.11-0.74   c0.16-1,0.3-1.99,0.43-2.99c0.05-0.37,0.1-0.73,0.14-1.1c0.13-1.02,0.24-2.05,0.35-3.07c0.02-0.22,0.05-0.45,0.07-0.67   c0.11-1.23,0.21-2.46,0.29-3.7c0.02-0.31,0.04-0.63,0.06-0.95c0.05-0.96,0.1-1.92,0.13-2.88c0.02-0.36,0.03-0.72,0.04-1.08   c0.04-1.24,0.06-2.49,0.06-3.74v-6.51c0.39-0.06,0.78-0.14,1.17-0.2c0.45-0.08,0.9-0.15,1.35-0.24c0.53-0.1,1.05-0.22,1.58-0.34   c0.44-0.1,0.89-0.2,1.33-0.31c0.52-0.14,1.04-0.29,1.55-0.44c0.44-0.13,0.87-0.25,1.3-0.39c0.52-0.16,1.03-0.35,1.53-0.53   c0.43-0.15,0.85-0.3,1.27-0.46c0.51-0.2,1.01-0.42,1.51-0.63c0.4-0.18,0.81-0.34,1.21-0.52c0.51-0.24,1.01-0.5,1.52-0.75   c0.37-0.19,0.76-0.37,1.13-0.57c0.54-0.28,1.06-0.59,1.58-0.9c0.33-0.19,0.66-0.37,0.99-0.57   C405.67,325.01,406.48,324.47,407.28,323.92z"/>
<path class="st6" d="M334.05,392.86c-17.69,25.54-46.72,40.79-77.68,40.79c-31.62,0-61.01-15.77-78.61-42.18   c-2.14-3.22-1.27-7.56,1.94-9.71c3.22-2.14,7.57-1.27,9.71,1.95c15,22.51,40.03,35.94,66.96,35.94c26.36,0,51.1-12.99,66.16-34.76   c2.2-3.18,6.57-3.97,9.74-1.77C335.45,385.32,336.25,389.68,334.05,392.86z"/>
<path class="st6" d="M217.28,100.63l-0.68,0.26c-0.83,0.32-1.69,0.48-2.53,0.48c-2.8,0-5.45-1.7-6.53-4.48   c-1.39-3.6,0.4-7.66,4-9.05l0.76-0.3c3.62-1.37,7.66,0.45,9.03,4.06C222.71,95.21,220.89,99.26,217.28,100.63z"/>
<path class="st6" d="M194.68,112.32c-2.71,1.81-5.4,3.78-7.98,5.85c-6.16,4.92-11.82,10.5-16.82,16.57   c-1.38,1.68-3.38,2.55-5.4,2.55c-1.57,0-3.15-0.52-4.45-1.6c-2.98-2.45-3.41-6.86-0.95-9.85c5.61-6.82,11.96-13.08,18.88-18.61   c2.88-2.31,5.89-4.51,8.93-6.55c3.21-2.15,7.56-1.29,9.71,1.92C198.75,105.82,197.89,110.16,194.68,112.32z"/>
<path class="st6" d="M420.08,255.25c-0.54-0.8-1.11-1.58-1.69-2.35c-0.19-0.24-0.39-0.48-0.58-0.72c-0.41-0.51-0.82-1.02-1.24-1.51   c-0.24-0.28-0.48-0.55-0.72-0.82c-0.25-0.27-0.51-0.55-0.76-0.82c-0.15-0.17-0.31-0.33-0.46-0.5c-0.01-0.01-0.03-0.03-0.04-0.04   c-0.17-0.17-0.33-0.33-0.5-0.5c-0.08-0.08-0.16-0.17-0.25-0.25c-0.42-0.42-0.85-0.83-1.29-1.23c-0.26-0.25-0.53-0.49-0.79-0.73   c-0.48-0.43-0.97-0.83-1.47-1.24c-0.24-0.19-0.47-0.39-0.71-0.58c-0.73-0.57-1.46-1.13-2.22-1.66c-0.01-0.01-0.03-0.02-0.04-0.03   c-0.77-0.54-1.56-1.05-2.36-1.54c-0.26-0.16-0.53-0.31-0.79-0.47c-0.55-0.32-1.1-0.64-1.65-0.94c-0.32-0.17-0.64-0.33-0.96-0.5   c-0.52-0.27-1.05-0.53-1.58-0.78c-0.33-0.16-0.67-0.31-1.01-0.46c-0.54-0.24-1.08-0.46-1.63-0.68c-0.33-0.14-0.66-0.27-1-0.4   c-0.59-0.22-1.19-0.43-1.79-0.63c-0.3-0.1-0.59-0.2-0.88-0.29c-0.88-0.28-1.77-0.53-2.67-0.76c-0.02,0-0.03-0.01-0.05-0.01   c-0.92-0.23-1.85-0.43-2.78-0.61c-0.29-0.06-0.59-0.1-0.88-0.15c-0.49-0.08-0.98-0.18-1.47-0.25v-25.92c0-0.55-0.07-1.1-0.19-1.62   c-0.38-1.58-1.3-3-2.63-3.99c-1.1-0.83-2.41-1.29-3.76-1.38c-0.8-0.05-1.62,0.04-2.42,0.28c-10.91,3.25-22.55,4.89-34.61,4.89   c-35.06,0-67.29-14.75-80.18-36.71c-1.26-2.14-3.56-3.45-6.04-3.45s-4.78,1.32-6.04,3.46c-12.88,21.95-45.1,36.7-80.17,36.7   c-12.05,0-23.69-1.64-34.6-4.89c-0.27-0.08-0.54-0.14-0.81-0.19c-1.34-0.23-2.72-0.06-3.96,0.47c-0.5,0.22-0.97,0.49-1.41,0.82   c-1.33,0.99-2.25,2.41-2.63,3.99c-0.12,0.52-0.19,1.07-0.19,1.62v25.92c-0.18,0.03-0.35,0.07-0.52,0.09   c-0.37,0.06-0.73,0.12-1.09,0.18c-0.48,0.09-0.95,0.18-1.43,0.28c-0.36,0.07-0.72,0.15-1.07,0.23c-0.48,0.11-0.95,0.22-1.42,0.35   c-0.35,0.09-0.7,0.18-1.05,0.28c-0.47,0.13-0.94,0.28-1.4,0.42c-0.35,0.11-0.69,0.22-1.03,0.34c-0.47,0.16-0.94,0.33-1.4,0.5   c-0.33,0.12-0.65,0.24-0.98,0.37c-0.48,0.19-0.96,0.4-1.43,0.61c-0.3,0.13-0.6,0.25-0.9,0.38c-0.53,0.25-1.05,0.51-1.57,0.77   c-0.23,0.12-0.47,0.22-0.7,0.34c-0.74,0.39-1.47,0.79-2.19,1.21v-33.2c0-4.63,0.21-9.27,0.63-13.8   c2.55-28.03,12.96-54.67,30.12-77.07c1.02-1.34,2.12-2.73,3.28-4.14c6.62-8.05,14.08-15.41,22.19-21.9   c26.76-21.41,59.06-32.73,93.42-32.73c34.54,0,66.97,11.43,93.81,33.06c4.14,3.32,8.18,6.95,12,10.77   c3.38,3.38,6.66,6.99,9.74,10.72c0.04,0.05,0.09,0.11,0.13,0.16c0.03,0.04,0.06,0.07,0.09,0.11c18.51,22.57,29.93,49.8,33.01,78.76   c0.57,5.25,0.86,10.65,0.86,16.06c0,3.81,3.03,6.89,6.81,6.99c0.06,0,0.13,0.01,0.19,0.01c0.1,0,0.21,0,0.31-0.02   c0.17-0.01,0.33-0.03,0.5-0.04c3.49-0.4,6.19-3.34,6.19-6.94c0-5.91-0.32-11.82-0.94-17.56c-3.32-31.25-15.54-60.65-35.32-85.15   c-0.44-0.84-1.05-1.58-1.78-2.18c-3.15-3.75-6.46-7.39-9.89-10.82c-4.18-4.18-8.59-8.14-13.12-11.78   c-28.93-23.31-65.36-36.15-102.59-36.15c-37.03,0-73.32,12.72-102.16,35.8c-8.86,7.09-17.03,15.14-24.28,23.95   c-1.26,1.54-2.47,3.07-3.58,4.52c-18.75,24.48-30.14,53.63-32.93,84.29c-0.46,4.95-0.69,10.02-0.69,15.08v45.45   c-6.84,8.74-10.59,19.52-10.59,30.68c0,11.16,3.75,21.95,10.59,30.68V370c0,3.87,3.13,7,7,7h30.87   c16.62,54.26,66.9,91.69,124.13,91.69c30.03,0,59.32-10.49,82.46-29.54c2.7-2.23,3.3-6.04,1.57-8.97   c-0.09-0.14-0.17-0.29-0.27-0.43c-0.1-0.14-0.2-0.27-0.31-0.4c-0.01-0.02-0.02-0.04-0.04-0.06c-2.45-2.98-6.86-3.41-9.85-0.95   c-20.64,16.99-46.77,26.35-73.56,26.35c-52.69,0-98.77-35.55-112.07-86.46c-2.49-9.52-3.75-19.4-3.75-29.36V216.91   c1.19,0.26,2.39,0.51,3.59,0.74c8.41,1.6,17.12,2.41,26.01,2.41c5.61,0,11.14-0.33,16.54-0.97c28.1-3.31,52.8-14.96,67.96-32.05   c0.59-0.65,1.16-1.32,1.71-1.99c3.33,4.04,7.18,7.79,11.48,11.23c18.6,14.89,45.56,23.78,74.74,23.78   c10.16,0,20.09-1.06,29.61-3.15v121.96c0,1.25-0.02,2.49-0.06,3.73c-0.04,1.35-0.11,2.7-0.2,4.04c-0.49,7.32-1.65,14.55-3.49,21.59   c-1.49,5.7-3.42,11.27-5.76,16.68c-0.21,0.31-0.39,0.65-0.54,1l-0.38,0.88c-0.12,0.26-0.21,0.53-0.28,0.79   c-1.04,2.23-2.14,4.42-3.31,6.58c-1.79,3.29-0.66,7.37,2.5,9.3c0.1,0.07,0.2,0.13,0.3,0.19c0.04,0.02,0.09,0.05,0.13,0.07   c0.15,0.08,0.31,0.14,0.46,0.21c3.29,1.42,7.16,0.13,8.91-3.08c4.13-7.59,7.48-15.6,10.01-23.85h34.17c3.87,0,7-3.13,7-7v-60.96   c4.79-7.8,7.31-16.72,7.31-25.96C428.59,273.09,425.65,263.47,420.08,255.25z M107.45,307.92c-0.4-0.42-0.8-0.84-1.18-1.28   c0,0,0,0-0.01,0c-2.86-3.26-5.07-6.98-6.57-10.97c-1.49-3.99-2.28-8.25-2.28-12.59c0-8.67,3.14-17.04,8.86-23.56   c0.38-0.44,0.78-0.86,1.18-1.28c0.12-0.13,0.25-0.25,0.37-0.38c0.3-0.29,0.6-0.58,0.9-0.87c0.14-0.12,0.27-0.25,0.41-0.38   c0.35-0.31,0.7-0.62,1.06-0.92c0.08-0.07,0.17-0.15,0.25-0.22c0.45-0.36,0.9-0.71,1.35-1.06c0.13-0.09,0.25-0.17,0.37-0.26   c0.35-0.25,0.7-0.5,1.06-0.74c0.15-0.1,0.31-0.21,0.47-0.31c0.35-0.23,0.71-0.46,1.08-0.67c0.13-0.08,0.26-0.17,0.39-0.24   c0.5-0.29,0.99-0.57,1.5-0.83c0.09-0.05,0.18-0.09,0.27-0.14c0.42-0.21,0.85-0.42,1.27-0.61c0.17-0.08,0.34-0.15,0.5-0.23   c0.38-0.17,0.76-0.33,1.14-0.48c0.16-0.06,0.32-0.13,0.48-0.19c0.52-0.2,1.04-0.39,1.57-0.57c0.01,0,0.03-0.01,0.04-0.01   c0.55-0.18,1.1-0.35,1.65-0.5c0.16-0.05,0.32-0.09,0.49-0.13c0.4-0.11,0.81-0.21,1.22-0.3c0.17-0.04,0.35-0.08,0.52-0.12   c0.13-0.02,0.25-0.04,0.37-0.07v70.14c-0.12-0.03-0.23-0.05-0.35-0.07c-0.19-0.04-0.37-0.08-0.56-0.12   c-0.4-0.09-0.79-0.19-1.19-0.3c-0.17-0.04-0.34-0.08-0.51-0.13c-0.55-0.15-1.09-0.32-1.63-0.49c-0.03-0.01-0.05-0.02-0.08-0.03   c-0.52-0.17-1.03-0.36-1.53-0.56c-0.17-0.06-0.33-0.13-0.5-0.19c-0.38-0.16-0.75-0.31-1.12-0.48c-0.17-0.07-0.34-0.15-0.51-0.23   c-0.42-0.19-0.85-0.4-1.26-0.61c-0.1-0.05-0.19-0.09-0.28-0.14c-0.51-0.26-1-0.54-1.5-0.83c-0.13-0.07-0.26-0.16-0.39-0.24   c-0.37-0.21-0.73-0.44-1.08-0.67c-0.16-0.1-0.32-0.21-0.47-0.31c-0.36-0.24-0.71-0.49-1.05-0.74c-0.13-0.09-0.25-0.17-0.38-0.26   c-0.45-0.35-0.91-0.7-1.35-1.06c-0.08-0.07-0.17-0.15-0.25-0.22c-0.36-0.3-0.71-0.61-1.06-0.92c-0.14-0.13-0.27-0.25-0.41-0.38   c-0.3-0.29-0.6-0.58-0.9-0.88C107.7,308.17,107.57,308.05,107.45,307.92z M108,363v-36.99c0.72,0.42,1.45,0.82,2.19,1.21   c0.23,0.11,0.46,0.22,0.69,0.33c0.52,0.27,1.05,0.53,1.58,0.78c0.3,0.13,0.6,0.25,0.89,0.38c0.48,0.21,0.96,0.42,1.44,0.61   c0.33,0.13,0.65,0.25,0.98,0.37c0.46,0.17,0.93,0.34,1.4,0.5c0.34,0.12,0.69,0.23,1.03,0.34c0.46,0.14,0.93,0.29,1.4,0.42   c0.35,0.1,0.7,0.19,1.06,0.28c0.46,0.13,0.93,0.24,1.4,0.35c0.36,0.08,0.72,0.16,1.08,0.24c0.48,0.09,0.95,0.18,1.43,0.27   c0.36,0.06,0.72,0.12,1.09,0.18c0.17,0.02,0.34,0.06,0.52,0.09v6.51c0,1.25,0.02,2.5,0.06,3.74c0.01,0.36,0.02,0.72,0.04,1.08   c0.03,0.96,0.08,1.91,0.13,2.87c0.02,0.32,0.04,0.65,0.06,0.97c0.08,1.23,0.18,2.46,0.29,3.69c0.02,0.23,0.05,0.45,0.07,0.68   c0.11,1.02,0.22,2.03,0.35,3.05c0.04,0.37,0.09,0.75,0.14,1.12c0.13,0.99,0.27,1.97,0.43,2.96c0.03,0.25,0.07,0.51,0.11,0.76   c0.17,1.07,0.36,2.14,0.56,3.21H108z M407.28,363h-23.7c0.2-1.07,0.39-2.14,0.56-3.21c0.04-0.25,0.07-0.5,0.11-0.74   c0.16-1,0.3-1.99,0.43-2.99c0.05-0.37,0.1-0.73,0.14-1.1c0.13-1.02,0.24-2.05,0.35-3.07c0.02-0.22,0.05-0.45,0.07-0.67   c0.11-1.23,0.21-2.46,0.29-3.7c0.02-0.31,0.04-0.63,0.06-0.95c0.05-0.96,0.1-1.92,0.13-2.88c0.02-0.36,0.03-0.72,0.04-1.08   c0.04-1.24,0.06-2.49,0.06-3.74v-6.51c0.39-0.06,0.78-0.14,1.17-0.2c0.45-0.08,0.9-0.15,1.35-0.24c0.53-0.1,1.05-0.22,1.58-0.34   c0.44-0.1,0.89-0.2,1.33-0.31c0.52-0.14,1.04-0.29,1.55-0.44c0.44-0.13,0.87-0.25,1.3-0.39c0.52-0.16,1.03-0.35,1.53-0.53   c0.43-0.15,0.85-0.3,1.27-0.46c0.51-0.2,1.01-0.42,1.51-0.63c0.4-0.18,0.81-0.34,1.21-0.52c0.51-0.24,1.01-0.5,1.52-0.75   c0.37-0.19,0.76-0.37,1.13-0.57c0.54-0.28,1.06-0.59,1.58-0.9c0.33-0.19,0.66-0.37,0.99-0.57c0.83-0.5,1.64-1.04,2.44-1.59V363z    M408.48,303.07c-0.38,0.57-0.78,1.12-1.19,1.66c-0.13,0.16-0.26,0.33-0.39,0.49c-0.3,0.37-0.6,0.74-0.9,1.1   c-0.15,0.18-0.31,0.35-0.46,0.53c-0.31,0.35-0.64,0.69-0.96,1.03c-0.14,0.15-0.28,0.3-0.43,0.45c-0.94,0.94-1.94,1.83-2.97,2.67   c-0.16,0.12-0.32,0.24-0.48,0.36c-0.37,0.29-0.74,0.57-1.13,0.85c-0.18,0.13-0.37,0.26-0.55,0.38c-0.39,0.27-0.78,0.52-1.18,0.77   c-0.17,0.11-0.34,0.22-0.51,0.32c-0.56,0.35-1.13,0.68-1.71,0.99c-0.01,0-0.01,0-0.01,0c-0.58,0.31-1.18,0.6-1.78,0.88   c-0.18,0.08-0.36,0.16-0.55,0.24c-0.42,0.19-0.86,0.37-1.29,0.54c-0.21,0.09-0.43,0.17-0.64,0.25c-0.43,0.16-0.87,0.31-1.31,0.46   c-0.2,0.06-0.39,0.13-0.59,0.19c-0.61,0.19-1.22,0.37-1.84,0.52c-0.03,0.01-0.05,0.02-0.08,0.03c-0.57,0.14-1.14,0.26-1.71,0.37   v-70.14c0.57,0.11,1.14,0.23,1.71,0.37c0.03,0.01,0.06,0.02,0.09,0.03c0.61,0.15,1.22,0.33,1.82,0.52c0.21,0.06,0.41,0.13,0.61,0.2   c0.43,0.14,0.86,0.29,1.29,0.45c0.22,0.08,0.44,0.17,0.66,0.25c0.42,0.17,0.84,0.35,1.25,0.53c0.2,0.09,0.4,0.17,0.6,0.26   c0.57,0.27,1.13,0.54,1.69,0.84c0.07,0.03,0.13,0.07,0.2,0.1c0.53,0.29,1.05,0.59,1.57,0.9c0.2,0.12,0.39,0.25,0.59,0.37   c0.36,0.23,0.72,0.47,1.08,0.71c0.21,0.15,0.42,0.29,0.63,0.44c0.35,0.25,0.69,0.51,1.03,0.77c0.19,0.15,0.38,0.29,0.57,0.44   c0.45,0.36,0.9,0.74,1.34,1.13c0.1,0.09,0.2,0.18,0.3,0.28c0.44,0.39,0.86,0.8,1.28,1.21c0.17,0.17,0.33,0.35,0.5,0.52   c0.3,0.32,0.59,0.63,0.88,0.96c0.18,0.19,0.35,0.38,0.51,0.58c0.29,0.34,0.57,0.68,0.85,1.03c0.14,0.19,0.29,0.36,0.43,0.55   c0.39,0.52,0.78,1.04,1.14,1.59c0.02,0.02,0.03,0.04,0.04,0.06c4,5.89,6.11,12.8,6.11,19.98   C414.59,290.26,412.48,297.17,408.48,303.07z"/>
<path class="st6" d="M355.19,420.04c0,3.86-3.13,7-7,7c-1.47,0-2.82-0.47-3.94-1.25c-0.14-0.09-0.29-0.17-0.42-0.28   c-0.13-0.1-0.25-0.22-0.37-0.33c-1.39-1.28-2.27-3.11-2.27-5.14c0-3.87,3.13-7,6.99-7h0.01c1.56,0,3.01,0.51,4.17,1.38   c0.13,0.1,0.26,0.2,0.39,0.31s0.24,0.23,0.36,0.35C354.39,416.34,355.19,418.09,355.19,420.04z"/>
<path class="st6" d="M247.66,261.84c-3.16-7.82-9.17-13.95-16.94-17.25c-7.76-3.3-16.35-3.37-24.17-0.21   c-6.58,2.65-11.95,7.35-15.43,13.34c-6.67-1.89-13.79-1.54-20.35,1.11c-0.48,0.19-0.96,0.4-1.44,0.63   c-15.32,7.05-22.37,24.82-16.06,40.47c1.94,4.81,4.98,9.41,9.04,13.66c8.12,8.53,20.67,16,37.28,22.22c0.23,0.09,0.43,0.15,0.6,0.2   c0.33,0.12,0.65,0.22,0.99,0.32l0.19,0.06c0.55,0.17,1.09,0.34,1.69,0.49c0.33,0.08,0.65,0.15,0.98,0.22l0.37,0.08   c0.55,0.11,1.09,0.21,1.63,0.29c0.05,0.01,0.09,0.02,0.14,0.02c0.42,0.06,0.84,0.11,1.28,0.16c0.59,0.06,1.19,0.1,1.78,0.13   c0.45,0.03,0.91,0.04,1.37,0.04c0.58,0,1.17-0.02,1.74-0.05h0.16l0.23-0.02c0.31-0.01,0.62-0.03,0.93-0.06   c0.65-0.07,1.29-0.15,1.94-0.25c0.03-0.01,0.11-0.02,0.14-0.03l0.14-0.02c0.3-0.05,0.59-0.09,0.87-0.15c0.7-0.14,1.38-0.3,2.12-0.5   c0.27-0.07,0.54-0.13,0.8-0.22c0.93-0.27,1.88-0.59,2.82-0.96c0.09-0.04,0.19-0.08,0.29-0.13c0.82-0.34,1.66-0.73,2.5-1.18   c0.26-0.13,0.52-0.28,0.77-0.43l0.03-0.01c0.67-0.37,1.27-0.72,1.86-1.11c0.24-0.15,0.47-0.32,0.71-0.48l0.15-0.12   c0.54-0.37,1.04-0.74,1.6-1.17c0.22-0.18,0.44-0.36,0.65-0.55l0.19-0.16c0.03-0.03,0.07-0.06,0.1-0.08   c0.41-0.36,0.89-0.78,1.4-1.29c0.3-0.29,0.59-0.58,0.89-0.9c0.4-0.42,0.8-0.87,1.17-1.31c0.29-0.34,0.57-0.69,0.85-1.04   c0.03-0.04,0.07-0.09,0.1-0.13c0.3-0.41,0.6-0.82,0.92-1.27c0.02-0.04,0.04-0.07,0.07-0.11l0.13-0.18c0.21-0.32,0.42-0.63,0.65-1   c0.3-0.48,0.57-0.98,0.85-1.5l0.03-0.05c0.18-0.32,0.35-0.63,0.52-0.96c0.08-0.15,0.19-0.35,0.3-0.58   C250.67,295.83,253.51,276.32,247.66,261.84z M226.68,313.6c-0.08,0.16-0.17,0.32-0.24,0.48c-0.07,0.13-0.15,0.26-0.22,0.39   l-0.07,0.12c-0.02,0.05-0.06,0.11-0.08,0.15c-0.15,0.28-0.3,0.56-0.44,0.79c-0.1,0.17-0.21,0.33-0.32,0.49l-0.11,0.15   c-0.19,0.28-0.39,0.56-0.59,0.83c-0.15,0.19-0.31,0.39-0.51,0.62c-0.18,0.22-0.37,0.44-0.57,0.65c-0.05,0.04-0.09,0.08-0.13,0.13   c-0.13,0.14-0.26,0.27-0.4,0.4c-0.03,0.03-0.07,0.07-0.1,0.1c-0.23,0.23-0.47,0.43-0.71,0.64l-0.43,0.38   c-0.32,0.24-0.63,0.47-0.95,0.7l-0.48,0.34c-0.29,0.19-0.63,0.39-1.01,0.59c-0.06,0.03-0.12,0.07-0.17,0.1l-0.31,0.18   c-0.01,0.01-0.03,0.01-0.04,0.02c-0.52,0.27-1.01,0.5-1.47,0.68c-0.07,0.03-0.14,0.06-0.21,0.1c-0.47,0.18-0.94,0.33-1.39,0.47   c-0.06,0.01-0.12,0.03-0.18,0.05c0.03-0.01,0.06-0.02,0.08-0.03c-0.15,0.03-0.31,0.07-0.46,0.12c-0.39,0.1-0.77,0.19-1.17,0.27   c-0.03,0.01-0.06,0.01-0.08,0.02l-0.11,0.02c-0.15,0.02-0.29,0.04-0.43,0.06c-0.36,0.06-0.71,0.11-1.07,0.14   c-0.1,0.01-0.21,0.02-0.31,0.02l-0.28,0.02c-0.56,0.02-1.15,0.05-1.7,0.01h-0.12c-0.3-0.02-0.61-0.03-0.91-0.07   c-0.27-0.03-0.55-0.06-0.82-0.09c-0.32-0.06-0.62-0.11-0.88-0.16l-0.41-0.09c-0.17-0.04-0.35-0.07-0.47-0.1   c-0.26-0.07-0.52-0.15-0.78-0.24l-0.41-0.12c-0.15-0.05-0.3-0.09-0.4-0.13c-0.16-0.06-0.32-0.11-0.47-0.16   c-14.54-5.46-25.27-11.75-31.91-18.72c-2.83-2.96-4.91-6.06-6.18-9.22c-3.52-8.73,0.42-18.63,8.96-22.55   c0.05-0.02,0.1-0.04,0.15-0.06c0.19-0.1,0.39-0.18,0.61-0.27c5.01-2.03,10.6-1.64,15.34,1.07c1.86,1.06,4.11,1.21,6.1,0.41   c1.98-0.8,3.49-2.48,4.09-4.54c1.52-5.22,5.27-9.38,10.28-11.4c4.36-1.76,9.14-1.72,13.46,0.12c4.32,1.83,7.67,5.24,9.43,9.6   C238.93,277.59,236.16,293.67,226.68,313.6z"/>
<path class="st6" d="M342.67,259.44c-0.46-0.22-0.93-0.42-1.38-0.6c-6.58-2.66-13.7-3.01-20.37-1.12   c-3.48-5.99-8.85-10.68-15.43-13.34c-7.82-3.16-16.41-3.09-24.18,0.21c-7.76,3.3-13.77,9.43-16.93,17.25   c-5.86,14.5-3.02,34.02,8.44,58.03c0.08,0.15,0.16,0.31,0.25,0.46v0.01c0.14,0.26,0.27,0.52,0.41,0.77l0.13,0.23   c0.29,0.53,0.59,1.06,0.92,1.61c0.21,0.33,0.42,0.64,0.64,0.96l0.12,0.18c0.03,0.04,0.07,0.1,0.09,0.14c0.3,0.42,0.6,0.83,0.9,1.24   c0.03,0.04,0.07,0.09,0.1,0.13c0.28,0.35,0.56,0.7,0.8,0.98c0.42,0.5,0.82,0.95,1.22,1.37c0.3,0.32,0.59,0.61,0.89,0.9   c0.51,0.51,0.99,0.93,1.41,1.29c0.3,0.27,0.62,0.54,0.91,0.77c0.5,0.4,1.02,0.77,1.61,1.19l0.13,0.1c0.26,0.19,0.52,0.37,0.8,0.54   c0.62,0.4,1.26,0.78,1.89,1.12c0.23,0.14,0.46,0.27,0.7,0.39c0.85,0.45,1.66,0.84,2.48,1.17c0.17,0.08,0.34,0.15,0.51,0.21   c0.88,0.34,1.76,0.64,2.63,0.89c0.26,0.08,0.51,0.15,0.82,0.22c0.72,0.2,1.41,0.36,2.11,0.5c0.27,0.06,0.55,0.1,0.83,0.14   l0.11,0.02c0.06,0.01,0.13,0.02,0.19,0.04c0.65,0.1,1.3,0.18,1.95,0.25c0.31,0.03,0.62,0.05,0.93,0.06l0.23,0.02h0.16   c0.57,0.03,1.15,0.05,1.74,0.05c0.46,0,0.91-0.01,1.37-0.04c0.59-0.03,1.19-0.07,1.79-0.13c0.43-0.05,0.85-0.1,1.27-0.16   c0.05,0,0.09-0.01,0.14-0.02c0.54-0.08,1.07-0.18,1.68-0.31l0.31-0.06c0.32-0.07,0.65-0.14,1.03-0.23c0.58-0.15,1.16-0.33,1.72-0.5   l0.23-0.07c0.3-0.1,0.61-0.19,0.91-0.3c0.17-0.05,0.34-0.1,0.5-0.16c16.62-6.21,29.17-13.69,37.31-22.22   c4.06-4.26,7.11-8.86,9.06-13.68C365.1,284.24,358.01,266.43,342.67,259.44z M345.77,294.7c-1.28,3.17-3.37,6.28-6.21,9.25   c-6.62,6.95-17.33,13.23-31.84,18.68c-0.14,0.05-0.31,0.1-0.49,0.17c-0.11,0.04-0.22,0.07-0.33,0.1l-0.38,0.12   c-0.3,0.1-0.6,0.2-0.85,0.26c-0.18,0.04-0.35,0.07-0.52,0.11l-0.35,0.07c-0.31,0.07-0.62,0.12-0.93,0.18   c-0.27,0.03-0.55,0.06-0.81,0.09c-0.31,0.04-0.62,0.05-0.92,0.07h-0.11c-0.58,0.04-1.15,0.01-1.71-0.01l-0.28-0.02   c-0.1,0-0.21-0.01-0.32-0.02c-0.36-0.03-0.71-0.08-1.05-0.13c-0.15-0.03-0.29-0.05-0.44-0.07l-0.1-0.02   c-0.04-0.01-0.08-0.02-0.11-0.02c-0.4-0.08-0.78-0.17-1.16-0.27c-0.14-0.04-0.28-0.08-0.48-0.13c-0.02,0-0.04-0.01-0.07-0.01   c-0.45-0.14-0.91-0.29-1.38-0.47c-0.09-0.04-0.17-0.07-0.26-0.11c-0.45-0.17-0.92-0.39-1.44-0.67c-0.01,0-0.02-0.01-0.03-0.02   c-0.15-0.08-0.3-0.17-0.49-0.28c-0.34-0.18-0.68-0.38-1.03-0.61l-0.4-0.28c-0.31-0.22-0.63-0.45-0.95-0.71   c-0.15-0.11-0.29-0.24-0.48-0.41c-0.24-0.21-0.48-0.41-0.71-0.64c-0.03-0.03-0.07-0.07-0.1-0.1c-0.14-0.13-0.27-0.26-0.4-0.4   c-0.04-0.05-0.08-0.09-0.13-0.13c-0.2-0.21-0.39-0.43-0.62-0.71c-0.16-0.18-0.31-0.37-0.46-0.56c-0.19-0.25-0.38-0.52-0.58-0.81   l-0.12-0.17c-0.11-0.16-0.22-0.32-0.3-0.45c-0.17-0.27-0.33-0.56-0.47-0.82c-0.08-0.16-0.17-0.32-0.26-0.48l-0.11-0.19   c-0.07-0.16-0.15-0.32-0.24-0.47c-6.59-13.85-9.93-25.84-9.93-35.4c0-4.19,0.64-7.92,1.94-11.13c1.76-4.36,5.11-7.77,9.43-9.6   c4.32-1.84,9.1-1.88,13.45-0.12c5.02,2.02,8.77,6.18,10.29,11.4c0.6,2.06,2.11,3.74,4.1,4.54s4.23,0.65,6.1-0.41   c4.72-2.71,10.3-3.1,15.35-1.06c0.22,0.09,0.43,0.19,0.72,0.32C345.36,276.05,349.3,285.96,345.77,294.7z"/>
</g>
</svg>