<?xml version="1.0" encoding="iso-8859-1"?>
<!-- Uploaded to: SVG Repo, www.svgrepo.com, Generator: SVG Repo Mixer Tools -->
<svg version="1.1" id="Layer_1" xmlns="http://www.w3.org/2000/svg" xmlns:xlink="http://www.w3.org/1999/xlink" 
	 viewBox="0 0 511.999 511.999" xml:space="preserve">
<g>
	<path style="fill:#D12D4E;" d="M53.331,128h405.334c0,23.467,19.201,42.669,42.668,42.669v170.666
		c-23.466,0-42.668,19.199-42.668,42.666H53.331c0-23.465-19.199-42.666-42.664-42.666V170.669
		C34.132,170.669,53.331,151.467,53.331,128z"/>
	<rect x="64" y="181.336" style="fill:#FCD051;" width="383.998" height="149.334"/>
	<path style="fill:#ED8C18;" d="M218.036,128l86.369-86.369c15.214,15.213,40.11,15.213,55.321,0L446.093,128H218.036L218.036,128z
		 M293.962,383.997l-86.371,86.371c-15.21-15.213-40.103-15.213-55.316,0l-86.371-86.371H293.962z"/>
</g>
<g>
	<path style="fill:#000003;" d="M501.333,159.999c-17.645,0-32-14.355-32-31.999c0-5.892-4.776-10.667-10.667-10.667h-8.152
		l-83.242-83.245c-2.001-2-4.715-3.125-7.544-3.125s-5.542,1.124-7.542,3.125c-5.343,5.343-12.487,8.285-20.118,8.285
		c-7.629,0-14.774-2.942-20.116-8.285c-4.167-4.166-10.921-4.166-15.087,0l-83.246,83.245H53.331
		c-5.891,0-10.667,4.776-10.667,10.667c0,17.644-14.353,31.999-31.996,31.999C4.776,159.999,0,164.775,0,170.667v170.666
		C0,347.224,4.776,352,10.667,352c17.643,0,31.996,14.354,31.996,31.997c0,5.892,4.777,10.667,10.667,10.667h8.153l83.247,83.247
		c2.083,2.083,4.813,3.124,7.543,3.124c2.73,0,5.461-1.042,7.542-3.124c5.344-5.343,12.488-8.285,20.117-8.285
		c7.628,0,14.773,2.942,20.114,8.284c2.001,2,4.715,3.126,7.544,3.126l0,0c2.829,0,5.542-1.124,7.542-3.124l83.248-83.247h160.283
		c5.892,0,10.667-4.776,10.667-10.667c0-17.643,14.355-31.997,32-31.997c5.891,0,10.668-4.776,10.668-10.667V170.667
		C512,164.775,507.223,159.999,501.333,159.999z M305.217,55.905c7.926,5.08,17.169,7.802,26.848,7.802
		c9.68,0,18.924-2.722,26.85-7.801l61.426,61.427H305.659c3.19-4.182,2.884-10.177-0.938-13.999
		c-4.167-4.165-10.92-4.165-15.087,0.001l-13.996,13.998h-31.849L305.217,55.905z M206.781,456.093
		c-7.926-5.081-17.168-7.802-26.847-7.802s-18.922,2.722-26.848,7.802l-61.429-61.429h110.926
		c-3.193,4.183-2.888,10.179,0.936,14.001c2.082,2.082,4.812,3.123,7.542,3.123c2.731,0,5.461-1.042,7.543-3.126l13.996-14h35.609
		L206.781,456.093z M490.665,331.736c-20.867,4.253-37.343,20.729-41.595,41.594H293.962H65.903h-2.975
		c-4.253-20.865-20.729-37.339-41.593-41.594V180.262c20.865-4.253,37.34-20.73,41.593-41.595h155.107h228.058h0.022h2.955
		c4.253,20.866,20.73,37.342,41.596,41.595v151.474H490.665z"/>
	<path style="fill:#000003;" d="M170.712,223.95c-3.394,0-6.783,1.22-6.783,4.089v55.314c0,2.782,3.39,4.175,6.783,4.175
		c3.392,0,6.781-1.393,6.781-4.175v-55.314C177.494,225.17,174.104,223.95,170.712,223.95z"/>
	<path style="fill:#000003;" d="M216.118,235.777c7.392,0,7.654,5.569,7.741,7.83c0.173,3.132,3.132,4.087,6.783,4.087
		c4.608,0,6.783-1.218,6.783-6.435c0-11.046-9.393-17.309-21.83-17.309c-11.396,0-20.874,5.568-20.874,20.527v23.046
		c0,14.959,9.479,20.525,20.874,20.525c12.437,0,21.83-6.609,21.83-18.177c0-5.22-2.175-6.437-6.871-6.437
		c-3.479,0-6.436,0.87-6.696,4.089c-0.26,3.392-0.697,8.695-7.655,8.695c-5.046,0-7.914-2.782-7.914-8.695v-23.046
		C208.29,238.561,211.159,235.777,216.118,235.777z"/>
	<path style="fill:#000003;" d="M145.915,223.95h-37.572c-2.867,0-4.088,3.132-4.088,6.003c0,3.303,1.481,6.174,4.088,6.174h12.003
		v47.226c0,2.782,3.39,4.175,6.781,4.175c3.394,0,6.786-1.393,6.786-4.175v-47.226h12.001c2.61,0,4.089-2.872,4.089-6.174
		C150.004,227.082,148.787,223.95,145.915,223.95z"/>
	<path style="fill:#000003;" d="M403.654,223.95h-37.574c-2.868,0-4.088,3.132-4.088,6.003c0,3.303,1.48,6.174,4.088,6.174h12.003
		v47.226c0,2.782,3.392,4.175,6.783,4.175c3.392,0,6.783-1.393,6.783-4.175v-47.226h12.003c2.608,0,4.089-2.872,4.089-6.174
		C407.742,227.082,406.523,223.95,403.654,223.95z"/>
	<path style="fill:#000003;" d="M347.463,235.777c2.608,0,4.087-2.782,4.087-5.998c0-2.784-1.218-5.829-4.087-5.829H316.5
		c-2.958,0-5.913,1.393-5.913,4.175v55.228c0,2.782,2.955,4.175,5.913,4.175h30.962c2.868,0,4.087-3.044,4.087-5.827
		c0-3.221-1.479-6.003-4.087-6.003h-23.308v-14.785H337.2c2.868,0,4.086-2.782,4.086-5.132c0-2.782-1.477-5.304-4.086-5.304h-13.046
		v-14.701L347.463,235.777L347.463,235.777z"/>
	<path style="fill:#000003;" d="M279.092,251.432l14.265-17.916c0.694-0.955,0.869-1.912,0.869-2.608
		c0-3.389-4.522-6.957-8.001-6.957c-1.392,0-2.61,0.523-3.566,1.914l-16.265,23.046v-20.872c0-2.868-3.392-4.089-6.783-4.089
		c-3.392,0-6.783,1.22-6.783,4.089v55.314c0,2.782,3.392,4.175,6.783,4.175c3.392,0,6.783-1.393,6.783-4.175v-15.742l3.653-4.696
		l14.874,22.613c1.129,1.827,2.87,2.522,4.696,2.522c3.913,0,8.174-3.392,8.174-6.783c0-0.783-0.26-1.565-0.694-2.259
		L279.092,251.432z"/>
	<path style="fill:#000003;" d="M447.999,170.665H64c-5.891,0-10.667,4.776-10.667,10.667v149.333
		c0,5.891,4.777,10.667,10.667,10.667h384c5.891,0,10.667-4.777,10.667-10.667V181.333
		C458.667,175.441,453.89,170.665,447.999,170.665z M74.667,192h362.665v127.998H74.667V192z"/>
	<path style="fill:#000003;" d="M181.852,415.25l-0.18,0.18c-4.166,4.166-4.166,10.919,0,15.086
		c2.082,2.083,4.814,3.125,7.543,3.125c2.73,0,5.461-1.041,7.543-3.125l0.18-0.18c4.165-4.166,4.165-10.919,0-15.086
		C192.772,411.084,186.018,411.084,181.852,415.25z"/>
	<path style="fill:#000003;" d="M318.846,99.874c2.704,0,5.411-1.022,7.489-3.07l0.18-0.177c4.197-4.136,4.246-10.889,0.11-15.086
		c-4.135-4.196-10.888-4.245-15.086-0.11l-0.18,0.178c-4.197,4.135-4.245,10.889-0.111,15.086
		C313.334,98.812,316.088,99.874,318.846,99.874z"/>
</g>
</svg>