<?xml version="1.0" encoding="iso-8859-1"?>
<!-- Uploaded to: SVG Repo, www.svgrepo.com, Generator: SVG Repo Mixer Tools -->
<svg height="800px" width="800px" version="1.1" id="Layer_1" xmlns="http://www.w3.org/2000/svg" xmlns:xlink="http://www.w3.org/1999/xlink" 
	 viewBox="0 0 503.467 503.467" xml:space="preserve">
<g transform="translate(1 7)">
	<g>
		<path style="fill:#E4F2DE;" d="M154.307,265.64c-4.267,6.827-6.827,13.653-9.387,21.333c0,0-5.12,25.6-5.12,34.133H88.6
			c0-53.76,26.453-101.547,66.56-130.56L132.973,153l14.507-8.533l14.507-8.533l22.187,37.547
			c20.48-8.533,42.667-13.653,65.707-13.653s46.08,5.12,65.707,13.653l22.187-37.547l14.507,8.533L366.787,153L344.6,190.547
			c31.573,23.04,54.613,57.173,63.147,96.427c0,0,3.413,17.067,3.413,34.133h-51.2c0-20.48-5.12-39.253-14.507-55.467l0,0
			c-9.387-17.067-23.893-30.72-40.96-40.96l0,0c-16.213-9.387-34.987-14.507-55.467-14.507s-39.253,5.12-55.467,14.507l0,0
			C178.2,234.92,164.547,248.573,154.307,265.64"/>
		<path style="fill:#E4F2DE;" d="M122.733,406.44c0-9.387-7.68-17.067-17.067-17.067S88.6,397.053,88.6,406.44
			s7.68,17.067,17.067,17.067S122.733,415.827,122.733,406.44 M191,406.44c0-9.387-7.68-17.067-17.067-17.067
			c-9.387,0-17.067,7.68-17.067,17.067s7.68,17.067,17.067,17.067C183.32,423.507,191,415.827,191,406.44 M259.267,406.44
			c0-9.387-7.68-17.067-17.067-17.067s-17.067,7.68-17.067,17.067s7.68,17.067,17.067,17.067S259.267,415.827,259.267,406.44
			 M498.2,363.773v128H3.267v-128c0-23.893,18.773-42.667,42.667-42.667H88.6h51.2h110.933h110.933h51.2h42.667
			C479.427,321.107,498.2,339.88,498.2,363.773"/>
	</g>
	<path style="fill:#FFE079;" d="M242.2,389.373c9.387,0,17.067,7.68,17.067,17.067s-7.68,17.067-17.067,17.067
		s-17.067-7.68-17.067-17.067S232.813,389.373,242.2,389.373z M105.667,389.373c9.387,0,17.067,7.68,17.067,17.067
		s-7.68,17.067-17.067,17.067S88.6,415.827,88.6,406.44S96.28,389.373,105.667,389.373z M173.933,389.373
		c9.387,0,17.067,7.68,17.067,17.067s-7.68,17.067-17.067,17.067c-9.387,0-17.067-7.68-17.067-17.067
		S164.547,389.373,173.933,389.373z"/>
	<g>
		<path style="fill:#80D6FA;" d="M97.133,48.04c14.507,0,25.6,11.093,25.6,25.6s-11.093,25.6-25.6,25.6s-25.6-11.093-25.6-25.6
			S82.627,48.04,97.133,48.04z M404.333,48.04c14.507,0,25.6,11.093,25.6,25.6s-11.093,25.6-25.6,25.6
			c-14.507,0-25.6-11.093-25.6-25.6S389.827,48.04,404.333,48.04z"/>
		<path style="fill:#80D6FA;" d="M154.307,265.64c9.387-17.067,23.893-30.72,40.96-40.96l0,0
			c16.213-9.387,34.987-14.507,55.467-14.507s39.253,5.12,55.467,14.507l0,0c17.067,9.387,30.72,23.893,40.96,40.96l0,0
			c9.387,16.213,14.507,34.987,14.507,55.467H250.733H139.8c0-8.533,5.12-34.133,5.12-34.133
			C147.48,279.293,150.893,272.467,154.307,265.64"/>
	</g>
</g>
<path style="fill:#51565F;" d="M499.2,503.04H4.267c-2.56,0-4.267-1.707-4.267-4.267v-128c0-25.6,21.333-46.933,46.933-46.933
	c2.56,0,4.267,1.707,4.267,4.267s-1.707,4.267-4.267,4.267c-21.333,0-38.4,17.067-38.4,38.4v123.733h486.4V370.773
	c0-21.333-17.067-38.4-38.4-38.4H396.8c-2.56,0-4.267-1.707-4.267-4.267s1.707-4.267,4.267-4.267h59.733
	c25.6,0,46.933,21.333,46.933,46.933v128C503.467,501.333,501.76,503.04,499.2,503.04z M413.867,434.773h-102.4
	c-2.56,0-4.267-1.707-4.267-4.267c0-2.56,1.707-4.267,4.267-4.267h102.4c2.56,0,4.267,1.707,4.267,4.267
	C418.133,433.067,416.427,434.773,413.867,434.773z M243.2,434.773c-11.947,0-21.333-9.387-21.333-21.333
	c0-11.947,9.387-21.333,21.333-21.333s21.333,9.387,21.333,21.333C264.533,425.387,255.147,434.773,243.2,434.773z M243.2,400.64
	c-6.827,0-12.8,5.973-12.8,12.8s5.973,12.8,12.8,12.8s12.8-5.973,12.8-12.8S250.027,400.64,243.2,400.64z M174.933,434.773
	c-11.947,0-21.333-9.387-21.333-21.333c0-11.947,9.387-21.333,21.333-21.333c11.947,0,21.333,9.387,21.333,21.333
	C196.267,425.387,186.88,434.773,174.933,434.773z M174.933,400.64c-6.827,0-12.8,5.973-12.8,12.8s5.973,12.8,12.8,12.8
	c6.827,0,12.8-5.973,12.8-12.8S181.76,400.64,174.933,400.64z M106.667,434.773c-11.947,0-21.333-9.387-21.333-21.333
	c0-11.947,9.387-21.333,21.333-21.333S128,401.493,128,413.44C128,425.387,118.613,434.773,106.667,434.773z M106.667,400.64
	c-6.827,0-12.8,5.973-12.8,12.8s5.973,12.8,12.8,12.8s12.8-5.973,12.8-12.8S113.493,400.64,106.667,400.64z M413.867,400.64h-102.4
	c-2.56,0-4.267-1.707-4.267-4.267c0-2.56,1.707-4.267,4.267-4.267h102.4c2.56,0,4.267,1.707,4.267,4.267
	C418.133,398.933,416.427,400.64,413.867,400.64z M251.733,332.373L251.733,332.373h-128c-2.56,0-4.267-1.707-4.267-4.267
	s1.707-4.267,4.267-4.267h125.44l29.013-49.493c0.853-1.707,3.413-2.56,5.973-1.707c1.707,0.853,2.56,2.56,2.56,3.413
	c0,0.853,0,1.707-0.853,2.56l-26.453,45.227H358.4c-0.853-16.213-5.12-31.573-11.947-45.227l-11.093,5.973
	c-1.707,0.853-4.267,0.853-5.973-1.707c0-0.853-0.853-1.707-0.853-2.56c0-1.707,0.853-2.56,2.56-3.413l11.093-5.973
	c-8.533-13.653-19.627-24.747-33.28-33.28l-5.973,11.093c-0.853,1.707-3.413,2.56-5.973,1.707c-1.707-0.853-2.56-2.56-2.56-3.413
	c0-0.853,0-1.707,0.853-2.56l5.973-11.093c-13.653-6.827-29.013-11.093-45.227-11.947v12.8c0,2.56-1.707,4.267-4.267,4.267
	c-2.56,0-4.267-1.707-4.267-4.267v-12.8c-16.213,0.853-31.573,5.12-45.227,11.947l6.827,11.093c0,0.853,0.853,1.707,0.853,2.56
	c0,1.707-0.853,2.56-2.56,3.413c-1.707,0.853-4.267,0.853-5.973-1.707l-6.827-11.093c-13.653,8.533-24.747,19.627-33.28,33.28
	l11.093,5.973c1.707,0.853,2.56,2.56,2.56,3.413c0,0.853,0,1.707-0.853,2.56c-0.853,1.707-3.413,2.56-5.973,1.707l-11.093-5.973
	c-2.56,5.12-5.12,11.093-6.827,17.067c-0.853,2.56-3.413,3.413-5.12,2.56c-2.56-0.853-3.413-3.413-2.56-5.12
	c15.36-47.787,59.733-80.213,110.08-80.213c20.48,0,40.107,5.12,57.173,15.36l0,0l0,0c17.067,10.24,31.573,24.747,41.813,41.813l0,0
	l0,0c9.387,17.067,15.36,36.693,15.36,57.173c0,2.56-1.707,4.267-4.267,4.267H251.733
	C251.733,332.373,251.733,332.373,251.733,332.373z M89.6,332.373c-2.56,0-4.267-1.707-4.267-4.267
	c0-51.2,24.747-100.693,65.707-132.267l-19.627-34.987c-0.853-1.707-0.853-4.267,1.707-5.973l11.093-5.973l-28.16-43.52
	c-5.12,3.413-10.24,5.12-17.067,5.12c-16.213,0-29.867-13.653-29.867-29.867s13.653-29.867,29.867-29.867
	s29.867,13.653,29.867,29.867c0,6.827-2.56,13.653-6.827,18.773l29.867,45.227l11.093-6.827c1.707-0.853,4.267-0.853,5.973,1.707
	l19.627,34.133c40.96-17.067,87.04-17.067,128,0l19.627-34.133c0.853-1.707,3.413-2.56,5.973-1.707l11.093,6.827l29.867-45.227
	c-4.267-5.12-6.827-11.947-6.827-18.773c0-16.213,13.653-29.867,29.867-29.867s29.867,13.653,29.867,29.867
	s-13.653,29.867-29.867,29.867c-5.973,0-11.947-1.707-17.067-5.12l-28.16,43.52l11.093,5.973c0.853,0.853,1.707,1.707,1.707,2.56
	c0,0.853,0,2.56-0.853,3.413L353.28,195.84c31.573,23.893,53.76,58.027,61.44,97.28c0.853,2.56-0.853,4.267-3.413,5.12
	c-2.56,0.853-4.267-0.853-5.12-3.413c-8.533-37.547-29.867-70.827-61.44-93.867c-1.707-1.707-2.56-3.413-0.853-5.973l19.627-34.133
	l-11.093-5.973l0,0l-11.093-5.973l-19.627,34.133c-0.853,1.707-3.413,2.56-5.12,1.707c-40.96-17.92-87.04-17.92-128,0
	c-1.707,0.853-4.267,0-5.12-1.707l-19.627-34.133l-11.093,5.973l0,0l-11.093,5.973l19.627,34.133
	c0.853,1.707,0.853,4.267-0.853,5.973c-40.96,29.867-64.853,77.653-64.853,127.147C93.867,330.667,92.16,332.373,89.6,332.373z
	 M405.333,59.307C393.387,59.307,384,68.693,384,80.64s9.387,21.333,21.333,21.333c11.947,0,21.333-9.387,21.333-21.333
	S417.28,59.307,405.333,59.307z M98.133,59.307c-11.947,0-21.333,9.387-21.333,21.333s9.387,21.333,21.333,21.333
	s21.333-9.387,21.333-21.333S110.08,59.307,98.133,59.307z M17.067,131.84c-1.707,0-2.56-0.853-3.413-2.56
	c0-0.853-0.853-1.707-0.853-2.56c0-1.707,0.853-2.56,2.56-3.413l14.507-8.533c1.707-0.853,4.267-0.853,5.973,1.707
	c0,0.853,0.853,1.707,0.853,2.56c0,1.707-0.853,2.56-2.56,3.413l-14.507,8.533C17.92,131.84,17.92,131.84,17.067,131.84z
	 M486.4,131.84c-0.853,0-1.707,0-2.56-0.853l-14.507-8.533c-1.707-0.853-2.56-2.56-2.56-3.413s0-1.707,0.853-2.56
	c0.853-1.707,3.413-2.56,5.973-1.707l14.507,8.533c1.707,0.853,2.56,2.56,2.56,3.413c0,0.853,0,1.707-0.853,2.56
	C489.813,130.987,488.107,131.84,486.4,131.84z M499.2,84.907h-17.067c-2.56,0-4.267-1.707-4.267-4.267
	c0-2.56,1.707-4.267,4.267-4.267H499.2c2.56,0,4.267,1.707,4.267,4.267C503.467,83.2,501.76,84.907,499.2,84.907z M21.333,84.907
	H4.267C1.707,84.907,0,83.2,0,80.64c0-2.56,1.707-4.267,4.267-4.267h17.067c2.56,0,4.267,1.707,4.267,4.267
	C25.6,83.2,23.893,84.907,21.333,84.907z M149.333,59.307c-1.707,0-3.413-0.853-4.267-2.56c-0.853-2.56,0.853-4.267,2.56-5.12
	l51.2-17.067c1.707-0.853,3.413,0,4.267,0.853l13.653,13.653L248.32,2.133c0.853-0.853,2.56-1.707,3.413-1.707
	c1.707,0,2.56,0.853,3.413,2.56l23.04,46.933l46.933-31.573c0.853-0.853,2.56-0.853,4.267,0l34.133,17.067
	c1.707,0.853,2.56,3.413,1.707,5.973c-0.853,1.707-3.413,2.56-5.973,1.707L327.68,26.88l-49.493,32.427
	c-0.853,0.853-2.56,0.853-3.413,0.853c-0.853,0-2.56-0.853-2.56-2.56l-22.187-44.373L220.16,58.453
	c-0.853,0.853-1.707,1.707-3.413,1.707c-0.853,0-2.56,0-3.413-0.853l-15.36-15.36l-48.64,16.213
	C150.187,59.307,150.187,59.307,149.333,59.307z M471.893,46.507c-1.707,0-2.56-0.853-3.413-2.56c0-0.853-0.853-1.707-0.853-2.56
	c0-1.707,0.853-2.56,2.56-3.413l14.507-8.533c1.707-0.853,4.267-0.853,5.973,1.707c0,0.853,0.853,1.707,0.853,2.56
	c0,1.707-0.853,2.56-2.56,3.413l-14.507,8.533C473.6,46.507,472.747,46.507,471.893,46.507z M31.573,46.507
	c-0.853,0-1.707,0-1.707-0.853L15.36,37.12c-1.707-0.853-2.56-2.56-2.56-3.413s0-1.707,0.853-2.56
	c0.853-1.707,3.413-2.56,5.973-1.707l14.507,8.533c1.707,0.853,2.56,2.56,2.56,3.413c0,0.853,0,1.707-0.853,2.56
	C34.133,45.653,33.28,46.507,31.573,46.507z"/>
</svg>