<?xml version="1.0" encoding="iso-8859-1"?>
<!-- Uploaded to: SVG Repo, www.svgrepo.com, Generator: SVG Repo Mixer Tools -->
<svg height="800px" width="800px" version="1.1" id="Capa_1" xmlns="http://www.w3.org/2000/svg" xmlns:xlink="http://www.w3.org/1999/xlink" 
	 viewBox="0 0 512 512" xml:space="preserve">
<path style="fill:#DC73AE;" d="M358.4,256c-24.237,0-43.886-19.646-43.886-43.886H197.486c0,24.24-19.651,43.886-43.886,43.886
	c-24.237,0-43.886-19.646-43.886-43.886H21.943v219.429h468.114V212.114h-87.771C402.286,236.354,382.635,256,358.4,256z"/>
<path style="fill:#D4CBF6;" d="M21.943,80.457v131.657h87.771c0-24.234,19.649-43.886,43.886-43.886
	c24.235,0,43.886,19.652,43.886,43.886h117.029c0-24.234,19.649-43.886,43.886-43.886c24.235,0,43.886,19.652,43.886,43.886h87.771
	V80.457H21.943z"/>
<path style="fill:#DA50A1;" d="M358.4,256c-24.237,0-43.886-19.646-43.886-43.886H256v219.429h234.057V212.114h-87.771
	C402.286,236.354,382.635,256,358.4,256z"/>
<path style="fill:#AB99EC;" d="M256,80.457v131.657h58.514c0-24.234,19.649-43.886,43.886-43.886
	c24.235,0,43.886,19.652,43.886,43.886h87.771V80.457H256z"/>
<g>
	<path style="fill:#5B699C;" d="M153.6,277.943c-36.298,0-65.829-29.529-65.829-65.829c0-36.298,29.531-65.829,65.829-65.829
		s65.829,29.532,65.829,65.829C219.429,248.414,189.899,277.943,153.6,277.943z M153.6,190.171
		c-12.099,0-21.943,9.845-21.943,21.943c0,12.099,9.844,21.943,21.943,21.943s21.943-9.844,21.943-21.943
		C175.543,200.016,165.699,190.171,153.6,190.171z"/>
	<path style="fill:#5B699C;" d="M490.057,58.514H21.943C9.825,58.514,0,68.339,0,80.457v351.086c0,12.12,9.825,21.943,21.943,21.943
		h87.771h292.571h87.771c12.118,0,21.943-9.823,21.943-21.943V80.457C512,68.339,502.175,58.514,490.057,58.514z M468.114,409.6
		h-47.24l-11.573-69.435c-1.763-10.581-10.917-18.337-21.644-18.337H124.343c-10.727,0-19.882,7.756-21.644,18.337L91.126,409.6
		h-47.24V102.4h424.229L468.114,409.6L468.114,409.6z"/>
</g>
<g>
	<path style="fill:#2D4175;" d="M358.4,277.943c-36.299,0-65.829-29.529-65.829-65.829c0-36.298,29.529-65.829,65.829-65.829
		s65.829,29.532,65.829,65.829C424.229,248.414,394.699,277.943,358.4,277.943z M358.4,190.171
		c-12.099,0-21.943,9.845-21.943,21.943c0,12.099,9.844,21.943,21.943,21.943c12.098,0,21.943-9.844,21.943-21.943
		C380.343,200.016,370.498,190.171,358.4,190.171z"/>
	<path style="fill:#2D4175;" d="M490.057,58.514H256V102.4h212.114v307.2h-47.24l-11.573-69.435
		c-1.763-10.581-10.917-18.337-21.644-18.337H256v131.657h146.286h87.771c12.118,0,21.943-9.823,21.943-21.943V80.457
		C512,68.339,502.175,58.514,490.057,58.514z"/>
</g>
</svg>