<?xml version="1.0" encoding="iso-8859-1"?>
<!-- Uploaded to: SVG Repo, www.svgrepo.com, Generator: SVG Repo Mixer Tools -->
<svg height="800px" width="800px" version="1.1" id="Layer_1" xmlns="http://www.w3.org/2000/svg" xmlns:xlink="http://www.w3.org/1999/xlink" 
	 viewBox="0 0 512.002 512.002" xml:space="preserve">
<path d="M405.569,401.27c-4.16,0-8.242-1.693-11.184-4.635c-0.728-0.728-1.392-1.534-1.962-2.405
	c-0.569-0.854-1.06-1.772-1.455-2.737c-0.396-0.949-0.712-1.946-0.902-2.958c-0.206-1.012-0.316-2.057-0.316-3.085
	c0-1.028,0.111-2.072,0.316-3.101c0.19-0.997,0.506-1.993,0.902-2.958c0.395-0.949,0.886-1.867,1.455-2.721
	c0.57-0.87,1.234-1.677,1.962-2.405c3.67-3.686,9.144-5.363,14.269-4.335c1.012,0.206,2.009,0.506,2.974,0.902
	c0.949,0.395,1.867,0.886,2.721,1.455c0.87,0.585,1.677,1.234,2.405,1.977c0.728,0.728,1.392,1.534,1.962,2.405
	c0.569,0.854,1.06,1.772,1.455,2.721c0.395,0.965,0.712,1.962,0.902,2.958c0.206,1.028,0.316,2.072,0.316,3.101
	s-0.111,2.072-0.316,3.085c-0.19,1.012-0.506,2.009-0.902,2.958c-0.395,0.965-0.886,1.883-1.455,2.737
	c-0.569,0.87-1.234,1.677-1.962,2.405c-0.728,0.728-1.534,1.392-2.405,1.962c-0.854,0.57-1.772,1.06-2.721,1.455
	c-0.965,0.395-1.962,0.696-2.974,0.902S406.597,401.27,405.569,401.27z"/>
<path style="fill:#FF5050;" d="M342.358,132.012L342.358,132.012c22.788,0,41.262,18.474,41.262,41.262v118.808
	c0,22.788-18.474,41.262-41.262,41.262l0,0c-22.788,0-41.262-18.474-41.262-41.262V173.274
	C301.098,150.486,319.57,132.012,342.358,132.012z"/>
<path style="fill:#FFDCAA;" d="M342.358,248.174L342.358,248.174c22.788,0,41.262,18.472,41.262,41.262v-116.16
	c0-22.788-18.474-41.262-41.262-41.262l0,0c-22.788,0-41.262,18.474-41.262,41.262v116.16
	C301.098,266.646,319.57,248.174,342.358,248.174z"/>
<path style="fill:#FFDC64;" d="M231.095,405.489c33.758,37.966,8.448,90.692,8.448,90.692h-87.876
	c-24.678,0-46.888-14.933-56.206-37.761L51.118,349.742c-9.444-23.159-6.707-49.514,7.309-70.222l18.05-26.719
	c13.921-20.597,37.16-32.936,62.028-32.936h126.444c0,25.58-12.829,48.17-32.43,61.68c-12.07,8.337-26.687,13.209-42.459,13.209
	H145.67C145.67,294.754,197.352,367.522,231.095,405.489z"/>
<g>
	<path style="fill:#FFDCAA;" d="M242.492,273.306c-0.851,0.835-1.723,1.648-2.612,2.441
		C240.77,274.953,241.643,274.141,242.492,273.306z"/>
	<path style="fill:#FFDCAA;" d="M243.812,271.953c0.432-0.446,0.864-0.892,1.285-1.351
		C244.675,271.059,244.245,271.507,243.812,271.953z"/>
	<polygon style="fill:#FFDCAA;" points="250.873,263.533 250.873,263.533 250.869,263.54 	"/>
	<path style="fill:#FFDCAA;" d="M246.59,268.936c0.299-0.345,0.59-0.694,0.883-1.046C247.178,268.24,246.889,268.592,246.59,268.936
		z"/>
	<path style="fill:#FFDCAA;" d="M236.701,278.42c0.717-0.571,1.421-1.156,2.115-1.754
		C238.122,277.262,237.418,277.848,236.701,278.42z"/>
	<path style="fill:#FFDCAA;" d="M221.709,287.736c0.171-0.081,0.343-0.16,0.513-0.24
		C222.052,287.576,221.881,287.655,221.709,287.736z"/>
	<path style="fill:#FFDCAA;" d="M225.62,285.775c0.006-0.003,0.013-0.008,0.019-0.011
		C225.634,285.768,225.627,285.771,225.62,285.775z"/>
	<path style="fill:#FFDCAA;" d="M228.749,283.973c0.247-0.149,0.492-0.299,0.737-0.451
		C229.241,283.674,228.994,283.824,228.749,283.973z"/>
	<path style="fill:#FFDCAA;" d="M232.52,281.544c1.085-0.748,2.142-1.534,3.184-2.338
		C234.662,280.01,233.605,280.796,232.52,281.544z"/>
	<path style="fill:#FFDCAA;" d="M426.349,15.837c-23.318-0.639-42.421,18.072-42.421,41.246v206.452h-0.308v28.549
		c0,22.788-18.474,41.262-41.262,41.262l0,0c-22.788,0-41.262-18.474-41.262-41.262v-28.549h-0.31v28.549
		c0,22.788-18.474,41.262-41.262,41.262l0,0c-22.788,0-41.262-18.474-41.262-41.262v-2.833c0.005-0.002,0.009-0.005,0.014-0.006
		c-8.709,3.551-18.232,5.51-28.22,5.51h-44.389c0,0,51.682,72.769,85.424,110.735c33.758,37.966,8.448,90.692,8.448,90.692h128.788
		c54.191,0,98.121-43.93,98.121-98.121V270.376v-6.845V57.94C466.451,35.458,448.824,16.454,426.349,15.837z"/>
	<path style="fill:#FFDCAA;" d="M138.504,219.865h79.452V57.94c0-22.482-17.627-41.488-40.102-42.103
		c-23.318-0.639-42.421,18.072-42.421,41.246v162.879C136.456,219.919,137.476,219.865,138.504,219.865z"/>
</g>
<path style="fill:#FF5050;" d="M232.52,281.544c-4.429,3.059-9.205,5.647-14.253,7.704v2.833c0,22.788,18.474,41.262,41.262,41.262
	l0,0c22.788,0,41.262-18.474,41.262-41.262V173.274c0-22.788-18.474-41.262-41.262-41.262l0,0
	c-22.788,0-41.262,18.472-41.262,41.262v46.591h46.683"/>
<path style="fill:#FFDCAA;" d="M259.527,132.012L259.527,132.012c-22.788,0-41.262,18.474-41.262,41.262v46.591h46.683
	c0,10.023-1.993,19.573-5.568,28.312c0.049,0,0.098-0.003,0.147-0.003l0,0c22.788,0,41.262,18.472,41.262,41.262v-116.16
	C300.788,150.486,282.314,132.012,259.527,132.012z"/>
<path d="M426.784,0.024c-15.554-0.445-30.256,5.306-41.394,16.144c-11.142,10.841-17.278,25.371-17.278,40.915v65.275
	c-7.744-3.933-16.49-6.163-25.752-6.163c-16.295,0-31.006,6.875-41.417,17.863c-0.005-0.005-0.008-0.008-0.013-0.013
	c-0.641-0.675-1.296-1.335-1.968-1.977c-0.016-0.016-0.032-0.03-0.047-0.044c-0.661-0.631-1.337-1.247-2.028-1.846
	c-0.03-0.027-0.062-0.052-0.092-0.079c-0.676-0.584-1.364-1.152-2.066-1.702c-0.051-0.04-0.1-0.079-0.15-0.119
	c-0.682-0.533-1.378-1.05-2.083-1.552c-0.074-0.054-0.149-0.106-0.223-0.16c-0.685-0.481-1.381-0.948-2.087-1.398
	c-0.101-0.065-0.202-0.131-0.304-0.195c-0.682-0.43-1.373-0.843-2.074-1.245c-0.133-0.076-0.264-0.153-0.397-0.228
	c-0.674-0.38-1.357-0.742-2.047-1.095c-0.165-0.084-0.329-0.171-0.494-0.253c-0.663-0.331-1.335-0.644-2.012-0.948
	c-0.199-0.09-0.397-0.184-0.6-0.271c-0.649-0.283-1.305-0.547-1.965-0.807c-0.236-0.093-0.47-0.19-0.709-0.28
	c-0.631-0.237-1.272-0.459-1.914-0.674c-0.272-0.092-0.541-0.188-0.816-0.277c-0.617-0.198-1.242-0.375-1.867-0.552
	c-0.305-0.085-0.607-0.179-0.914-0.259c-0.601-0.158-1.209-0.297-1.818-0.437c-0.339-0.078-0.674-0.163-1.014-0.234
	c-0.587-0.123-1.182-0.225-1.777-0.331c-0.367-0.065-0.729-0.139-1.098-0.196c-0.581-0.09-1.167-0.158-1.754-0.231
	c-0.388-0.049-0.772-0.108-1.163-0.149c-0.584-0.06-1.174-0.096-1.764-0.139c-0.397-0.028-0.793-0.07-1.193-0.092
	c-0.706-0.036-1.419-0.046-2.131-0.055c-0.282-0.005-0.558-0.022-0.84-0.022c-0.055,0-0.111,0.005-0.166,0.005
	c-1.022,0.003-2.038,0.035-3.047,0.092c-0.34,0.019-0.675,0.052-1.012,0.078c-0.74,0.054-1.478,0.117-2.208,0.199
	c-0.351,0.04-0.701,0.089-1.05,0.134c-0.737,0.096-1.47,0.207-2.199,0.332c-0.304,0.052-0.607,0.106-0.91,0.163
	c-0.824,0.155-1.64,0.329-2.452,0.52c-0.191,0.046-0.384,0.085-0.576,0.133c-4.247,1.044-8.305,2.567-12.121,4.504
	c-0.003,0.002-0.006,0.002-0.008,0.003V57.946c0-31.096-24.892-57.078-55.486-57.916c-15.579-0.424-30.258,5.306-41.396,16.145
	c-11.142,10.841-17.278,25.371-17.278,40.913v148.986c-22.717,4.828-42.956,18.214-56.246,37.878l-18.042,26.7
	c-17.015,25.138-20.326,56.937-8.854,85.065L80.814,464.4c11.803,28.916,39.615,47.602,70.852,47.602h87.876H368.33
	c62.826,0,113.94-51.114,113.94-113.939V57.94C482.272,26.844,457.38,0.862,426.784,0.024z M316.918,173.274
	c0-1.753,0.179-3.466,0.517-5.121c2.376-11.583,12.649-20.321,24.925-20.321c12.274,0,22.547,8.739,24.923,20.321
	c0.34,1.655,0.517,3.368,0.517,5.121v65.07c-7.664-3.831-16.307-5.989-25.442-5.989c-9.136,0-17.776,2.156-25.442,5.989v-65.07
	H316.918z M316.918,289.434c0-14.029,11.412-25.442,25.442-25.442l0,0c14.029,0,25.442,11.412,25.442,25.442v2.648
	c0,12.276-8.739,22.547-20.322,24.925c-1.655,0.34-3.368,0.517-5.121,0.517s-3.466-0.179-5.121-0.517
	c-11.583-2.376-20.32-12.649-20.32-24.925v-2.648H316.918z M259.527,317.524c-11.747,0-21.633-8.016-24.547-18.855
	c2.232-1.275,4.409-2.642,6.516-4.099c0.065-0.046,0.127-0.095,0.191-0.141c1.391-0.963,2.748-1.963,4.073-2.996
	c0.577-0.449,1.126-0.925,1.691-1.387c0.783-0.641,1.569-1.277,2.327-1.941c0.694-0.607,1.36-1.24,2.036-1.868
	c0.579-0.539,1.163-1.074,1.726-1.628c0.75-0.736,1.474-1.493,2.197-2.253c0.438-0.462,0.88-0.921,1.307-1.391
	c0.783-0.857,1.541-1.732,2.287-2.618c0.321-0.381,0.641-0.761,0.954-1.147c0.802-0.982,1.582-1.979,2.341-2.993
	c0.214-0.286,0.424-0.574,0.634-0.862c0.815-1.115,1.607-2.242,2.368-3.392c0.112-0.168,0.218-0.34,0.329-0.509
	c0.826-1.264,1.626-2.541,2.387-3.842c9.688,3.599,16.621,12.909,16.621,23.832v2.648c0,1.753-0.179,3.466-0.517,5.121
	C282.074,308.787,271.802,317.524,259.527,317.524z M284.969,238.344c-1.822-0.911-3.697-1.726-5.624-2.441
	c0.278-1.549,0.503-3.108,0.699-4.671c0.264-2.098,0.451-4.211,0.568-6.336c0.092-1.671,0.155-3.346,0.155-5.029
	c0-8.737-7.082-15.819-15.819-15.819h-30.863v-30.772c0-2.631,0.402-5.17,1.145-7.557c3.226-10.349,12.897-17.884,24.297-17.884
	c12.274,0,22.547,8.737,24.923,20.32c0.34,1.655,0.517,3.368,0.517,5.121v65.068H284.969z M151.253,57.083
	c0-6.927,2.735-13.405,7.702-18.238c4.963-4.83,11.528-7.373,18.466-7.195c13.628,0.373,24.716,12.168,24.716,26.29v146.106h-50.884
	V57.083z M232.93,454.861c-0.009,0.868-0.032,1.732-0.07,2.585c-0.005,0.108-0.013,0.214-0.019,0.32
	c-0.038,0.753-0.085,1.498-0.144,2.237c-0.019,0.239-0.04,0.476-0.06,0.713c-0.059,0.666-0.123,1.326-0.196,1.979
	c-0.019,0.172-0.036,0.348-0.057,0.519c-0.095,0.813-0.201,1.615-0.316,2.403c-0.022,0.153-0.047,0.305-0.071,0.457
	c-0.098,0.645-0.201,1.283-0.31,1.909c-0.036,0.209-0.073,0.416-0.111,0.623c-0.119,0.658-0.242,1.305-0.372,1.941
	c-0.019,0.096-0.038,0.196-0.059,0.293c-0.152,0.732-0.308,1.449-0.471,2.15c-0.036,0.161-0.076,0.316-0.112,0.476
	c-0.131,0.554-0.264,1.096-0.399,1.628c-0.043,0.166-0.084,0.332-0.127,0.495c-0.343,1.319-0.698,2.567-1.05,3.73
	c-0.04,0.131-0.079,0.259-0.12,0.389c-0.07,0.223-0.138,0.433-0.206,0.652h-76.994c-18.324,0-34.636-10.96-41.559-27.918
	l-44.34-108.677c-7.468-18.314-5.315-39.017,5.768-55.393l18.048-26.716c10.415-15.411,27.385-24.923,45.846-25.879
	c0.002,0,0.002,0,0.003,0c0.215,0,0.43-0.005,0.645-0.013l0.581-0.025c0.614-0.027,1.228-0.057,1.846-0.057h79.452h0.308h28.703
	c-0.024,0.087-0.054,0.171-0.078,0.258c-0.258,0.906-0.538,1.805-0.84,2.7c-0.09,0.267-0.185,0.533-0.28,0.799
	c-0.274,0.775-0.563,1.547-0.87,2.314c-1.587,3.969-3.602,7.755-6.007,11.293c-0.04,0.059-0.079,0.117-0.119,0.176
	c-0.781,1.141-1.601,2.256-2.463,3.343c-0.041,0.052-0.085,0.103-0.127,0.157c-1.704,2.134-3.566,4.153-5.567,6.048
	c-0.142,0.134-0.283,0.271-0.427,0.403c-0.948,0.88-1.925,1.729-2.934,2.55c-0.163,0.133-0.331,0.261-0.495,0.392
	c-1.049,0.834-2.121,1.645-3.233,2.412c-0.894,0.617-1.803,1.207-2.726,1.77c-0.177,0.109-0.362,0.206-0.541,0.313
	c-0.753,0.449-1.508,0.891-2.276,1.303c-0.161,0.087-0.329,0.163-0.492,0.248c-0.802,0.421-1.607,0.834-2.425,1.216
	c-0.07,0.033-0.142,0.062-0.214,0.093c-0.914,0.424-1.838,0.829-2.772,1.205c-0.326,0.131-0.658,0.248-0.986,0.375
	c-0.948,0.362-1.901,0.699-2.866,1.011c-0.31,0.1-0.619,0.207-0.929,0.302c-1.205,0.367-2.422,0.696-3.651,0.986
	c-0.271,0.065-0.544,0.12-0.816,0.18c-1.166,0.256-2.341,0.484-3.525,0.671c-0.149,0.024-0.296,0.054-0.445,0.076
	c-1.297,0.195-2.607,0.335-3.922,0.443c-0.288,0.024-0.576,0.043-0.865,0.062c-1.334,0.09-2.672,0.15-4.018,0.15h-44.389
	c-5.918,0-11.341,3.303-14.057,8.561c-2.716,5.258-2.268,11.592,1.16,16.417c0.166,0.234,0.628,0.883,1.353,1.898
	c0.289,0.407,0.622,0.872,0.995,1.391c0.932,1.302,2.115,2.949,3.518,4.896c0.399,0.552,0.821,1.137,1.254,1.739
	c0.965,1.335,2.014,2.784,3.14,4.336c1.123,1.547,2.321,3.192,3.588,4.931c1.462,2.004,3.015,4.126,4.648,6.348
	c0.949,1.294,1.927,2.621,2.928,3.979c0.497,0.672,0.998,1.353,1.506,2.041c1.315,1.778,2.666,3.602,4.051,5.466
	c3.102,4.173,6.372,8.542,9.754,13.024c0.696,0.922,1.398,1.851,2.104,2.783c0.585,0.774,1.174,1.549,1.765,2.327
	c1.171,1.539,2.351,3.088,3.54,4.643c0.69,0.902,1.381,1.805,2.075,2.71c0.505,0.656,1.011,1.315,1.517,1.973
	c0.221,0.286,0.441,0.573,0.661,0.859c1.471,1.908,2.95,3.817,4.436,5.723c1.234,1.584,2.469,3.165,3.708,4.741
	c10.338,13.163,20.755,25.926,29.959,36.282c0.737,0.829,1.427,1.672,2.093,2.52c0.188,0.239,0.369,0.481,0.552,0.721
	c0.497,0.655,0.973,1.315,1.43,1.979c0.155,0.225,0.315,0.448,0.464,0.674c0.574,0.864,1.123,1.732,1.634,2.61
	c0.074,0.128,0.141,0.258,0.214,0.386c0.435,0.759,0.845,1.525,1.234,2.294c0.133,0.263,0.263,0.525,0.389,0.789
	c0.343,0.709,0.669,1.417,0.976,2.131c0.087,0.201,0.18,0.4,0.264,0.603c0.373,0.897,0.721,1.799,1.041,2.702
	c0.071,0.201,0.134,0.403,0.204,0.606c0.247,0.721,0.478,1.444,0.691,2.169c0.079,0.269,0.158,0.539,0.234,0.808
	c0.217,0.775,0.416,1.549,0.598,2.324c0.033,0.141,0.071,0.28,0.103,0.421c0.206,0.908,0.386,1.816,0.547,2.724
	c0.043,0.24,0.079,0.479,0.119,0.718c0.115,0.698,0.22,1.395,0.31,2.091c0.033,0.256,0.068,0.513,0.098,0.769
	c0.104,0.889,0.198,1.776,0.266,2.658c0.002,0.011,0.002,0.022,0.003,0.033c0.07,0.9,0.114,1.794,0.146,2.683
	c0.009,0.248,0.014,0.495,0.021,0.742c0.017,0.683,0.027,1.362,0.025,2.038C232.93,454.413,232.933,454.639,232.93,454.861z
	 M450.633,398.062c0,45.381-36.921,82.3-82.302,82.3h-106.97c0.019-0.082,0.036-0.169,0.055-0.252c0.114-0.497,0.226-1,0.335-1.509
	c0.033-0.155,0.068-0.307,0.101-0.462c0.141-0.66,0.277-1.327,0.411-2.006c0.025-0.133,0.051-0.267,0.076-0.4
	c0.104-0.544,0.207-1.093,0.307-1.65c0.041-0.231,0.082-0.465,0.122-0.698c0.082-0.478,0.163-0.959,0.242-1.444
	c0.04-0.247,0.079-0.494,0.119-0.742c0.085-0.552,0.168-1.109,0.247-1.671c0.024-0.169,0.049-0.337,0.073-0.508
	c0.098-0.72,0.191-1.446,0.278-2.18c0.027-0.221,0.049-0.448,0.074-0.671c0.059-0.527,0.115-1.055,0.169-1.59
	c0.028-0.283,0.054-0.569,0.081-0.854c0.046-0.497,0.087-0.997,0.127-1.5c0.022-0.283,0.046-0.566,0.065-0.851
	c0.043-0.609,0.081-1.224,0.114-1.841c0.009-0.171,0.021-0.34,0.03-0.511c0.038-0.766,0.066-1.539,0.089-2.316
	c0.008-0.277,0.011-0.557,0.017-0.835c0.011-0.528,0.019-1.057,0.022-1.59c0.002-0.316,0.002-0.633,0.002-0.951
	c-0.002-0.524-0.008-1.049-0.017-1.577c-0.005-0.302-0.009-0.603-0.017-0.905c-0.019-0.72-0.046-1.443-0.081-2.169
	c-0.009-0.19-0.019-0.38-0.028-0.569c-0.038-0.72-0.085-1.443-0.141-2.169c-0.024-0.307-0.052-0.614-0.078-0.922
	c-0.046-0.539-0.096-1.08-0.152-1.623c-0.033-0.332-0.07-0.664-0.108-0.998c-0.063-0.554-0.131-1.107-0.204-1.664
	c-0.04-0.302-0.076-0.604-0.119-0.906c-0.117-0.827-0.242-1.655-0.383-2.487c-0.035-0.204-0.076-0.41-0.111-0.612
	c-0.115-0.653-0.236-1.308-0.365-1.965c-0.065-0.323-0.133-0.645-0.201-0.968c-0.115-0.552-0.237-1.104-0.365-1.658
	c-0.078-0.334-0.155-0.669-0.236-1.005c-0.142-0.59-0.296-1.18-0.452-1.77c-0.074-0.28-0.144-0.562-0.221-0.842
	c-0.233-0.845-0.479-1.689-0.74-2.534c-0.074-0.239-0.155-0.478-0.231-0.715c-0.202-0.633-0.41-1.264-0.628-1.897
	c-0.111-0.321-0.228-0.644-0.343-0.965c-0.204-0.566-0.414-1.133-0.631-1.699c-0.123-0.321-0.247-0.642-0.373-0.962
	c-0.255-0.641-0.522-1.28-0.796-1.92c-0.098-0.229-0.19-0.459-0.291-0.688c-0.373-0.849-0.762-1.697-1.169-2.545
	c-0.122-0.253-0.252-0.506-0.377-0.759c-0.304-0.615-0.612-1.229-0.933-1.843c-0.163-0.312-0.331-0.622-0.498-0.932
	c-0.312-0.577-0.633-1.152-0.96-1.726c-0.169-0.296-0.337-0.593-0.511-0.889c-0.422-0.717-0.859-1.432-1.308-2.145
	c-0.085-0.136-0.166-0.274-0.253-0.41c-0.538-0.843-1.099-1.683-1.677-2.522c-0.171-0.248-0.351-0.494-0.525-0.742
	c-0.323-0.457-0.656-0.913-0.992-1.368h110.115c8.737,0,15.819-7.082,15.819-15.819s-7.082-15.819-15.819-15.819H221.709
	c-15.968-19.924-32.773-42.372-45.028-59.053h13.383c1.213,0,2.424-0.027,3.629-0.074c0.432-0.017,0.861-0.049,1.291-0.073
	c0.772-0.041,1.544-0.082,2.314-0.144c0.508-0.04,1.012-0.095,1.519-0.142c0.694-0.066,1.387-0.133,2.079-0.215
	c0.514-0.062,1.025-0.133,1.538-0.204c0.694-0.095,1.387-0.193,2.077-0.304c0.201-0.032,0.403-0.054,0.604-0.089
	c0.242,0.761,0.501,1.515,0.775,2.264c0.066,0.18,0.139,0.356,0.206,0.535c0.234,0.622,0.476,1.239,0.731,1.849
	c0.114,0.274,0.233,0.543,0.351,0.813c0.226,0.52,0.46,1.038,0.702,1.55c0.131,0.277,0.261,0.554,0.397,0.827
	c0.263,0.533,0.535,1.061,0.813,1.585c0.12,0.228,0.237,0.457,0.361,0.682c0.403,0.736,0.819,1.463,1.254,2.178
	c0.066,0.111,0.139,0.217,0.206,0.326c0.375,0.609,0.759,1.21,1.156,1.802c0.158,0.237,0.323,0.47,0.484,0.704
	c0.321,0.465,0.649,0.927,0.984,1.383c0.182,0.247,0.365,0.494,0.551,0.737c0.345,0.454,0.699,0.902,1.058,1.345
	c0.174,0.215,0.345,0.433,0.522,0.645c0.498,0.598,1.008,1.188,1.53,1.765c0.04,0.044,0.078,0.09,0.117,0.133
	c0.56,0.617,1.137,1.218,1.724,1.808c0.19,0.191,0.386,0.378,0.577,0.566c0.41,0.402,0.824,0.799,1.247,1.188
	c0.226,0.209,0.454,0.414,0.683,0.619c0.416,0.372,0.838,0.737,1.266,1.098c0.223,0.188,0.445,0.378,0.671,0.562
	c0.524,0.427,1.057,0.845,1.595,1.254c0.13,0.1,0.256,0.203,0.388,0.299c0.669,0.498,1.349,0.982,2.041,1.452
	c0.202,0.138,0.41,0.267,0.612,0.403c0.501,0.332,1.006,0.658,1.519,0.974c0.256,0.158,0.516,0.313,0.777,0.468
	c0.482,0.288,0.97,0.568,1.462,0.842c0.261,0.146,0.52,0.291,0.785,0.432c0.555,0.297,1.118,0.585,1.686,0.865
	c0.195,0.096,0.386,0.198,0.582,0.291c0.759,0.364,1.53,0.713,2.308,1.044c0.188,0.081,0.381,0.153,0.571,0.231
	c0.6,0.247,1.202,0.487,1.811,0.715c0.278,0.104,0.56,0.203,0.84,0.302c0.539,0.191,1.082,0.376,1.629,0.552
	c0.291,0.093,0.584,0.187,0.876,0.277c0.587,0.179,1.18,0.345,1.775,0.505c0.242,0.065,0.482,0.136,0.726,0.198
	c0.835,0.214,1.677,0.41,2.528,0.585c0.133,0.027,0.267,0.049,0.4,0.074c0.721,0.144,1.446,0.274,2.177,0.389
	c0.288,0.046,0.577,0.084,0.865,0.125c0.592,0.084,1.186,0.161,1.784,0.228c0.312,0.035,0.625,0.066,0.94,0.096
	c0.614,0.057,1.229,0.103,1.848,0.141c0.28,0.017,0.557,0.038,0.837,0.052c0.894,0.041,1.791,0.068,2.694,0.068
	c1.001,0,1.996-0.027,2.985-0.079c0.324-0.017,0.644-0.052,0.968-0.074c0.661-0.046,1.324-0.089,1.979-0.157
	c0.381-0.04,0.756-0.098,1.136-0.146c0.592-0.073,1.183-0.142,1.769-0.233c0.4-0.063,0.796-0.142,1.193-0.214
	c0.555-0.1,1.112-0.193,1.663-0.309c0.408-0.085,0.812-0.187,1.217-0.282c0.532-0.123,1.063-0.244,1.588-0.381
	c0.41-0.108,0.813-0.231,1.218-0.346c0.513-0.147,1.025-0.291,1.531-0.451c0.407-0.13,0.807-0.272,1.21-0.411
	c0.497-0.171,0.993-0.339,1.484-0.522c0.399-0.149,0.793-0.312,1.188-0.47c0.482-0.193,0.965-0.384,1.441-0.592
	c0.392-0.169,0.778-0.35,1.166-0.528c0.468-0.215,0.936-0.43,1.398-0.658c0.384-0.19,0.762-0.388,1.141-0.585
	c0.452-0.236,0.905-0.473,1.351-0.721c0.377-0.209,0.747-0.426,1.117-0.642c0.437-0.256,0.872-0.513,1.302-0.78
	c0.367-0.228,0.728-0.462,1.088-0.698c0.421-0.275,0.84-0.552,1.253-0.838c0.356-0.247,0.707-0.498,1.058-0.753
	c0.403-0.293,0.805-0.59,1.201-0.892c0.346-0.264,0.687-0.535,1.027-0.807c0.386-0.31,0.769-0.623,1.145-0.943
	c0.335-0.283,0.666-0.569,0.993-0.861c0.367-0.326,0.729-0.655,1.088-0.99c0.323-0.301,0.642-0.606,0.959-0.914
	c0.348-0.34,0.69-0.685,1.03-1.033c0.174-0.179,0.356-0.348,0.527-0.528c0.169,0.179,0.35,0.346,0.52,0.522
	c0.343,0.353,0.688,0.701,1.039,1.044c0.313,0.307,0.631,0.609,0.952,0.908c0.359,0.335,0.723,0.666,1.092,0.993
	c0.329,0.291,0.66,0.577,0.995,0.862c0.377,0.318,0.758,0.631,1.142,0.941c0.34,0.274,0.683,0.544,1.03,0.81
	c0.394,0.302,0.793,0.596,1.194,0.887c0.353,0.256,0.707,0.511,1.066,0.758c0.41,0.283,0.824,0.558,1.242,0.831
	c0.365,0.239,0.729,0.476,1.099,0.706c0.426,0.264,0.856,0.519,1.288,0.772c0.375,0.22,0.75,0.44,1.131,0.65
	c0.44,0.245,0.887,0.479,1.335,0.712c0.384,0.201,0.769,0.402,1.158,0.593c0.456,0.225,0.919,0.437,1.381,0.65
	c0.392,0.18,0.785,0.364,1.182,0.535c0.471,0.204,0.951,0.394,1.428,0.585c0.4,0.16,0.797,0.324,1.201,0.475
	c0.486,0.182,0.978,0.348,1.47,0.517c0.408,0.139,0.813,0.285,1.224,0.414c0.5,0.16,1.008,0.301,1.512,0.446
	c0.411,0.119,0.821,0.244,1.237,0.353c0.52,0.136,1.047,0.255,1.574,0.376c0.41,0.095,0.816,0.198,1.231,0.285
	c0.547,0.115,1.103,0.209,1.656,0.307c0.4,0.071,0.797,0.152,1.199,0.215c0.584,0.092,1.175,0.16,1.764,0.233
	c0.38,0.047,0.758,0.106,1.139,0.146c0.655,0.068,1.316,0.111,1.977,0.157c0.323,0.022,0.644,0.057,0.968,0.074
	c0.989,0.051,1.984,0.079,2.985,0.079c3.934,0,7.777-0.4,11.49-1.161c25.986-5.331,45.591-28.378,45.591-55.918l0,0v-2.648v-22.77
	c0.203-1.012,0.31-2.058,0.31-3.131V57.083c0-6.927,2.735-13.405,7.702-18.238c4.964-4.83,11.539-7.365,18.464-7.195
	c13.628,0.373,24.718,12.168,24.718,26.29v340.122H450.633z"/>
</svg>